<svg xmlns="http://www.w3.org/2000/svg" width="374" height="341" viewBox="0 0 374 341">
  <g fill="none" fill-rule="evenodd" transform="translate(4 -17)">
    <path fill="#FFF" fill-rule="nonzero" stroke="#000" stroke-width="4" d="M367.999658,131 L368.000003,354 L-2.00034223,354 L-1.9999969,131 L367.999658,131 Z"/>
    <g transform="translate(40.74)">
      <g transform="translate(.26 140)">
        <path fill="#FFF" d="M305.643621,64.2989529 C301.262042,64.7293076 296.880463,65.1590484 292.498884,65.5894031 C271.514299,67.1932572 250.538007,70.5427797 229.714065,72.5530457 C229.195586,71.708912 228.180743,71.8479638 227.564588,72.43456 C225.486678,72.2525341 223.157822,70.663721 221.275571,72.3163813 C221.214447,72.3077865 221.153323,72.2976569 221.091584,72.2918247 C217.740206,65.8570703 215.423636,58.9938029 213.175255,52.1213267 C211.740223,47.8960539 209.809441,43.8058424 206.241518,40.9689393 C200.152459,36.7405969 186.200823,28.1663472 179.050848,28.5267156 C178.932286,27.246088 178.335482,25.9261698 177.355654,25.0734413 C179.515267,21.3902558 170.880193,18.9870839 170.271103,19.4140621 C170.661498,7.10874147 164.875295,-3.57768417 152.116653,-6.02812756 C140.68646,-8.41073329 124.429005,-8.81100614 118.281586,3.13855048 C117.605843,3.06242497 110.698409,3.02644952 110.030038,3.1013472 C108.990929,1.78480559 97.5794771,14.2602058 102.25654,18.6033504 C60.4418702,37.1073749 36.6659607,34.8994645 25.092326,86.9192804 C23.5276738,91.8060471 23.4137189,97.1535573 21.7615273,101.931354 C15.8834846,115.661879 11.1158105,130.282582 9.92926726,145.222827 C7.06350261,145.957377 6.73392431,151.01205 10.0533582,151.743223 C11.3212978,152.022862 12.3816001,152.404717 13.3061393,153.12883 C12.5834015,165.372145 15.543463,193.34029 17.4085137,193.254035 C21.211411,205.361368 38.1743433,208.778364 50.1835251,204.523623 C48.1132943,208.419838 50.1835251,210.869594 50.1835251,212.951353 C93.3957545,214.586824 140.643765,213.644928 183.844016,215.887868 C189.370058,215.809287 195.182369,217.245542 200.632851,216.418905 C203.956892,215.621736 203.962421,210.393325 200.59077,209.746872 L215.323301,206.545878 C214.99403,206.42156 221.396134,202.161675 226.234761,194.20134 C230.738588,185.296497 227.673321,174.547514 229.714065,164.861156 C245.653,163.5572 261.855474,162.999669 277.619944,160.299362 C279.769421,166.732889 289.074095,159.038687 292.031699,155.943632 C292.028014,155.938721 292.024328,155.934117 292.020642,155.929205 C293.451988,155.537527 294.59983,154.195508 294.638224,152.606695 C295.64201,151.171975 295.852719,149.149737 294.890092,147.763209 C299.30208,122.295542 306.02818,96.2925409 308.459319,70.5854468 C309.318741,70.395133 310.128097,70.0181889 310.814283,69.437425 L310.758688,69.3818656 C311.921273,68.0852763 312.14734,65.8472476 310.209186,64.7455764 C308.645763,63.856013 307.34035,64.1319679 305.643621,64.2989529 Z"/>
        <path fill="#000" d="M119.078174,0.363284447 C120.380122,-2.90980559 124.781213,-1.63746589 124.290567,1.80107435 C123.996915,3.86076057 122.869256,6.03616985 121.856358,7.84138813 C121.031556,9.31079468 120.090766,10.7449011 118.815207,11.8462653 C121.085867,13.9655014 123.442751,16.007384 125.85947,17.9461289 C128.496504,20.0613745 131.269471,22.0111698 134.135719,23.8031889 C136.649095,25.3748124 139.276003,26.7671726 141.645161,28.5604195 C143.848008,30.2275068 145.854781,32.2325546 146.875964,34.8499829 C147.9638,37.637265 147.491043,40.5157596 146.689984,43.3011604 L146.597961,43.6160812 C145.779603,46.375631 144.362895,49.7021317 146.327323,52.3020634 C147.327334,53.6256651 148.781171,54.5631139 150.036477,55.6211971 C151.152169,56.5617156 152.199435,57.5844986 153.159862,58.6831003 C155.254086,61.0779843 156.957388,63.772766 158.03227,66.7754263 L158.128393,67.0482147 C159.049699,69.7062879 159.723022,72.9625171 158.478117,75.5722203 C158.120948,76.3202763 156.969048,76.0771658 156.768985,75.3487551 C156.316694,73.6985505 156.340321,71.9703786 155.961059,70.2968452 C155.566455,68.556395 154.909805,66.9043486 154.052171,65.3413199 C152.392796,62.3175522 150.145495,59.7346717 147.490417,57.5510249 L146.695615,56.904447 C144.624349,55.2040165 142.721311,53.4000824 142.300891,50.5858629 C141.851054,47.5749147 143.056959,44.7067019 143.832359,41.8569065 C144.372715,39.8708902 144.549151,37.9671385 143.965223,36.1723568 C143.251806,37.3372613 142.278491,38.4429229 141.508614,39.429178 C139.975305,41.3940143 138.427574,43.3468793 136.883832,45.3034277 C135.30112,47.3097033 133.757378,49.3475955 132.287279,51.4382844 C131.629708,52.3735846 130.979195,53.31441 130.330829,54.2561562 C129.843251,54.9640007 129.163281,55.6712312 128.631823,56.3931958 C128.761006,56.7793486 128.751186,57.2244372 128.517063,57.5406037 C125.698683,61.3499488 121.689127,53.4015859 120.643395,51.3934686 C118.513884,47.3038711 116.929025,42.9591917 114.792457,38.870515 C112.578563,34.632043 110.057517,30.5065314 107.247728,26.6370225 C105.548108,24.29647 103.643208,22.0980389 102.08842,19.6832026 C98.4255996,23.0057128 93.6056632,25.232998 89.1784896,27.2527797 C84.3142505,29.4716454 79.2607549,31.2842968 74.2735255,33.2091248 L72.8003305,33.7815206 C64.2071862,37.1363847 55.4040466,40.8221059 48.2615006,46.7811221 C39.8683429,53.7837483 34.9029615,63.5437756 31.2063881,73.6506651 C26.9510483,85.285897 23.4306045,97.2351467 20.1488869,109.176722 C18.4695189,115.286716 16.8760678,121.424335 15.3780458,127.5816 C14.0579945,133.006156 12.9637818,138.484737 11.4356889,143.853428 C14.5348331,143.743844 18.0693918,144.944048 20.7153246,145.290604 C32.7740642,146.869594 44.6704823,149.386647 56.0553881,153.744526 C57.4616632,154.28293 57.868541,155.687875 57.5623087,156.826688 C58.3733026,156.597698 59.1836828,156.365638 59.9946767,156.137875 C59.1061553,154.77596 59.530236,152.341065 59.6000907,150.831535 L59.6043686,150.727746 C59.6761705,148.716252 59.894338,146.702609 60.035794,144.694799 C60.3051576,140.867367 60.6558335,137.06792 61.1220924,133.262418 L61.241085,132.310897 C61.7694737,128.170651 62.1600886,124.006156 62.7366522,119.872971 L62.804772,119.399949 C62.5283038,118.34248 62.2064224,117.297902 61.868585,116.25793 C60.9682989,113.487636 59.6976498,110.880031 58.5841057,108.196913 C58.4527757,107.881054 58.9026119,107.699642 59.1128013,107.889035 C60.9986767,109.586204 62.4966987,111.739205 63.7001485,113.991047 C63.7210141,113.88484 63.7394248,113.778325 63.7612109,113.672118 L63.8985367,112.995952 C64.2371772,111.346961 64.6490836,109.611998 65.6602806,108.274574 C65.7679835,108.132452 65.9809346,108.102677 66.0828075,108.274574 C67.0505996,109.912807 67.1589163,111.987534 67.3077366,113.851688 C67.476195,115.960488 67.4973674,118.095992 67.4676033,120.210624 C67.4096094,124.343196 67.1184126,128.487432 66.886437,132.61325 C66.6588656,136.667692 66.211945,140.670472 65.6359795,144.685055 L65.5264957,145.437943 C65.244939,147.348781 65.0144337,149.283348 64.6430642,151.181116 L64.5381449,151.697732 C64.3396155,152.638864 64.2174908,153.965842 63.8222732,155.068128 C73.9905348,152.230917 84.1744456,149.458475 94.3776877,146.73484 C101.752117,144.766013 109.134217,142.826654 116.513249,140.875017 C116.902636,140.173005 117.387453,139.517343 117.992553,138.931361 C119.986131,136.999983 122.628075,136.138353 125.051238,137.624949 C125.248233,137.746197 125.264803,138.054997 125.051238,138.171947 C124.58698,138.425802 124.121801,138.686102 123.664908,138.957452 L128.095763,137.756941 C131.407552,136.859089 134.758924,135.737159 138.148651,135.111272 C144.392046,132.02911 151.107063,129.798141 157.683999,127.593264 L158.459019,127.331018 C161.826572,126.182511 165.309801,124.896772 168.789062,124.26001 C171.33619,123.794048 174.326097,124.356395 175.350349,126.966763 C176.64708,127.821641 177.8671,128.826313 179.044468,129.81441 C179.895658,130.528394 180.711562,131.2875 181.541273,132.026654 L181.694234,132.160985 C182.372537,132.749724 182.90987,133.144023 183.076424,134.081122 C183.16234,134.565194 182.854881,135.219628 182.258065,135.155474 C180.432025,134.959942 178.947197,132.842548 177.708767,131.578189 C176.752021,130.600836 175.787605,129.590331 174.914321,128.516286 C174.405263,128.793469 173.707496,128.743741 173.383466,128.129826 C171.703178,124.946982 167.100182,127.152473 164.55336,127.907282 L160.904981,128.987537 C159.08091,129.528436 157.257545,130.072009 155.437273,130.625085 C150.434457,132.144833 145.456188,133.845686 140.407958,135.241422 C140.859635,135.73808 140.797345,136.621504 139.939404,136.957623 C135.987842,138.50868 131.652722,139.310761 127.54743,140.374983 C124.955502,141.047527 122.365108,141.724062 119.775635,142.404587 C119.331629,143.124096 119.012202,143.938148 118.877804,144.885726 C118.383644,148.369859 119.336703,152.389791 120.265071,155.7596 L120.404916,156.262379 C121.168065,158.971658 122.290825,162.292889 124.627483,164.003666 C125.19791,164.420822 125.924215,164.711204 126.656349,164.776893 C131.230502,162.421606 135.804348,160.066627 140.380955,157.715945 C141.228771,157.280372 142.012149,157.870038 142.202393,158.571129 C143.816096,158.306224 145.426117,157.888762 146.892534,157.390877 C149.356507,156.553803 151.280431,154.957316 153.590367,153.853189 C158.05991,151.717353 162.624188,154.340895 166.625952,156.335466 L167.548258,156.788936 C169.3428,157.659943 173.076224,159.333224 173.937323,156.951006 C174.770103,154.646368 172.137058,152.183339 170.436518,151.146129 C168.409493,149.909396 166.049234,149.247595 163.758322,148.696299 C162.450238,148.381361 161.126197,148.124437 159.794179,147.936886 C158.28327,147.724164 156.722651,147.756088 155.267894,147.265877 C154.544965,147.022766 154.433887,145.87413 155.267894,145.68443 C157.507283,145.174607 160.180079,145.730715 162.516966,146.299001 L163.738377,146.600085 C166.092806,147.178087 168.469942,147.903428 170.614488,149.056361 C172.17388,149.894969 173.819801,151.168844 174.89499,152.728189 C175.828698,151.860538 176.990796,151.889871 178.201325,152.211669 L178.85837,152.394384 C179.943338,152.695163 180.822771,152.90219 181.878497,152.69381 C182.019646,151.925495 182.162636,151.156872 182.315752,150.38825 C183.820218,142.832793 185.470129,135.30619 187.290646,127.819799 C190.430868,114.906781 194.064502,102.135488 198.160958,89.4950692 L198.572145,88.2314632 C199.516924,85.3402285 200.277288,82.1902285 201.800471,79.5341235 C203.241113,77.0225955 205.549208,75.5759038 208.291491,74.8097374 C211.403523,73.9404332 214.67358,73.4855218 217.848208,72.8983117 C218.556409,72.7675477 219.26645,72.6432299 219.975265,72.5146146 C219.37625,71.432691 218.929139,70.2045589 218.526397,69.2620597 L218.455763,69.0987892 C217.59055,67.1254502 216.813321,65.1165563 216.062787,63.0969461 L215.501357,61.5786493 C214.146228,57.9225389 212.747311,54.3264714 210.841994,50.9069407 C208.836449,47.3081685 206.175788,44.3659789 202.85909,41.9308834 C196.096818,36.9655355 187.946069,34.4328274 181.387237,29.1264495 C181.118439,28.9091235 181.463028,28.5373977 181.735814,28.6749147 C186.164521,30.900972 190.945488,32.4145805 195.55186,34.2268588 L196.46054,34.5855184 C200.101378,36.0293435 203.798912,37.6011268 206.950267,39.9387278 C210.463653,42.5454127 213.23079,45.7825887 215.310592,49.6321453 C217.360323,53.4267565 218.671476,57.6741303 220.117641,61.7271999 L220.504428,62.8071578 C221.087739,64.4265758 221.690227,66.0411556 222.38063,67.6171044 C222.928657,68.868264 223.951375,70.2965382 224.416246,71.7257333 C225.688123,71.5050307 226.959693,71.2837142 228.232796,71.0709925 C255.808123,66.465399 283.691523,63.7592599 311.636905,62.967616 C312.730197,62.9366132 313.295715,63.9802694 313.13462,64.934294 C310.452787,80.7981753 308.069514,96.7163881 305.454573,112.592241 C304.313106,119.521197 303.148932,126.444935 301.957449,133.365297 C301.353883,136.871368 300.656116,140.363932 300.084461,143.875222 C299.622965,146.710897 299.287889,149.568673 298.495613,152.33866 C297.784958,154.822254 296.694427,157.217138 294.903367,159.111988 C292.972693,161.154485 290.277971,162.143196 287.565453,162.610385 C280.679523,163.795856 273.616542,164.279928 266.674766,165.069731 L229.71609,169.275972 C230.256181,174.186872 230.296545,179.021369 230.048738,183.98944 L229.907509,186.70152 C229.792053,188.882953 229.65403,191.067667 229.340817,193.226654 C228.948054,195.934942 227.709624,198.228223 225.885425,200.251074 C224.210353,202.108782 222.17535,203.693912 220.195887,205.212739 C218.141246,206.789887 216.018179,208.312091 213.602381,209.287295 L213.288822,209.411792 C211.169479,210.239551 207.193807,211.521354 204.29697,211.052916 C204.675618,212.950836 205.408366,214.99149 204.758773,216.869458 C204.45745,217.741525 203.317518,218.176484 202.619136,217.434567 C201.235568,215.963932 201.127558,214.021504 200.799847,212.103018 C200.458941,210.106565 200.164982,208.103053 199.903856,206.094628 C199.398788,202.211306 199.005718,198.292377 198.885741,194.376211 C198.762389,190.354451 198.80995,186.327166 199.026584,182.309703 C199.137969,180.246641 199.27605,178.184806 199.537789,176.134942 C199.649481,175.260726 199.763628,174.385897 199.894037,173.51383 C199.941598,173.195822 199.994376,172.879349 200.051142,172.563489 L196.733886,172.937884 C191.647391,173.505939 186.558479,174.018907 181.436025,174.098585 C180.829391,174.107793 180.362678,173.831531 180.057673,173.42911 C179.732723,173.958612 179.166899,174.337398 178.356519,174.334328 C171.203019,174.307623 164.541393,171.967684 158.035031,169.209976 C154.755461,167.819458 151.526828,166.314137 148.242349,164.93559 C145.176651,163.648823 141.899229,162.730713 138.907481,161.281259 L131.046087,165.406156 C130.9884,165.609055 130.91445,165.800904 130.835898,165.961443 C130.324079,167.006634 129.314862,167.573585 128.284167,168.000563 C127.294895,168.411272 126.270337,168.538967 125.272167,168.435215 C119.310073,171.560658 113.346598,174.683166 107.379154,177.798336 L101.41029,180.910897 C89.5181681,187.104997 77.6729933,193.400699 65.7060006,199.449301 L64.8249883,199.892961 C60.6915429,201.966354 56.2530583,204.068073 51.6659566,205.63634 C51.5843356,206.797868 51.6358857,207.927473 51.7331559,209.156838 L51.7565714,209.424645 C51.8933369,210.877426 52.186584,212.697776 51.0215801,213.732043 C50.4155593,214.269833 49.3330067,214.271982 48.9209126,213.460999 C48.173129,211.990365 48.8445079,209.671913 49.081393,208.074198 C49.1654688,207.50602 49.2679554,206.921879 49.4195373,206.355235 C44.1608111,207.921334 38.7428319,208.680747 33.3914383,207.801313 C28.1811938,206.945822 24.1458625,203.662295 20.8926815,199.646061 C17.459382,195.407896 15.0196498,190.468639 13.7106449,185.173926 C12.2209077,179.14896 12.1236375,172.926927 12.158618,166.755542 C12.1957463,160.183885 12.4387683,153.57969 13.2377952,147.052234 C12.3623637,146.846265 11.3915031,146.66823 10.5068661,146.729621 C10.0686901,147.43102 9.21872677,147.726313 8.45069132,147.635147 C6.78052873,149.477814 11.0168441,151.360999 12.3706485,151.832486 C12.8407366,151.996402 12.7904138,152.760113 12.248217,152.737091 L11.9066904,152.720851 C9.81481054,152.609521 7.6536166,152.25223 6.42366687,150.30752 C5.43807763,148.748789 5.73418399,146.902132 6.90909719,145.63102 C7.68511064,138.291047 9.54030134,131.143537 11.2669236,123.983441 C12.961327,116.955645 14.8456681,109.972971 16.8429285,103.025597 L17.7383126,99.9160886 C20.8829617,89.0225988 24.1699032,78.0412146 28.5076779,67.5805764 C30.6737035,62.357384 33.1689749,57.2302694 36.551338,52.6759379 C39.7041803,48.4304059 43.4265287,44.7975614 47.7051889,41.6948329 C55.6816543,35.9099937 65.0412111,32.4146572 74.2373722,29.0845287 L74.6490263,28.9355218 C79.414651,27.2110334 84.1686155,25.4659789 88.8799285,23.5975273 C93.0465899,21.9451739 97.038349,19.8501876 101.185372,18.1729707 C101.050667,17.9283254 100.920564,17.6809175 100.795371,17.4307469 L100.718705,17.4952535 C100.705602,17.5056787 100.692169,17.5157742 100.678156,17.5252899 C100.261152,17.8144441 99.6471534,17.6723226 99.3034859,17.3478683 C98.3331075,16.4319003 98.6616305,15.4151114 99.3093523,14.465179 L99.3936987,14.3442872 C100.185975,13.2340211 100.892641,12.0602149 101.623855,10.9097374 L102.081747,10.1902706 C103.309118,8.26821851 104.598931,6.33333902 106.235443,4.74479877 C106.993353,4.00871419 107.823064,3.45803206 108.702178,3.0476296 C108.627001,2.88862551 109.286106,2.5635573 109.472975,2.72716576 C112.258216,1.70745225 115.462608,1.92109482 118.499156,2.20226808 M227.927792,169.479178 L224.055395,169.919662 C219.795146,170.404594 215.53324,170.873503 211.270803,171.337859 L202.012502,172.344321 C201.988875,172.872289 201.924744,173.388591 201.913084,173.787329 C201.852635,175.843025 201.807529,177.899642 201.764877,179.955952 C201.679267,184.07778 201.773162,188.203598 202.044414,192.317445 C202.307342,196.303675 202.653605,200.290444 203.191667,204.249678 L203.301869,205.041149 L203.365693,205.457384 C203.804789,205.499744 204.236215,205.708475 204.594917,206.137295 C205.377988,207.072595 208.213552,206.163387 209.320959,205.769253 C211.14209,205.120958 212.857052,204.025733 214.439457,202.927439 C215.984805,201.855037 217.37631,200.604536 218.713486,199.287257 L219.807558,198.204807 C220.895881,197.122927 221.985381,195.97038 222.652189,194.609499 C223.556464,192.764069 223.673372,190.498721 223.938487,188.488762 C224.264971,186.016525 224.653745,183.544594 225.064612,181.084635 M115.513238,143.528359 L115.111576,143.633953 C100.520744,147.512364 85.9516974,151.505269 71.3160654,155.212398 C64.0732732,157.047391 56.7961143,158.748857 49.5444236,160.54855 L48.3703561,160.842295 C42.6495468,162.288706 36.8600605,164.029518 32.4791852,168.18044 C32.3174774,168.333305 32.0827402,168.098482 32.2349358,167.936102 C36.9563747,162.908134 43.6713918,160.77969 50.1188392,158.934567 C51.310629,158.593537 52.5039529,158.260488 53.6960495,157.921299 C44.9276192,154.794321 36.0208013,152.073755 26.9083967,150.133475 C24.5619456,149.633748 22.1881852,149.266934 19.8435752,148.765365 C18.2084237,148.415341 16.6115482,147.909423 14.9936706,147.489731 L13.7210776,147.169492 L13.7041767,151.192978 C13.6829974,156.891668 13.6931108,162.585712 13.9837378,168.283578 L14.038753,169.339072 C14.3778368,175.679993 14.907118,182.152573 17.1565251,188.131463 C18.9844065,192.98999 21.8979089,197.567036 25.7080153,201.105952 C27.6359285,202.896436 29.708673,204.290331 32.2708368,204.97853 C34.6498136,205.617309 37.1423233,205.692207 39.5878857,205.521845 C51.3183001,204.703189 61.7602683,198.328598 71.9500092,193.050767 C88.6169615,184.418196 105.285755,175.789922 121.969584,167.190501 C121.51852,166.882009 121.093845,166.526552 120.707526,166.1272 C118.470312,163.815808 117.290183,160.651688 116.51509,157.587329 C115.689981,154.325597 115.196573,150.829656 115.139193,147.462329 M136.741793,170.522865 C136.889079,170.44367 137.059685,170.542817 137.066436,170.709188 C137.117986,171.983888 136.413795,173.241133 135.887644,174.389472 L135.831995,174.512087 C135.192834,175.934529 134.492919,177.33794 133.769069,178.71925 C132.32229,181.479106 130.818745,184.209495 129.249535,186.901207 C126.093931,192.316248 122.587295,197.50322 118.44242,202.21809 C117.506233,203.283233 115.96648,201.917578 116.567284,200.770784 C119.46391,195.242476 122.84075,190.02266 126.316701,184.848274 C128.056825,182.257551 129.795721,179.664372 131.553028,177.085314 C132.286134,176.009171 133.028616,174.936866 133.791128,173.880832 L134.251124,173.249263 M309.789079,66.1338847 C295.14731,66.5762108 280.522724,67.5314632 265.950609,69.0284959 C252.39845,70.4205491 238.896001,72.2736528 225.469649,74.5838165 C222.665332,75.0662517 219.864425,75.5685113 217.067105,76.0905952 L215.389145,76.4062244 C212.591323,76.9366473 209.173366,77.1555082 206.682391,78.6506992 C204.056096,80.226927 203.346361,83.5211971 202.472464,86.2377729 C201.445144,89.4325887 200.443905,92.6366132 199.469669,95.8483117 C195.600955,108.600256 192.06701,121.462705 188.914475,134.410181 C187.349561,140.836954 185.961083,147.299642 184.498041,153.749744 C183.198241,159.480645 181.764043,165.146777 180.265715,170.820276 C180.450436,170.67662 180.676888,170.567343 180.950288,170.509021 C188.390631,168.925551 195.985613,168.237123 203.537166,167.362338 L204.26782,167.277063 C212.079811,166.358032 219.891803,165.445754 227.708397,164.566627 L279.46073,158.74456 C282.512927,158.401381 285.782678,158.354724 288.752947,157.535454 C293.802944,156.141823 294.986631,150.493882 295.833923,145.995954 L295.859499,145.86001 C298.413992,132.270072 300.44746,118.561954 302.829812,104.937636 M181.470085,155.022391 C179.460858,154.889785 176.710904,153.04896 175.186493,153.180952 C175.986748,154.524198 176.347905,156.056224 175.886716,157.692309 C174.603179,162.245106 168.798574,159.889512 166.002594,158.498687 C163.710147,157.357725 161.496561,155.961681 158.958638,155.427268 C156.083491,154.822561 154.135633,155.966286 151.70664,157.284669 C149.711528,158.367309 147.538751,159.144833 145.304299,159.547254 C144.116191,159.761511 142.987612,159.784226 141.86118,159.700733 C141.793367,159.755986 141.716963,159.807248 141.629818,159.852984 L141.033924,160.165774 C143.728338,160.289171 146.472768,161.121027 148.980314,161.882589 C151.578685,162.671347 154.129533,163.622376 156.66679,164.594857 L159.162881,165.554592 C165.319875,167.913204 171.693205,170.152931 178.356519,170.133305 C178.835506,170.132077 179.227961,170.264683 179.536955,170.481088 M170.228568,140.756838 C172.213555,140.514035 174.045732,140.774335 175.631819,142.066934 C177.544697,143.625665 178.829767,146.210863 181.579721,146.380611 C182.38151,146.430031 182.567765,147.557793 181.770886,147.793537 C179.723917,148.399778 178.066642,147.291968 176.672027,145.853564 L175.734363,144.873536 C174.356174,143.445956 173.085093,142.342315 170.746524,142.427609 C168.242047,142.519083 165.733275,143.098005 163.245061,143.392377 C160.426374,143.725733 157.6083,144.009976 154.780715,144.255235 C154.649385,144.266593 154.626985,144.059703 154.75003,144.029314 L157.91705,143.240845 M168.312499,132.638973 L168.639875,132.606196 C171.52231,132.326209 174.1584,132.315345 176.732659,133.866497 L177.226399,134.165184 C179.547356,135.576377 182.073579,137.238939 183.525002,139.523728 C183.7625,139.897909 183.370044,140.33778 182.972679,140.242623 C180.183142,139.572841 178.143844,137.525433 175.798007,135.9931 C173.165268,134.273523 170.445692,134.557152 167.443818,134.824205 C164.537373,135.082971 161.632463,135.438428 158.754554,135.923114 C156.050321,136.378025 153.337496,137.096306 150.605953,137.325297 L150.606567,137.319771 C150.294504,137.319158 150.116533,136.850433 150.434733,136.691429 C153.206779,135.306743 156.417309,134.651388 159.432684,134.018748 M69.6116581,54.2317838 C69.6080687,54.0037142 69.9287227,53.9183799 70.0407215,54.1157538 C71.9161641,57.41647 72.8965369,61.4624795 73.8956274,65.0990075 C74.9419721,68.9083527 75.7867191,72.7563745 76.5455491,76.6326364 C78.0825406,84.481852 78.9015125,92.2859447 78.9571221,100.285877 C78.9647227,101.428066 77.1046225,101.731954 76.9226628,100.561525 C75.7146103,92.7798397 74.5571873,84.9901739 73.3399293,77.2106378 C72.7274648,73.2978479 72.0146616,69.4000989 71.332543,65.4989734 M88.1783866,59.9809482 C88.0403059,59.5257299 88.7024795,59.3734789 88.8718584,59.7897135 C92.6356311,69.0319031 93.9102692,79.5059141 91.4938572,89.2564256 C91.1241078,90.7479332 88.9402851,90.1017872 89.2192081,88.6290041 M136.726757,51.768663 C136.707733,51.42794 137.149898,51.3742224 137.316515,51.6087381 C139.099904,54.1224147 139.83971,57.4888199 142.968618,58.7878649 C144.530771,59.4364666 146.288691,59.3235061 147.668885,60.4190382 C148.59157,61.1517462 149.299157,62.3083629 148.606606,63.418015 C148.383222,63.7765416 147.75787,63.9561119 147.454706,63.5665825 C147.012234,62.9990177 146.778111,62.3194134 146.177,61.89397 C145.329184,61.2938677 144.185876,61.2567258 143.213788,60.9746317 C141.956333,60.6099659 140.848006,59.9718008 139.940355,59.0236085 M166.520948,9.84318213 C166.704749,9.74956003 166.881186,9.80941678 166.998708,9.96842087 C167.166552,10.1949557 167.145994,10.4153513 166.940407,10.5706719 C167.215034,11.1320975 167.53937,12.5385778 167.585704,12.7433186 C167.773494,13.5733322 167.97325,14.3984345 168.182212,15.2229229 C168.603819,16.8857128 168.973261,18.561395 169.395175,20.2247988 C169.842556,21.9879638 170.375547,23.7324045 170.968681,25.4516746 C171.006934,25.562998 171.049006,25.6766405 171.093169,25.7919657 L171.160766,25.9661357 L171.177336,25.9397374 C171.297926,25.7491166 171.548926,25.8823363 171.519162,26.0837005 C171.491546,26.2672613 171.454418,26.4499011 171.42312,26.6334618 L171.485272,26.7979071 C171.873255,27.8425344 172.138961,28.94272 171.427109,29.8644986 C171.160766,30.2092121 170.867728,30.413339 170.502582,30.4741166 C169.91712,32.4048806 169.18253,34.2997306 168.396084,36.1193759 L168.165584,36.6507924 C167.008739,39.3060309 165.774948,41.9263826 163.93301,44.1868383 C161.921941,46.6547783 159.155725,48.3399761 157.403941,51.0442735 C156.588958,52.3021862 156.021907,53.624867 155.561638,55.0454673 L155.388494,55.5846927 C155.061798,56.5894907 154.684877,57.5634041 153.742655,58.1528001 C153.441946,58.3406583 152.991496,58.2808015 152.749088,58.0244918 C150.816879,55.9798465 152.839607,52.1619065 154.004701,50.1823363 C155.624234,47.4295396 157.968231,45.6685232 160.315296,43.5916473 C162.845241,41.3530048 164.458944,38.3583254 166.019869,35.4081548 C166.976001,33.6007879 167.898994,31.7544372 168.870775,29.9390894 C167.855503,29.0414277 167.53051,27.2583369 167.186541,26.0189479 L167.155199,25.9078138 C166.586613,23.9230252 166.134936,21.8866678 165.849569,19.8414086 C165.574924,17.874857 165.460374,15.9365837 165.533036,13.9590278 L165.554004,13.4552728 M170.29586,19.2028752 C170.071555,18.8953035 170.442839,18.5469065 170.750605,18.6110607 C172.621815,18.9981238 174.451262,20.1311883 176.130682,21.047398 L176.31004,21.1446896 C177.65065,21.867882 178.999545,22.7537619 179.70345,24.1587074 C180.46904,25.6856824 180.405969,27.4444323 180.301559,29.1038476 L180.291674,29.2591166 C180.163719,31.2491235 180.14316,33.3167906 179.722168,35.2708834 C179.506762,36.2709516 178.601259,36.5527387 177.827087,36.3163813 C176.905935,39.2260334 174.318303,41.3698261 172.428132,43.6658697 C170.018164,46.5930184 170.471682,50.5450989 170.723603,54.0705082 C170.825476,55.4978615 169.050679,55.9036596 168.136584,55.1420975 L166.030007,53.3917565 C165.679192,53.099601 165.328842,52.8068656 164.979446,52.5130048 C164.680169,52.2610948 164.38362,52.0072749 164.089525,51.7502717 L163.65019,51.3622203 C163.455342,51.1878683 162.595867,50.2273977 162.34456,50.1874932 C161.735859,50.0906992 160.28971,51.6954785 159.79478,52.1988052 L159.732073,52.2616064 C158.800489,53.1754195 157.958811,54.158605 157.174819,55.2013404 C157.030602,55.392882 156.74861,55.2338779 156.85171,55.0125614 C157.554196,53.5072216 158.371029,52.0679796 159.340895,50.7208868 L159.536919,50.4527046 C160.182217,49.5827865 161.048443,48.0467701 162.187455,47.7898465 C163.578253,47.4763596 164.966993,48.8715844 165.9789,49.6459567 L166.042974,49.6945191 C166.524416,50.0558083 167.000334,50.4235437 167.475331,50.7937347 C167.425622,48.1689393 167.757016,45.5168247 169.111741,43.2548533 C170.066952,41.6595941 171.498082,40.4781139 172.722704,39.1072408 C174.086021,37.5807401 174.797904,35.7046146 176.032038,34.1148806 C176.190984,33.9104468 176.410072,33.800249 176.647264,33.7652558 C176.694686,32.4871955 176.882851,31.196451 177.028251,29.9322281 L177.070405,29.553796 C177.217384,28.1801603 177.564734,26.5023295 176.892434,25.2158697 C176.257375,24.0007776 174.80026,23.1430819 173.721247,22.3186494 L172.840215,21.6349961 M109.566563,4.67818895 C109.003194,5.00417804 108.476646,5.40966917 107.998887,5.91645634 C106.495035,7.51232947 105.419847,9.49834584 104.373502,11.4088506 C103.810133,12.4377729 103.267015,13.4780525 102.699043,14.5045191 C102.452032,14.9511426 102.197964,15.3928547 101.941134,15.8339529 C101.822384,16.0371589 101.469512,16.4411153 101.294609,16.690058 C101.488951,16.9624575 101.689884,17.2306755 101.894848,17.4959927 C101.97305,17.5972211 107.367631,23.4758771 109.248057,25.7766201 C112.127499,29.3008015 114.701323,33.0232776 116.901716,37.0075887 C119.056388,40.9093281 120.696787,45.0403649 122.69282,49.017616 C123.69191,51.0088506 124.807602,52.9859652 126.229833,54.7092258 C126.284759,54.7764495 126.342752,54.8399898 126.398905,54.9062926 C126.941697,53.4393897 128.332553,51.8687806 129.015666,50.9669322 L129.079512,50.8817701 C130.628777,48.792616 132.26488,46.7663881 133.936576,44.7745396 C135.463442,42.9557128 137.029099,41.1761767 138.632685,39.4260141 L139.235806,38.7710607 C140.353032,37.563796 141.772195,35.7573499 143.407684,34.8947988 C143.232475,34.5823158 143.02965,34.2732094 142.796447,33.9680935 C141.264058,31.9649642 139.097909,30.5112253 136.960487,29.1994982 L135.574354,28.3560092 C130.349408,25.1707752 125.205858,21.8379184 120.669784,17.6993349 C118.269942,15.5094986 115.903239,13.2156037 113.886034,10.6614086 L113.172635,9.75830313 M118.284671,3.1013472 C115.837881,3.30670191 113.19563,3.25789563 110.934482,4.05537176 C112.94463,5.95636085 114.85536,8.00898704 116.818254,9.94189973 C116.992849,8.63456685 117.350018,7.34319577 117.652568,6.06840041"/>
        <ellipse cx="251" cy="119.867" stroke="#000" stroke-width="3" rx="4.637" ry="4.793"/>
      </g>
      <g transform="translate(68.26)">
        <path fill="#FFF" d="M133.226433,130.375403 C132.002873,128.576497 129.056636,115.521921 127.174687,113.514023 C127.316674,105.8021 129.460996,79.1015366 123.336126,67.0989418 C124.624506,65.8036693 128.048218,54.6471913 127.174687,50.4296393 C130.060116,41.5970571 111.523672,27.5686078 104.469063,23.777787 C71.6820315,6.298394 24.1712239,25.5926764 9.26039512,57.9729806 C0.300069538,77.4735415 0.134932117,99.3067992 -0.878116509,120.28961 C-0.997879722,124.780994 -1.41303828,129.307361 -1.40840826,133.793316 C-0.760513972,137.735227 2.38322622,141.749531 -3.89022148e-13,145.027369 C-2.63263002,146.837735 -7.95340615,151.24798 -5.58437867,153.748956 C-4.19598966,154.898266 -1.97820953,154.231479 -0.471600653,155.336457 C0.295439516,155.763188 0.773875034,156.698076 1.67086446,156.84042 C9.86476721,156.531003 15.6468832,156.5045 23.8660967,156.174274 C27.4642405,156.057262 32.9431862,157.570236 37.0732408,154.558087 C51.4997264,162.535581 45.4653442,150.961682 48.3825662,142.721397 C57.2660334,145.70761 74.9619385,155.230302 84.430949,155.53791 C92.1257355,156.483353 99.321097,152.028159 106.885934,153.042362 C116.283951,156.513511 127.297845,157.285246 135.906289,151.412339 C138.054619,149.873996 140.444739,151.65599 143.152376,149.994905 C148.414858,147.492722 135.882213,133.151116 133.226433,130.375403 Z"/>
        <path fill="#000" d="M122.486468,66.0747354 C122.369792,65.4085026 123.293018,64.9116667 123.650147,65.5867989 C126.244502,70.4910212 127.283788,76.1707249 128.202693,81.5877407 C129.130858,87.061836 129.744181,92.5586402 129.778134,98.1155926 C129.804063,102.390101 129.413597,106.714016 128.680511,110.991593 L128.769716,111.296016 L128.769716,111.296016 C128.934339,111.855148 129.100471,112.413871 129.268386,112.972185 L129.521631,113.809349 C130.011179,115.416778 130.474798,117.031571 130.977619,118.635011 C132.027399,121.981519 133.132739,125.33754 134.486557,128.576026 C135.807657,131.736259 137.414274,134.783868 139.324003,137.632312 C141.164591,140.378259 144.085517,142.700101 145.382232,145.749857 C145.834122,146.812577 145.165855,148.217466 143.917602,148.047762 C143.836422,148.145042 143.712646,148.215624 143.544731,148.230354 C142.575513,148.314439 141.667103,148.234344 140.700046,148.144122 C140.160185,148.093794 140.161111,147.360048 140.700046,147.30972 C141.110883,147.27136 141.510917,147.237603 141.910642,147.214587 C139.144976,145.58537 137.17197,142.403963 135.594367,139.799487 C133.567035,136.453286 132.035733,132.797138 130.787479,129.099868 C129.505581,125.303783 128.597788,121.428524 127.868405,117.49373 C127.784756,117.040778 127.70512,116.587519 127.62857,116.133646 C126.706887,120.028852 125.520058,123.852862 124.113458,127.528037 L123.91635,128.039583 C120.673719,136.396883 116.281944,144.83455 108.977301,150.358556 C108.645792,150.608968 108.307183,150.846799 107.965796,151.079413 L108.38135,151.316256 C108.794956,151.551046 109.202398,151.776257 109.600811,151.961074 C111.076862,152.64572 112.679158,153.16772 114.264168,153.537508 C117.537902,154.301942 120.975847,154.082831 124.315636,154.189317 C125.411099,154.224302 126.034299,155.857201 124.914452,156.387487 C121.225559,158.133931 117.241272,157.763222 113.433542,156.534481 C111.549433,155.925942 109.781382,155.074354 108.14575,153.962534 C107.469458,153.503138 106.684206,152.936026 106.021187,152.280534 C98.71594,156.344217 89.6361598,156.799011 81.5052254,155.345635 C77.2798681,154.590101 73.185386,153.210683 69.5829209,150.851095 C66.1178131,148.582037 63.6478512,145.709042 61.8844304,141.986915 C61.7279357,141.657021 62.162849,141.246111 62.4298469,141.56864 C67.9688956,148.257053 77.5011831,151.047804 85.8870774,151.578704 C90.3615298,151.862259 94.9387687,151.626577 99.2406757,150.295646 C103.321576,149.032534 106.823107,146.717444 109.746811,143.638534 C115.672929,137.39755 119.223847,128.907455 121.774063,120.827656 C124.548371,112.037741 125.869471,102.789656 126.142025,93.590672 C126.279999,88.9301111 126.106219,84.2302698 125.370046,79.6212646 C124.639737,75.0503122 123.284375,70.6263545 122.486468,66.0747354 Z M39.4390448,26.4780127 C39.8313619,26.2797693 40.1076199,26.7956317 39.7748757,27.0494201 C32.8678101,32.3157587 26.6821019,38.9934307 21.6755057,46.061145 C12.4423175,59.0964148 6.52082918,74.1807111 3.79405539,89.8548275 C2.18404271,99.1111979 1.76363679,108.507812 1.92445285,117.887547 C1.98816195,121.613541 2.20220474,125.328143 2.44030882,129.043924 L2.7091106,133.162835 C2.83393426,135.081828 2.93818076,136.984491 2.85759383,138.912815 L2.83564101,139.358288 C2.70785243,141.602182 2.92978478,143.864182 2.36368753,146.053145 C2.07323087,147.175706 0.480812262,147.352468 -0.095779704,146.372605 C-0.20875222,146.180806 -0.314316702,145.98287 -0.416794503,145.783092 C-1.76814334,147.974203 -3.51829133,149.933007 -5.4601222,151.682828 C-4.53195729,151.486425 -3.59484101,151.361219 -2.63272262,151.475685 C-1.10759366,151.657357 0.260423256,152.24288 1.22840634,153.269081 C2.18929006,152.838531 3.17733658,152.542087 4.31354376,152.535949 C5.15034292,152.531653 5.77786512,153.515198 5.3003556,154.245875 C4.34780592,155.704161 3.01868118,156.521685 1.50836829,157.329695 C0.438016341,157.902535 -0.839419724,157.412627 -1.23465115,156.280147 L-1.25729767,156.211431 C-1.70208837,154.778923 -4.06772051,155.010309 -5.18386427,155.231875 L-5.51233556,155.298556 C-7.58995893,155.728347 -9.61877632,156.278545 -11.7353442,155.711219 C-13.1005831,155.345113 -13.4574034,153.301917 -12.1412427,152.623716 C-7.98348372,150.481706 -4.49306512,147.604415 -0.906033404,144.715462 C-1.69807569,142.784891 -2.14780507,140.627843 -2.66636744,138.664743 C-3.39636744,135.901611 -3.60965708,132.928574 -3.87325962,130.090256 C-4.37422791,124.693801 -4.56529345,119.238732 -4.5115852,113.821103 C-4.3297797,95.522563 -1.18198266,77.1672508 6.85851205,60.5973566 C10.3810321,53.338764 15.0085839,46.6221185 20.4784909,40.6769651 C25.9159877,34.7667958 32.2668334,30.0997905 39.4390448,26.4780127 Z M33.0017412,116.090713 C32.7884516,115.796724 33.2048448,115.407909 33.4968448,115.59848 C39.8186757,119.726914 44.2057751,125.995824 47.03657,132.88248 C49.8386588,139.700396 51.5591746,148.051475 48.7956693,155.161232 C48.3558173,156.293613 46.2491577,156.714036 46.0333987,155.161232 C45.0700457,148.22701 44.9203416,141.282967 42.8019526,134.541465 C40.7017751,127.858576 37.1082613,121.738808 33.0017412,116.090713 Z M28.0999687,138.602354 C28.1345395,138.47991 28.3357911,138.501085 28.3271484,138.633042 C28.1688017,141.078249 28.0613852,143.553222 27.7520998,145.984926 C27.6017784,147.166714 27.4029962,148.340831 27.2338461,149.519857 C27.0603746,150.728958 27.0866114,151.94972 26.3794529,152.982365 C25.4423366,154.351349 22.9526199,153.966217 23.0362689,152.082291 C23.0939899,150.782661 23.6946579,149.948566 24.2573598,148.807899 C24.6182957,148.076506 24.9328628,147.320563 25.2360891,146.561164 L25.6868017,145.422111 C26.5825564,143.16318 27.4397277,140.942302 28.0999687,138.602354 Z M16.7796288,132.124951 C16.8179036,131.932539 17.129967,131.978877 17.120707,132.170676 C16.9518655,135.63165 16.5592397,139.05365 15.9443729,142.463988 C15.6640252,144.018442 15.3371216,145.564202 14.9913711,147.105587 L14.8421192,147.765925 C14.4723349,149.389311 14.2337345,151.297787 13.4052693,152.748094 C12.5774216,154.19748 10.6118233,153.144888 10.8664744,151.68384 C11.1640304,149.978211 12.2168973,148.262454 12.828986,146.624338 C13.3938486,145.112041 13.8877175,143.573047 14.3491763,142.026687 C15.3205548,138.771629 16.1172271,135.455502 16.7796288,132.124951 Z M37.8605103,141.733311 L37.9341027,141.658249 C38.2217814,141.347381 38.65083,141.554524 38.7881873,141.882577 C39.3505805,143.227011 39.0690753,144.812344 39.0289484,146.239635 L39.0214921,146.550889 C38.9915653,147.996741 39.0124038,149.350972 38.3529653,150.685688 C37.5522803,152.306312 35.442534,151.299751 35.2792486,149.858037 C35.1008385,148.284672 35.8493586,146.74445 36.3327328,145.27082 C36.6398575,144.334228 36.8636419,143.360196 37.3306567,142.510143 C36.9312402,142.578577 36.532441,142.715751 36.1672867,142.814873 C36.0036926,142.858757 35.941959,142.620005 36.098145,142.564767 C36.7019152,142.352239 37.3834073,142.192609 37.8605103,141.733311 L37.8605103,141.733311 Z M122.021584,146.504348 C121.828666,146.28984 122.069118,146.004137 122.319448,146.120137 C125.325875,147.516126 128.137841,148.424179 131.455097,148.721544 C132.892564,148.850433 132.901516,151.095554 131.455097,150.965438 C127.993076,150.655491 124.364683,149.1122 122.021584,146.504348 Z M16.2486579,99.3391778 C18.8954867,93.4198021 27.2690342,88.1688074 32.8840152,93.6735905 C32.989271,93.7763947 32.8821632,94.0007228 32.7293725,93.9378127 C29.2367932,92.4988603 24.961123,94.3290825 22.5439433,96.9467545 C20.6261886,99.0230931 19.4739307,101.689252 19.2452076,104.499337 C19.0164846,107.311876 19.6927763,110.247474 21.5716389,112.422934 C22.5572161,113.564215 23.8881928,114.644426 25.4543746,114.781601 C27.0356812,114.920003 28.3536939,113.812786 29.8485734,113.512046 C30.9755205,113.285569 31.8262097,113.988628 31.9367129,115.093083 C32.180252,117.530617 29.7393049,119.166585 27.6233852,119.563993 C25.3472668,119.991167 23.0242309,119.524405 21.0629539,118.29812 C14.7284677,114.337548 13.3619941,105.79559 16.2486579,99.3391778 Z M75.6812452,41.3200593 C76.8322685,40.226345 78.7901501,41.3136148 78.3654228,42.8737841 C77.46226,46.1942074 75.5426533,49.0006095 73.4159302,51.6643132 C71.3697696,54.227054 69.1776089,56.6897524 66.8280275,58.9818265 C64.4938795,61.2588635 61.9578626,63.3658899 59.2925137,65.2479746 L58.4897784,65.8132714 C56.600769,67.1371558 54.5999487,68.4759892 52.4854567,69.4294984 C51.9749197,73.8025143 50.9760698,78.1172233 49.4648309,82.2481122 C48.0094609,86.2258688 46.1574524,90.0701333 43.9134355,93.6676677 L43.5912256,94.1829034 C41.5291444,97.4684821 39.049552,101.140431 35.5503827,102.94153 C35.4454355,102.995848 35.3401797,103.02899 35.2364672,103.048324 C36.0192495,103.567255 36.6807252,104.219985 37.0739683,105.157805 C37.5048689,106.18462 36.6041755,107.153435 35.7408309,107.492535 C33.9150592,108.20971 32.1340444,106.995699 30.4928562,105.700673 C30.4234059,105.855953 30.3579683,106.012768 30.3017907,106.170811 C29.9347844,107.20499 29.8267505,108.261879 28.8803742,108.948059 C28.4306448,109.274271 27.8765856,108.98243 27.593537,108.612948 C26.6656808,107.400779 27.6262558,105.749467 28.4420655,104.758863 C28.5550381,104.621996 28.6717146,104.491879 28.7917865,104.36698 C28.4470042,104.115033 28.110556,103.891625 27.7846025,103.72008 C25.8680825,102.711065 23.0271015,102.532154 21.9236131,104.765922 C21.8390381,104.937467 21.5732746,104.848779 21.5732746,104.671403 C21.5760529,101.927604 24.4031438,100.437403 26.8564376,100.234863 C28.6488913,100.086984 30.3825592,100.711937 31.9959374,101.43966 L32.2970211,101.577149 C32.8973805,101.85426 33.5159514,102.115721 34.1079767,102.408176 C34.0116723,102.155615 34.0132156,101.858557 34.1647717,101.563953 C36.0201755,97.961509 39.2062474,95.0320487 41.5039725,91.6956677 C43.7825603,88.3856783 45.7388985,84.843382 47.3004503,81.1445778 C48.8160106,77.5544085 50.0034567,73.8516148 50.8337738,70.0748635 C50.5602939,70.1310222 50.2519345,69.8888952 50.2713805,69.6050328 C50.3176808,68.9182392 50.6556723,68.2995725 51.249241,68.035964 C51.903,64.4835407 52.2366702,60.8709693 52.2172241,57.2292444 C52.2156808,56.9469164 52.6271353,56.9570434 52.6512114,57.2292444 C52.9401247,60.4671175 52.9635835,63.7365989 52.7206617,66.987054 C54.2646195,65.5748 55.8928436,64.2322074 57.379389,62.7825143 C59.6163066,60.6012233 61.7803784,58.3616254 63.8679006,56.0388635 C65.9977104,53.6691492 68.0108436,51.2122815 69.85174,48.6127153 L70.8151352,47.2494356 C72.29636,45.1594956 73.8179153,43.0914156 75.6812452,41.3200593 Z M72.776833,17.9893291 C85.4803763,17.2009587 99.0475729,18.7531492 110.458414,24.6817312 C116.725302,27.9374032 121.56923,32.8581968 125.030326,38.9819534 C127.096858,42.6387153 128.664584,46.6879746 129.258461,50.8510857 C129.868389,55.1286624 129.152279,58.9428529 126.405133,62.3430646 C125.313992,63.6933291 123.476182,62.1850222 123.745032,60.8034561 C125.389615,52.3508 122.722106,43.9994138 117.99115,37.0016677 C111.126063,26.8470646 99.1370867,22.3362603 87.464186,20.3240593 C81.7291332,19.3359111 75.9122833,18.9228529 70.0938901,19.1238582 C65.6580211,19.2772974 61.1076364,19.6882074 56.8980211,21.171964 C56.720537,21.2345672 56.649852,20.9596042 56.8208541,20.8948529 C61.8422664,18.988218 67.4476786,18.3201439 72.776833,17.9893291 Z M91.617315,37.1026 C92.2713827,36.6904624 93.0714503,37.1133407 93.2961607,37.7820286 C94.0888203,40.1394677 92.4275687,43.2539757 91.3163636,45.2941026 C90.0588499,47.6027481 88.4417378,49.7613302 86.7718436,51.7888751 C83.431129,55.8439651 79.0403256,59.2276053 74.2220169,61.354272 C73.9269302,61.4846952 73.583074,61.1305577 73.8537759,60.880145 C77.5818689,57.4286847 80.962093,53.728346 83.8882664,49.5772032 C85.3260423,47.5373831 86.5252178,45.3855524 87.6703763,43.1751079 C88.6951543,41.1969704 89.6588161,38.3368646 91.617315,37.1026 Z M112.982609,39.8796952 C113.400546,38.4287746 115.780994,38.6758116 115.682529,40.2430392 C115.427878,44.2916847 113.506728,48.3556741 111.419205,51.7868804 C109.269641,55.3199704 106.547497,58.4685418 103.427172,61.1877905 C103.273455,61.3218963 103.062943,61.1153672 103.202153,60.9640762 C105.894356,58.0340021 108.068922,54.6963937 109.679244,51.064182 C111.287713,47.4371873 111.894863,43.652764 112.982609,39.8796952 Z M101.151547,39.2241725 C101.606833,37.9625958 103.786029,38.0561937 103.652376,39.560818 C103.285061,43.6969238 100.843496,48.0315799 98.5821941,51.4477492 C96.1826085,55.0722889 93.1196951,58.2653577 89.6965662,60.9471672 C89.5684689,61.0475164 89.3872808,60.8811884 89.5122913,60.7639608 C92.586934,57.8839079 95.0803548,54.5570402 97.0542871,50.8462677 C98.0617797,48.9528286 98.9069129,46.9811354 99.5742533,44.9443841 C100.191589,43.0601513 100.481429,41.0814 101.151547,39.2241725 Z"/>
      </g>
      <path fill="#000" d="M52.6737565,73.7689362 C50.4051424,74.4243177 47.970054,74.4829167 45.6575869,73.8060771 C43.5601415,73.1921112 41.4065348,71.8410113 39.8628614,70.0531794 C38.4915463,68.4649671 37.6034222,66.5348963 37.6383049,64.4746845 C37.6422729,64.2393913 37.7266222,64.0429931 37.8563774,63.8905495 C37.9960641,63.7264376 38.1911649,63.6137461 38.4001685,63.5648336 C38.615114,63.5145305 38.8423448,63.5323642 39.0358351,63.6200289 C39.2109964,63.6993894 39.3610672,63.8341851 39.4549065,64.031199 C39.6921415,64.3420403 39.9284551,64.6482782 40.1656963,64.9460224 C42.0731801,67.2953301 43.9204292,69.0510184 46.7887231,69.6807345 C48.3449747,70.0224689 49.899269,69.8709316 51.3253893,69.349544 C52.8519826,68.7914237 54.2319756,67.810116 55.3133743,66.5543607 C55.8020774,65.9868493 56.3790471,65.7552111 56.9432242,65.7513178 C57.58256,65.7469058 58.2144869,66.0432219 58.6905541,66.5168242 C59.1585094,66.9823566 59.4718429,67.6149705 59.5002415,68.2767322 C59.5251659,68.8575355 59.3352077,69.4642261 58.8298478,70.0054883 C57.1652652,71.7884376 55.0079536,73.0946083 52.6737565,73.7689362 Z M52.6037129,44.3448597 C54.9292239,45.7547714 58.4725886,49.0424102 55.9708739,52.5377529 C53.0261165,55.619712 48.7863308,52.0860354 46.6970378,50.4878911 C44.7597474,49.2493203 42.5830932,52.4348316 44.3805122,53.8810719 C59.4777871,65.0297793 65.604581,44.713532 53.7799239,42.6871493 C52.4779867,42.4638507 51.9944439,43.9086882 52.6037129,44.3448597 Z M30.8497275,38.140982 C30.1022929,37.6642092 29.2230688,37.5005565 28.2486332,37.9427393 C27.4871507,38.2881304 26.1515962,39.4395636 25.2221389,40.9531926 C24.5862657,41.9887175 24.1353591,43.2035238 24.2292317,44.4688917 C24.2510326,44.762759 24.1421663,44.9794363 23.9704504,45.1396455 C23.8348331,45.2661752 23.6389382,45.3591627 23.4088476,45.3882313 C23.2135018,45.4129104 22.9948487,45.3906467 22.817061,45.3352999 C22.4788621,45.2300157 22.299871,45.0112004 22.2324306,44.8325579 C21.5816498,43.1087074 21.8620131,41.1849962 22.5913742,39.4494708 C23.5756912,37.1072744 25.3632379,35.1453931 26.5343844,34.512858 C28.5384607,33.4300775 30.9027078,33.3802431 32.9096528,34.4833246 C34.6180642,35.4221732 35.6862954,36.9379087 36.748727,38.4829556 C36.9745757,38.8113974 37.1987329,39.137431 37.4304043,39.4577296 C37.8946973,40.0995385 37.9409112,40.7360763 37.7611084,41.2819118 C37.5619194,41.8865989 37.0540292,42.3969147 36.4189229,42.66398 C35.8319137,42.9108203 35.1506136,42.9455674 34.5477424,42.691944 C34.03846,42.4776926 33.5710772,42.0600349 33.2753397,41.3513759 C32.7772589,40.1579075 31.9474087,38.8411697 30.8497275,38.140982 L30.8497275,38.140982 Z M68.8104808,40.7962225 C68.2985887,41.0622599 67.8981139,41.1424717 67.330274,40.9727793 C67.0162597,40.8787023 66.7059075,40.6983989 66.4629285,40.4560442 C66.222123,40.2158574 66.048382,39.9171661 65.9808488,39.5858097 C65.8147524,38.7680305 65.3661615,38.0025362 64.7269006,37.5035089 C64.1805127,37.0769812 63.4908477,36.8509115 62.725879,36.9784512 C61.9004192,37.1158942 61.1139684,37.6439385 60.5723127,38.2664908 C60.3912755,38.4748081 60.2493676,38.7113976 60.1067017,38.94639 C59.8398224,39.3858521 59.580426,39.7943428 59.21236,40.1170779 C59.0728384,40.2398688 58.8626005,40.3249145 58.6589763,40.3249145 C58.5762181,40.3249145 58.4922303,40.3114827 58.4121977,40.2866037 C57.5906,39.464103 57.4326001,38.840152 57.4590884,38.2212754 C57.4868653,37.5722919 57.7433876,36.9152025 58.1579293,36.3021188 C59.1303423,34.8639751 60.9766287,33.6848312 62.2225173,33.4177496 C63.9287531,33.0520264 65.6232493,33.4910528 66.9818181,34.4415768 C68.3797057,35.4196102 69.415537,36.9380994 69.7384785,38.6493617 C69.8161674,39.0615048 69.7831541,39.5063666 69.6257896,39.892081 C69.4720208,40.2689823 69.2040535,40.591791 68.8104808,40.7962225 Z M34.6127645,22.8079808 C33.5888169,23.8030478 32.3768853,23.9571804 31.1508177,24.0942712 C30.469584,24.1711594 29.9257559,24.233142 29.3906053,24.3535832 C27.9196895,24.684761 26.465739,25.1835505 25.1392473,25.9019032 C23.7526137,26.6528564 22.2414983,27.5585041 21.1543638,28.7187086 C20.8958555,28.9947956 20.6521704,29.2844904 20.4081448,29.5748194 C20.1856275,29.8395633 19.971274,30.0944336 19.7453665,30.3401801 C19.4859274,30.6224516 19.2395618,30.9182914 18.9945058,31.2133583 C18.8429749,31.4623348 18.8130418,31.5235705 18.7825268,31.587317 C18.7366072,31.6831051 18.6831927,31.7903033 18.6221859,31.9053055 C18.538635,32.0628047 18.44077,32.2352141 18.3382744,32.3915288 C18.1677448,32.6772447 18.0762419,32.7559451 17.9971735,32.7911469 C17.8659722,32.8494292 17.7415462,32.87814 17.6208328,32.8625924 C17.5076473,32.8480144 17.4010141,32.7937923 17.2957124,32.7050293 C16.7700101,32.2620072 16.6149674,31.5349519 16.6308584,30.7631809 C16.6549729,29.5920262 17.0880521,28.2953445 17.4872855,27.4982422 C18.4155827,25.6461164 19.7030055,23.7207123 21.251055,22.33838 C23.0175194,20.7604728 24.9500902,19.5659162 27.1698465,18.7427852 C28.549295,18.2310754 30.146454,17.761376 31.6493103,17.8207056 C32.7310652,17.8634111 33.7637544,18.1841454 34.6165925,18.9851023 C35.1402849,19.4767871 35.3916713,20.1761582 35.3916713,20.875034 C35.3916713,21.5878309 35.1305782,22.3048369 34.6127645,22.8079808 Z M70.8929602,31.9200761 C70.8278429,32.0265266 70.7377139,32.0998853 70.6374271,32.1439439 C70.5322963,32.1901307 70.4149303,32.2034337 70.3023008,32.1845047 C70.1901699,32.1656595 70.0835825,32.1149605 69.9990335,32.0374791 C69.9179948,31.9632146 69.8562854,31.8647229 69.8286928,31.7440624 C69.1488719,28.7659148 67.8288292,26.5501286 65.0113617,25.1212579 C63.6254075,24.4183476 62.0316915,23.9717453 60.5229816,23.6156727 C60.0845583,23.5121891 59.621298,23.445139 59.1547663,23.3771953 C57.6926224,23.1642548 56.2199285,22.9203876 55.2667348,21.7415511 C54.6923882,21.0314625 54.4513426,20.1233356 54.5876289,19.2928147 C54.7159498,18.5108339 55.1740775,17.7938128 56.006878,17.3641251 C58.080204,16.2948907 60.6567161,17.3440895 62.7504411,18.2378628 C62.9057523,18.3041623 63.0582116,18.3692459 63.2073855,18.4320442 C65.2548855,19.294087 67.1223138,20.4319641 68.657374,22.0592571 C69.8753719,23.3502462 71.0038639,25.258738 71.4583615,27.2220481 C71.8364871,28.8554513 71.7475774,30.5229315 70.8929602,31.9200761 Z" transform="translate(118.26 56)"/>
      <path fill="#000" d="M113.972786,29.7440659 C110.256153,33.6530152 104.051663,34.7747543 99.1068673,32.6783486 C86.4101327,27.2787326 92.6247245,10.4370659 102.416663,5.91427609 C103.639929,5.60392826 105.273704,4.86763116 106.763602,4.70061667 C106.898296,4.63331232 107.191561,4.8280587 107.546969,4.64390652 C118.344214,5.87096449 120.80299,22.9313703 113.972786,29.7440659 M73.0203367,30.7445949 C68.8518673,36.3722978 61.1020714,38.1085007 54.7702347,35.4923558 C42.2614592,30.4781819 46.6980918,15.5437833 55.2563571,9.68892826 C73.3350306,2.7743413 80.8004388,20.3681964 73.0203367,30.7445949 M45.9040102,18.2752181 C45.8923776,18.2696094 45.8807449,18.2668051 45.8688061,18.2611964 C45.9349286,18.2315949 46.001051,18.2019935 46.0668673,18.1717688 C46.0454388,18.2287906 46.0221735,18.2851891 46.0013571,18.3422109 C45.9689082,18.3194645 45.9404388,18.292979 45.9040102,18.2752181 M122.5785,12.1919645 C121.557888,12.1941457 120.083602,12.3648993 119.238704,13.0856167 C117.155235,5.93359493 109.464827,-0.685600725 102.776663,4.14099348 C97.5098265,5.8650442 93.6015612,9.68861667 91.3803367,14.7719645 C87.3753367,12.3471384 81.0777857,13.3825659 77.6048265,16.5891819 C75.3303367,8.93923261 69.7325816,6.26045725 63.0698265,5.8650442 C55.7975816,4.65263116 48.5492143,11.841421 46.2875816,17.6084065 C44.4070714,17.3906022 41.5971735,16.7814355 39.8280918,17.9626891 C28.3463571,14.8978486 8.27237755,13.2080732 5.93819388,14.9109355 C4.27472449,15.5606094 3.36186735,19.5571167 5.68533673,19.7727399 C7.71003061,19.4801529 5.4490102,16.8443775 7.48992857,16.5567761 C18.3643163,15.8706457 28.920949,18.0997906 39.6802347,19.0351964 C40.6408469,20.3504355 43.7446224,20.7904065 45.4004388,20.2619428 C42.7925816,30.0447543 48.4221735,36.7004065 56.8573776,38.6939862 C69.9187041,41.747921 81.2822755,29.8549935 77.8668673,17.4847036 C81.8235,15.4811529 86.3746224,15.5671529 90.6848265,16.6225225 C83.4823776,43.6034645 126.173296,42.392921 119.505643,14.0101167 C123.942888,16.2567109 124.906561,12.6453341 122.5785,12.1919645" transform="translate(83.26 73)"/>
    </g>
  </g>
</svg>
