<?xml version="1.0" encoding="UTF-8"?>
<svg width="388px" height="493px" viewBox="0 0 388 493" version="1.1" xmlns="http://www.w3.org/2000/svg" xmlns:xlink="http://www.w3.org/1999/xlink">
    <!-- Generator: Sketch 60.1 (88133) - https://sketch.com -->
    <title>Group 2@2x</title>
    <desc>Created with Sketch.</desc>
    <g id="Introduction" stroke="none" stroke-width="1" fill="none" fill-rule="evenodd">
        <g id="Group-2" transform="translate(4.000000, -50.000000)">
            <path d="M362.713997,174 L362.714325,403.849232 L-2.00000557,403.848999 L-1.99936564,174 L362.713997,174 Z" id="Combined-Shape" stroke="#000000" stroke-width="4" fill="#FFFFFF" fill-rule="nonzero"></path>
            <circle id="ball-copy" stroke="#22252B" stroke-width="3.5" fill="#FFFFFF" cx="156" cy="323" r="79"></circle>
            <g id="a-person/sitting" transform="translate(29.000000, 0.000000)">
                <g id="pose/sitting/crossed_legs" transform="translate(-17.360656, 136.318000)">
                    <path d="M367.837537,159.382289 C366.164119,158.902315 364.073422,158.778932 362.242647,158.691253 C355.771765,158.31116 349.173639,161.391221 342.828869,162.779395 C340.051461,163.464782 337.110583,164.271971 334.13846,164.873295 C331.499844,165.23079 328.772021,165.499024 326.029481,165.669636 C323.812672,165.735847 321.233149,165.566365 320.47625,167.89302 C316.020444,168.755572 312.076104,169.114197 307.828597,168.381129 C308.226404,167.030015 308.453044,165.617661 308.041651,164.162372 C308.249272,163.817532 308.531836,163.351116 308.682853,163.036783 L308.172292,163.036783 C300.716966,160.057507 292.655081,158.022814 285.160586,154.935974 C275.378641,151.416388 260.971985,144.616075 249.669451,139.972482 C250.435632,135.783328 250.719554,131.527059 250.394651,127.389201 L250.848836,127.022667 C250.998042,126.209604 251.229889,125.236548 251.650111,124.499639 C252.183314,123.087285 252.195766,121.159479 252.407462,119.56318 C252.848968,116.440861 253.143757,111.739644 252.340218,108.032498 C251.989278,103.005197 248.594668,99.1296986 244.934477,96.0209386 C240.440406,91.5838882 235.940675,87.2548546 231.553472,82.646514 C207.272268,57.9348437 205.35206,26.8104098 167.341175,17.3510296 L167.322609,17.2041448 C167.023065,16.8706034 166.900576,16.6059848 166.559371,17.1331882 C165.304364,16.6529879 163.739398,16.6932118 162.688389,15.8815038 C160.82252,14.1823858 159.498684,12.220909 158.633107,9.89312414 C157.966321,5.49290793 158.438165,-1.28887558 154.576693,-4.10431794 C150.287752,-6.66915226 127.499742,-8.4952691 125.534478,-2.88765997 C124.315244,-1.74444439 123.760532,-0.292092828 123.379479,1.48611698 C122.109755,3.88372862 121.308706,6.54234323 120.0297,8.97678906 C117.31048,14.4370615 115.547855,13.2269568 110.746995,14.4747995 C110.225793,13.3153137 108.643845,13.5489734 107.490951,13.717326 C93.5294229,15.6760911 76.5074712,21.0215674 70.5297166,34.1223344 L71.0384665,34.0574791 C60.7201493,53.4110183 67.4117839,78.0234849 69.2572758,98.5328944 C70.7500164,116.763556 69.0428628,135.080993 64.9859956,152.085957 C60.0064957,170.125894 59.7207626,190.304926 69.6005179,206.634221 C70.6046593,208.503273 71.8272892,211.144714 73.9906649,209.972121 C75.1761631,210.866988 76.507924,211.485034 78.3473028,212.023311 C78.8544678,212.390522 79.3795194,213.007439 79.9104578,213.270927 C79.9353632,213.306632 80.7900721,212.814681 80.8349018,212.801574 C82.4503582,215.103145 171.137441,222.793355 180.340901,223.987189 C188.449428,224.963182 199.163515,227.455478 205.771377,221.616469 C211.232004,220.058812 216.945988,216.003888 221.309871,211.977663 C223.957997,250.31753 225.422435,328.83739 227.785281,329.38448 C228.819309,329.734291 230.215145,330.153478 231.385473,330.488375 C231.392492,333.242804 231.597849,336.37258 231.380945,339.080457 C231.018231,342.13905 230.098995,345.750156 229.683074,348.965125 C227.895544,348.84581 227.369813,350.63577 227.16174,351.85175 C225.618735,361.896184 225.664471,369.994281 225.775187,381.034594 C243.91992,391.704304 265.18553,397.572012 285.602317,404.467688 C287.557846,405.934728 291.795391,404.347921 294.053407,403.951332 C301.892729,402.410397 310.800493,397.852449 308.821644,389.495383 C307.372828,383.203065 301.289565,379.582468 296.168783,375.880519 C290.566421,371.828533 284.660439,367.779711 279.508186,362.95511 C275.374792,359.067635 272.287878,356.051977 268.84074,351.665094 C267.311774,349.624977 265.681374,346.273066 263.624639,344.769192 C265.797524,342.195997 261.407151,344.607845 259.745053,344.756537 C258.767176,340.161755 257.556546,335.75024 256.104786,331.342567 L257.516018,331.406292 C262.149332,327.086524 264.746742,306.348426 265.06938,300.196213 C267.391924,260.089436 267.336679,213.863212 258.019787,180.086491 C265.096776,184.437218 272.857306,188.071148 279.895353,192.373968 C284.333273,194.969535 288.836173,198.57341 293.810919,199.831873 C294.134916,200.761089 295.321093,201.1222 295.968408,200.212418 C296.85889,200.322017 298.006124,199.953223 298.104161,199.548047 C299.014794,197.688937 300.334328,195.685429 300.175613,193.665198 C300.175386,193.665198 298.953662,190.835519 298.953662,190.835519 C301.690995,191.946646 304.667193,194.284148 307.589278,194.498374 C313.491411,214.17393 325.120206,203.151921 336.310213,195.494479 C343.063432,190.783545 350.450608,185.581337 357.55771,180.558556 C363.587539,175.769886 375.359654,171.225948 369.588841,161.740807" id="ðŸŽ¨-Background" fill="#FFFFFF"></path>
                    <path d="M114.176326,13.2729783 C119.876395,11.8899286 120.850356,-1.753932 124.292257,0.189025688 C126.281816,1.91665152 123.027285,5.17600316 122.451372,7.12596535 L122.198699,7.62124647 C121.030957,9.89240285 119.710374,12.1559847 117.408907,13.465489 C115.929637,15.0204878 111.507891,13.493733 112.158028,15.9703883 C114.428416,23.434473 126.477559,28.6028896 133.578828,30.9270276 C144.616446,35.0666866 162.472242,33.6660128 165.065548,19.789422 C159.011332,18.6827111 154.535277,7.77535021 158.266605,3.23417522 C158.393782,7.64542804 159.600823,12.1979006 163.068748,15.1865622 L163.26011,15.3619701 C163.870316,15.9179573 164.660552,16.5817857 165.448208,16.4582178 C166.216243,15.3901446 167.707281,15.9977284 168.146288,17.1250009 C202.616894,23.0747581 210.296113,60.1965702 232.004304,82.0467665 C236.340511,86.6051138 240.873592,90.9695946 245.34829,95.3894336 C249.918257,99.0098559 253.152195,104.057162 253.377582,109.983421 C253.786039,113.279602 253.583734,116.578721 253.146764,119.8801 L253.116436,120.178365 C252.913944,122.224329 252.793696,124.421984 251.81843,126.238378 C251.650069,126.85387 251.718183,127.631821 251.184813,128.066326 C251.417894,131.832939 251.196127,135.667337 250.557984,139.422653 L252.221153,140.163777 C270.522307,148.302318 289.034731,155.973427 308.117615,162.074299 C309.748501,161.778529 309.615442,163.672003 308.825909,164.532653 C309.034098,165.544916 309.056727,166.59785 308.812331,167.598816 C312.306732,168.100202 315.856122,167.683322 319.305491,167.047494 C320.396671,164.648114 323.295924,164.776228 325.537573,164.708895 C328.322548,164.53446 331.102545,164.263092 333.867381,163.877393 C340.679675,162.357869 347.369319,160.358423 354.115988,158.601424 C358.63074,157.333157 363.499412,157.39326 368.02842,158.560752 C368.797813,159.421628 369.50837,160.341251 370.108043,161.317362 C374.248055,167.726704 370.16869,173.60009 364.389645,176.966768 C355.118009,183.528629 345.843884,190.082128 336.530838,196.583659 L335.854251,197.065551 C324.773966,204.983771 312.308615,215.006911 306.391007,195.734307 C304.402127,195.501351 302.659226,194.168463 300.806121,193.382151 C301.304642,195.694992 299.816093,198.031105 298.789859,200.01383 C298.347911,201.143136 297.139964,201.515731 296.024571,201.505111 C295.069619,202.44055 293.277386,202.072249 292.65282,200.962827 C287.5875,199.515155 283.402683,196.134919 278.919159,193.50891 C272.544288,189.643104 265.856907,186.347375 259.39016,182.644932 C270.13292,227.053683 267.505444,273.311847 264.646697,318.516399 L264.626434,318.924834 C264.272161,325.524356 262.756381,328.646573 257.273878,332.691924 C258.22883,335.600825 259.083309,338.521249 259.734803,341.513526 C259.964942,342.207649 261.023762,341.554423 261.032361,342.507487 C262.980057,342.05242 266.938582,342.539346 265.557522,345.229526 C269.468074,348.50605 272.115691,352.944869 275.543562,356.680526 C281.580806,363.905554 289.472513,369.282976 297.210341,374.581541 C314.998249,383.631128 316.017695,399.313749 295.205847,404.671287 L294.997207,404.72004 C292.131262,405.408682 288.679709,406.982982 285.901399,405.657566 C281.74532,404.858601 277.620696,403.24124 273.554455,402.009126 C257.181551,396.599845 241.167772,390.265518 225.651382,382.98581 C225.08882,382.721672 224.770427,382.117252 224.755719,381.512606 C224.928832,376.51772 223.570401,349.146396 228.757692,348.557115 C229.916081,342.965265 230.09802,337.192654 229.887568,331.485569 C228.204861,330.957068 226.503372,330.447321 224.760471,330.11698 C223.068259,329.584864 220.422001,329.465561 219.288957,328.096747 C218.881631,327.949878 218.582926,327.586096 218.644024,327.012179 C219.560507,318.435057 220.255223,309.835339 220.762117,301.224324 C222.498003,272.34613 221.908739,243.377781 219.931626,214.53122 C215.857465,218.048834 211.214858,221.12878 206.046349,222.767155 C203.193486,225.62115 198.61922,226.233252 194.724961,226.578958 C189.717119,226.888512 184.797531,225.889806 179.855314,225.268439 C171.463179,224.213647 163.129404,225.147395 154.798323,226.181836 L151.951249,226.536479 C131.554646,228.770011 109.51177,229.231856 90.5016581,220.527975 C86.9223977,220.845437 82.4789282,216.983246 80.2461051,214.402427 C79.2601509,215.010237 78.2913948,213.822862 77.5057091,213.198105 C76.2090559,212.80495 74.738158,212.240071 73.5614396,211.415347 C70.5761957,212.390554 68.9659019,208.521133 67.8319527,206.417072 C49.8342717,175.645855 69.8776323,145.015858 68.370075,112.385286 C69.2829369,86.8030474 57.5956344,60.150702 68.8912255,35.6148452 C71.176322,25.2319179 84.5409008,18.0561474 94.600485,15.4172588 C97.8421178,14.8828833 110.114159,10.4528765 111.465575,14.1781403 C112.105076,13.339634 113.196935,13.2768194 114.176326,13.2729783 Z M263.466615,346.42795 C261.780054,346.608756 260.135336,346.712493 258.468452,347.017602 C252.383536,348.014518 246.579299,350.366571 241.350216,353.63463 C239.656871,354.688726 238.145367,356.017194 236.202102,356.604586 C232.208593,358.052386 228.283841,354.457747 228.576506,350.571334 C227.463291,360.337993 227.654179,370.387612 228.232047,380.203767 C243.852124,387.258796 259.822088,393.549244 276.08223,399.014089 C279.743946,400.545963 284.079652,401.036624 287.442368,403.108203 C293.176719,402.747044 298.948839,400.736939 303.76516,397.593862 C311.754213,392.059407 306.450493,383.281302 299.827742,379.419071 C285.248732,372.850409 272.839158,359.557591 263.466615,346.42795 Z M231.524592,331.984334 C231.219584,334.879622 233.422897,339.389495 233.111993,345.159911 C232.872976,346.961822 232.310129,348.849354 232.505606,350.658286 C233.402715,357.368052 240.680042,348.8412 243.68726,347.906834 C247.956235,345.562425 252.595528,343.966415 257.363401,343.093661 C257.334374,341.546124 256.308233,340.928423 256.17353,339.399461 C255.980094,337.146564 255.989846,334.982233 255.888025,332.70759 C249.686729,335.523146 238.102329,333.532323 231.524592,331.984334 Z M264.936998,345.990265 C264.828893,346.062393 264.714769,346.12346 264.597636,346.178305 C265.459467,347.220362 266.206016,348.376718 267.228267,349.272905 L266.793059,348.598259 C266.210886,347.697966 265.615351,346.801419 264.936998,345.990265 Z M72.3371616,105.919853 C72.0247346,107.187688 71.4556549,108.379867 70.603169,109.393864 C75.005488,145.030527 52.3558888,174.739038 73.1801251,207.873005 C73.4433528,207.995408 73.6834546,208.14762 73.9147141,208.338224 C74.0371456,208.256924 74.1595771,208.171107 74.2797413,208.08529 C84.0402519,190.841481 97.9344123,175.9669 109.00494,159.465408 C111.129806,155.32338 114.627719,151.154252 115.966984,146.368596 C93.7195949,137.598092 84.8328824,124.800962 72.3371616,105.919853 Z M365.118379,159.973994 C364.175067,160.310982 363.125434,160.032797 362.118782,160.014704 C358.544828,159.938485 355.052085,160.869613 351.633766,161.810467 C341.691663,164.525371 331.697078,166.928843 321.511116,168.536662 C321.305261,168.749258 321.108455,168.966378 320.929746,169.194807 C321.106193,169.493347 321.133339,169.866522 320.877265,170.237209 C319.340593,173.167876 320.582734,176.756009 319.466368,179.89294 C317.848939,186.243699 313.546575,193.406848 307.126171,195.660825 C309.267739,197.697908 310.801922,200.319857 313.007734,202.285698 C318.428725,205.995509 324.398963,200.466413 328.824613,197.501821 C337.25063,191.558841 345.698817,185.657475 354.170077,179.779857 C357.965268,176.639533 366.360746,172.681391 368.176792,168.52083 C369.34021,165.330976 367.222621,162.223447 365.118379,159.973994 Z M307.049376,168.071172 C303.422526,175.456258 301.328742,183.307864 299.234278,191.236923 C301.412702,191.835092 303.419349,192.772425 305.560786,193.402432 C308.576769,194.079859 312.834908,188.26076 314.347097,185.950733 C315.906032,183.367478 316.997514,180.529058 317.50377,177.555153 C317.931059,174.642668 317.475859,171.617955 318.744791,168.920214 C314.815685,169.321026 310.829849,169.405027 307.049376,168.071172 Z M91.4286218,152.833719 C94.8345375,151.881114 87.0865732,159.573751 86.640309,160.394767 C81.6024682,166.333467 76.9867451,172.605721 72.406325,178.897408 L71.017766,180.807087 C70.8843799,181.000578 69.9648274,182.3574 70.6297573,182.184873 C70.6906218,182.169019 70.7190101,182.248743 70.6706364,182.282036 C66.4346466,183.030124 89.3860262,153.356678 91.4286218,152.833719 Z M174.460618,149.202458 C174.736148,148.374026 173.42851,148.019629 173.152981,148.843546 L172.284762,151.453968 C169.008363,161.317421 165.752066,171.194371 161.835928,180.82734 C161.508454,181.635456 162.81835,181.987596 163.143566,181.188509 C167.402987,170.705572 170.883246,159.933699 174.460618,149.202458 Z M212.546112,145.74922 C211.351815,151.407837 208.333966,156.509659 206.504535,161.918631 C209.940456,161.16248 212.587263,157.965808 214.590119,155.216331 L214.650228,155.124796 C215.595073,153.672764 216.693346,151.404379 218.83912,152.428968 C222.096417,154.318106 219.762993,161.01815 219.70217,164.19385 C219.289073,168.546962 217.871609,172.619083 216.905454,176.847711 C219.38856,175.153418 220.102153,171.812867 221.312278,169.209524 L225.97008,158.053082 L225.97008,158.053082 C229.394244,153.368914 227.804034,167.39616 227.627218,168.720157 C227.348654,171.627945 226.121572,174.553323 226.60318,177.481407 C228.534133,175.406671 229.750588,172.79972 230.772592,170.154431 C232.190508,166.475383 233.484518,162.748976 234.833472,159.045572 C235.299931,157.859139 237.068313,158.275439 236.811908,159.582298 C236.724902,163.785352 236.65584,167.988263 236.58863,172.19126 L236.538318,175.343527 C236.529274,175.941141 236.233074,177.686626 237.267061,177.20425 C242.696793,171.51406 244.088933,160.136388 243.382575,152.492112 C232.708971,152.749425 221.819209,151.367245 212.546112,145.74922 Z M307.527342,166.976959 C307.483498,167.11584 307.433078,167.254721 307.382658,167.393602 C307.413348,167.399915 307.446231,167.406227 307.476922,167.414644 C307.496652,167.267346 307.514189,167.122153 307.527342,166.976959 Z M70.6394384,166.976959 C69.4555049,166.103785 89.3552778,140.593341 88.0660605,147.957557 C82.5143205,154.516011 76.0401584,160.263254 70.6394384,166.976959 Z M246.381908,110.605552 C227.771544,106.240732 211.382949,122.547139 192.693722,120.083576 C192.910143,125.923912 193.210639,131.803814 193.09257,137.646862 C217.911601,139.690787 215.087708,150.237577 243.658407,149.175821 C247.350475,146.706832 248.866779,131.575003 248.554952,127.006921 C248.793582,121.605894 244.138611,119.181446 239.501771,118.234095 C237.826153,119.244075 234.820059,116.230642 237.308104,115.170469 C240.582741,114.186943 243.646623,112.640433 246.381908,110.605552 Z M109.087565,14.8813017 C102.466757,15.5328638 95.9090675,17.3347062 89.8239694,20.1188586 C67.330055,26.6026465 64.0866149,52.8933803 66.7914046,72.8163702 C67.9121413,87.967108 72.2394429,102.78484 81.3374541,115.105143 C105.55885,151.987487 145.676429,146.147359 183.676281,141.268997 C185.046095,140.317391 187.367201,140.99311 188.687246,139.736042 C188.549246,139.688631 188.42482,139.623159 188.318493,139.541883 C188.952838,139.04768 189.443528,138.180737 189.589898,137.259384 L189.863634,137.286476 L189.863634,137.286476 C190.132168,131.566456 189.917477,125.958642 190.004122,120.28355 C177.517885,116.864542 164.126959,115.117109 151.472633,111.711647 C150.034271,112.713373 148.375789,111.56061 146.970683,111.016287 C143.328332,109.469335 139.653597,107.999907 135.951816,106.600902 L135.02581,106.252614 C132.612705,105.349548 130.201387,104.423292 127.810923,103.45799 L126.915513,103.09414 C125.546151,102.534917 122.08802,100.465089 120.594233,101.757377 L120.714781,102.016786 C121.600521,103.946649 124.651937,111.086906 120.900772,109.674782 C117.85483,107.539031 116.275528,92.6463443 113.258542,92.5147225 C112.221058,95.2873607 111.477671,98.1652062 111.307773,101.129069 C111.246691,101.795983 110.368698,102.358367 109.841133,101.735252 C106.262874,97.0300523 111.667929,91.9049272 111.812263,86.9385159 C112.153189,81.1636347 109.594317,75.7603653 108.319519,70.2329242 L108.241111,69.8517167 C107.493657,66.2657664 106.330454,61.9179988 106.639092,58.7019006 L107.381426,61.4936762 C108.126263,64.2871238 108.889106,67.0811111 109.764441,69.8353494 C111.936688,76.7144545 115.858815,83.8017162 113.679328,91.1623812 C118.051649,91.3077748 118.790964,98.1988454 120.433384,101.34603 C123.090666,97.9028656 141.789821,106.158695 146.056719,107.483041 L146.879672,106.550716 C160.24333,91.4201546 169.890468,81.1803189 190.60295,93.1489005 C187.024917,81.6232953 186.67924,69.3815588 186.068875,57.4132255 C186.278137,55.1363704 184.960129,49.1303044 186.818823,47.8874599 C187.141199,47.9344193 187.454978,48.0317247 187.751111,48.1613146 L187.750753,49.3410387 C187.759654,51.6262849 187.866421,55.4157359 188.82615,56.2764912 L189.266479,60.8015242 C190.419877,72.5677145 191.727779,84.3250121 195.246519,95.6637135 C203.693218,100.379072 211.400602,106.283318 218.65123,112.653094 L219.477148,112.352125 C228.436119,109.076872 239.215692,104.878594 248.375412,108.966327 C248.222255,106.658542 247.330235,104.449868 246.085978,102.498117 C244.010782,101.984046 242.652732,99.7988526 241.167767,98.3440133 C236.459496,93.2936169 231.626121,88.3588129 227.026214,83.2065957 C207.398391,62.1218115 199.047839,27.499391 168.224864,19.3212256 C166.187223,36.3589197 144.358647,39.0775998 131.204582,33.2467286 L130.705338,33.0557688 C122.528272,29.9043254 113.287486,25.1479652 110.415753,16.4826635 L110.296411,16.2318269 C110.001125,15.6207177 109.648996,14.997763 109.087565,14.8813017 Z M113.939032,111.837857 C113.962991,111.81151 114.009341,111.846864 113.988965,111.876139 C110.156438,116.678458 107.037975,123.228448 110.846768,128.965065 C111.550756,130.256507 109.905429,131.497283 108.852134,130.512769 C103.565727,124.517864 109.430954,116.392472 113.939032,111.837857 Z M247.27356,112.922819 C245.166084,114.425262 242.906475,115.673204 240.512633,116.657717 C240.520239,116.932979 240.385781,117.22744 240.264299,117.443542 C243.415447,117.693577 246.697025,118.506414 248.90898,120.801155 C249.016367,119.961752 249.121517,119.120116 249.202058,118.27848 C249.405646,116.112998 249.034265,114.175227 247.27356,112.922819 Z M102.359216,91.6938286 L102.383661,91.5781186 C102.400749,91.4468487 102.600415,91.43778 102.59461,91.5781186 C102.521268,93.2948294 101.270433,94.515934 100.210945,95.7383989 C98.6388007,97.5519184 97.0664317,99.3649844 95.493613,101.177824 C92.8640039,104.337143 88.9900806,107.513239 89.8611456,112.090228 C89.8775596,113.715798 87.8372798,114.064264 87.0096106,112.868778 C83.7175964,106.599564 94.0802122,101.265564 97.5732413,97.2209097 C99.2134637,95.4703698 101.798221,94.1822798 102.359216,91.6938286 L102.359216,91.6938286 Z M151.699722,110.51555 C151.748827,110.593553 151.783902,110.678057 151.802609,110.764727 C152.354457,110.823229 152.903966,110.886065 153.453476,110.953235 L151.699722,110.51555 L151.699722,110.51555 Z M69.2732834,95.8530905 C69.3716285,96.5081395 69.4637133,97.1646998 69.5518426,97.8220157 L69.6386968,98.4792026 L69.6522308,98.4218683 C69.6971986,98.2512654 69.7820783,98.1030624 69.8930159,97.9846168 L69.9309412,97.9462472 C69.702481,97.2519613 69.4833292,96.554317 69.2732834,95.8530905 Z M220.563768,89.0723447 C221.884312,88.9317074 215.900994,93.227598 215.570468,93.7592158 C215.088043,94.1780123 214.524323,93.4338808 215.039044,93.0711613 C216.897917,91.7613652 218.730063,90.4170775 220.563768,89.0723447 Z M208.923227,76.4350083 C209.842049,76.0592617 210.466005,77.5871782 209.594552,78.0127849 C206.420151,79.56361 203.063527,80.6605297 200.138663,82.7007463 C200.010382,82.790135 199.849463,82.5817112 199.971172,82.4858094 L200.322625,82.2082817 C203.016639,80.0717505 205.707766,77.7496724 208.923227,76.4350083 Z M70.3693797,57.1179375 C71.2565438,61.2899057 76.0566827,62.6601244 79.7819578,63.7714684 L80.9459212,64.2141399 C84.2355825,65.4713793 87.6435595,66.8856876 90.0102385,69.5423278 C90.9378824,72.5389146 84.3188648,67.3189585 83.3948392,67.0546339 C78.874893,64.2558364 70.7079177,63.7803246 70.3693797,57.1179375 Z M168.360385,18.1639418 C168.38532,18.3760852 168.397787,18.5926948 168.404021,18.8093044 C168.682461,18.8093044 168.958822,18.8115375 169.237262,18.8204698 C168.913108,18.6306573 168.615968,18.4140477 168.360385,18.1639418 Z" id="ðŸ–-Ink" fill="#000000"></path>
                </g>
                <g id="Head" stroke-width="1" transform="translate(73.943534, 38.520000)">
                    <g id="head/Bangs">
                        <path d="M92.5081066,90.9166131 C91.6585061,89.6621554 89.612735,80.5586143 88.3059706,79.1584166 C88.4045619,73.7805472 89.893509,55.1610474 85.6405985,46.7911 C86.5352081,45.8878484 88.9125219,38.1079362 88.3059706,35.1668481 C90.3095188,29.0074926 77.4384144,19.224826 72.5399232,16.5813168 C49.7736737,4.39215248 16.7837125,17.8469205 6.43011749,40.4271581 C0.208358537,54.0257734 0.0936924779,69.2510828 -0.609735573,83.8833375 C-0.692895257,87.0153807 -0.981167874,90.1718191 -0.977952938,93.3000768 C-0.528076192,96.0489479 1.65483485,98.8483021 -2.69118061e-13,101.134086 C-1.82801275,102.396535 -5.52258682,105.471996 -3.8776111,107.216039 C-2.91355889,108.017504 -1.37360443,107.552524 -0.327464171,108.323075 C0.205143601,108.620653 0.53735368,109.272593 1.160194,109.371856 C6.84977384,109.156085 10.8646873,109.137604 16.5718421,108.907322 C19.0702763,108.825724 22.8746782,109.880789 25.7424539,107.780282 C35.7597368,113.343346 31.5696578,105.272348 33.595282,99.5260277 C39.763673,101.608448 52.0511345,108.249048 58.6261078,108.463557 C63.9691175,109.122857 68.9653428,106.01605 74.2181199,106.723299 C80.7437975,109.143887 88.3914879,109.682053 94.3689117,105.586611 C95.8606421,104.513856 97.5202639,105.75652 99.4003586,104.598171 C103.054455,102.853287 94.352194,92.8522423 92.5081066,90.9166131 Z" id="ðŸŽ¨-Background" fill="#FFFFFF"></path>
                        <path d="M85.050624,46.076875 C84.9696077,45.612281 85.6106659,45.265815 85.8586447,45.736615 C87.6600806,49.156549 88.3817267,53.117261 89.0197843,56.894789 C89.6642719,60.712121 90.0901438,64.545289 90.11372,68.420401 C90.1317236,71.401207 89.8605973,74.416467 89.3515658,77.399413 L89.4135069,77.611701 L89.4135069,77.611701 C89.5278157,78.001609 89.6431724,78.3912317 89.7597674,78.780569 L89.9356125,79.364361 C90.2755384,80.485293 90.5974607,81.611361 90.9466028,82.729511 C91.675536,85.063181 92.4430485,87.403485 93.3830958,89.661827 C94.3004243,91.865599 95.4160072,93.990833 96.7420612,95.977181 C98.0201055,97.892053 100.048302,99.511177 100.948698,101.637909 C101.262476,102.378991 100.798453,103.358683 99.9317066,103.240341 C99.8753381,103.308179 99.7893921,103.357399 99.6727971,103.367671 C98.9998038,103.426307 98.3690333,103.370453 97.6975403,103.307537 C97.3226787,103.272441 97.3233217,102.760767 97.6975403,102.725671 C97.9828123,102.698921 98.2605828,102.675381 98.5381389,102.659331 C96.6177503,101.523205 95.2477588,99.304667 94.1523229,97.488449 C92.7446095,95.154993 91.6813229,92.605397 90.8145761,90.027125 C89.9244674,87.379945 89.2941256,84.677553 88.7876659,81.933645 C88.7295828,81.617781 88.6742859,81.301703 88.6211322,80.985197 C87.9811456,83.701499 87.1570503,86.368153 86.1803526,88.931017 L86.0434875,89.2877407 C83.79191,95.115661 80.7424037,100.999624 75.6702974,104.851761 C75.440108,105.026385 75.2049889,105.192235 74.967941,105.354447 L75.2564882,105.519608 C75.5436825,105.683338 75.8265969,105.840387 76.1032421,105.969269 C77.1281638,106.446703 78.2407461,106.810717 79.3413259,107.068587 C81.6145002,107.601661 84.0016975,107.448865 86.3207382,107.523123 C87.0813921,107.547519 87.5141225,108.686213 86.7365366,109.056005 C84.1750897,110.273879 81.4085299,110.015367 78.7645664,109.158511 C77.4563016,108.734149 76.2286247,108.140299 75.0928948,107.364977 C74.6232998,107.044619 74.0780466,106.649147 73.6176678,106.192043 C68.5451413,109.025831 62.240437,109.342979 56.5945803,108.329475 C53.6606295,107.802607 50.8175542,106.840677 48.3161195,105.195231 C45.9100612,103.612915 44.1949999,101.609447 42.9705378,99.013841 C42.861873,98.783791 43.1638627,98.497245 43.3492573,98.722159 C47.1953927,103.386289 53.8143035,105.332405 59.637196,105.702625 C62.7441104,105.900361 65.9223964,105.736009 68.9095008,104.807891 C71.7431456,103.927067 74.1744947,102.312651 76.2046198,100.165589 C80.3195239,95.813471 82.7851656,89.892947 84.5559525,84.258541 C86.4823423,78.128939 87.3996708,71.679835 87.5889234,65.264971 C87.6847285,62.014953 87.5640612,58.737543 87.0528863,55.523477 C86.5457837,52.335947 85.6046647,49.250923 85.050624,46.076875 Z M27.3851913,18.4643052 C27.6576036,18.3260612 27.8494281,18.6857952 27.6183814,18.8627732 C22.8223395,22.5352272 18.5271846,27.1918672 15.0507669,32.1205012 C8.63954104,41.2105792 4.52785191,51.7295352 2.63446879,62.6597992 C1.51652829,69.1146812 1.22461208,75.6673612 1.33627753,82.2082712 C1.38051506,84.8065736 1.52913942,87.3969323 1.69447116,89.9881128 L1.88111838,92.8604144 C1.96779187,94.1986142 2.04017726,95.525426 1.98422031,96.8701332 L1.96897699,97.1807812 C1.88024475,98.7455492 2.03434736,100.322943 1.64126782,101.849405 C1.43958415,102.632217 0.333860413,102.755481 -0.0665063145,102.072179 C-0.144950759,101.938429 -0.218251305,101.800399 -0.289408561,101.661085 C-1.22774129,103.189045 -2.44298719,104.555007 -3.79133145,105.775235 C-3.1468439,105.638275 -2.4961408,105.550963 -1.82807705,105.630785 C-0.769077049,105.757473 0.180829447,106.165785 0.852965452,106.881401 C1.52017189,106.581159 2.20623928,106.374435 2.99518464,106.370155 C3.57623078,106.367159 4.01196181,107.053029 3.68039472,107.562563 C3.01897517,108.579491 2.09607413,109.149587 1.04736193,109.713049 C0.304144316,110.112516 -0.582865783,109.770881 -0.857301643,108.981152 L-0.873026655,108.933233 C-1.18187486,107.934281 -2.82449296,108.095637 -3.59950692,108.250145 L-3.82758672,108.296645 C-5.27022088,108.596357 -6.67896576,108.980035 -8.14864171,108.584413 C-9.09661925,108.329111 -9.34438367,106.904299 -8.43048446,106.431359 C-5.54347171,104.937639 -3.11983843,102.931175 -0.629120158,100.916579 C-1.17908859,99.5703052 -1.49136606,98.0660992 -1.85143892,96.6971412 C-2.3583272,94.7702852 -2.5064286,92.6970532 -2.68946563,90.7177672 C-3.03732174,86.9545772 -3.16999144,83.1505132 -3.13269818,79.3725572 C-3.00645835,66.6121652 -0.820730358,53.8121832 4.76232793,42.2572532 C7.20825143,37.1955112 10.421473,32.5116932 14.2195987,28.3658712 C17.9952199,24.2444452 22.4050407,20.9899332 27.3851913,18.4643052 Z M22.9153369,80.9552584 C22.7672355,80.7502464 23.0563654,80.4791084 23.2591207,80.6120024 C27.6487947,83.4909444 30.6950539,87.8625364 32.6606659,92.6649104 C34.6063454,97.4193484 35.8010157,103.24293 33.8821274,108.200882 C33.5767084,108.990542 32.1139124,109.283722 31.9640964,108.200882 C31.2951753,103.365338 31.1912257,98.5229464 29.7202852,93.8217944 C28.2619902,89.1615164 25.766771,84.8939284 22.9153369,80.9552584 Z M19.5117053,96.653635 C19.5357101,96.568249 19.6754527,96.583015 19.6694515,96.675035 C19.5595007,98.380187 19.4849141,100.106097 19.2701564,101.801833 C19.1657781,102.625947 19.0277502,103.444711 18.9102979,104.266899 C18.7898449,105.110059 18.8080629,105.961351 18.317035,106.681461 C17.6663319,107.636115 15.9375535,107.367545 15.9956367,106.053799 C16.0357162,105.147509 16.4528006,104.565857 16.8435225,103.770419 C17.0941447,103.260386 17.3125698,102.733232 17.5231204,102.20367 L17.8360805,101.409357 C18.4580635,99.834103 19.0532554,98.285385 19.5117053,96.653635 Z M11.651229,92.1366514 C11.6778058,92.0024734 11.8944925,92.0347874 11.8880627,92.1685374 C11.7708247,94.5820294 11.4981981,96.9683434 11.0712545,99.3465254 C10.8765901,100.430516 10.6495989,101.508444 10.409521,102.58332 L10.3058854,103.043803 C10.0491191,104.175863 9.88344274,105.506729 9.30818349,106.518093 C8.73335288,107.528815 7.36850528,106.794795 7.54532678,105.775941 C7.75194001,104.586529 8.48301651,103.390055 8.90803109,102.247723 C9.30025331,101.193131 9.64317984,100.119921 9.96360182,99.0415754 C10.6380954,96.7716774 11.1912788,94.4591934 11.651229,92.1366514 Z M26.2891083,98.8369914 L26.3402084,98.784647 C26.5399631,98.567865 26.8378806,98.712315 26.933257,98.941081 C27.3237646,99.878615 27.1282965,100.984139 27.1004337,101.979453 L27.0952563,102.196504 C27.0744761,103.204762 27.0889457,104.149128 26.631053,105.079885 C26.0750834,106.210019 24.6101441,105.508099 24.496764,104.502727 C24.3728818,103.405549 24.8926298,102.331483 25.2282692,101.303855 C25.4415266,100.650727 25.5969152,99.971491 25.9211951,99.378711 C25.6438532,99.426433 25.3669401,99.522091 25.1133888,99.591213 C24.9997944,99.621815 24.9569285,99.455323 25.0653791,99.416803 C25.4846175,99.2685973 25.9578234,99.1572804 26.2891083,98.8369914 L26.2891083,98.8369914 Z M84.727823,102.164049 C84.5938673,102.014463 84.7608297,101.815229 84.9346506,101.896121 C87.0222158,102.869607 88.9747538,103.502833 91.2781485,103.710199 C92.276279,103.800079 92.2824945,105.365703 91.2781485,105.274967 C88.8742335,105.058827 86.3547951,103.982621 84.727823,102.164049 Z M11.2825401,69.2736618 C13.120412,65.1458158 18.9347314,61.4840618 22.8335917,65.3227938 C22.906678,65.3944838 22.8323058,65.5509178 22.7262129,65.5070478 C20.3010793,64.5036018 17.3321928,65.7798978 15.6537818,67.6053178 C14.3221552,69.0532418 13.5220647,70.9124738 13.3632469,72.8720718 C13.204429,74.8333818 13.674024,76.8805058 14.9786452,78.3975518 C15.6629979,79.1934178 16.5871849,79.9466978 17.6746907,80.0423558 C18.7726986,80.1388698 19.6878838,79.3667578 20.7258795,79.1570378 C21.508395,78.9991058 22.099086,79.4893798 22.1758158,80.2595658 C22.3449214,81.9593678 20.650007,83.1002018 19.1807812,83.3773318 C17.6003185,83.6752198 15.9872778,83.3497258 14.6254308,82.4945818 C10.2269694,79.7326978 9.27813455,73.7760078 11.2825401,69.2736618 Z M52.5505978,28.8143296 C53.3498309,28.0516336 54.7093203,28.8098356 54.4144035,29.8978116 C53.7872766,32.2132916 52.454364,34.1703216 50.9776366,36.0278416 C49.5568491,37.8149556 48.034684,39.5323056 46.403211,41.1306716 C44.7824545,42.7185516 43.0215267,44.1878756 41.1707951,45.5003376 L40.6134017,45.8945444 C39.301735,46.8177484 37.9124304,47.7513769 36.4441958,48.4163016 C36.0896955,51.4658016 35.3961266,54.4746416 34.3467714,57.3552956 C33.3362098,60.1291636 32.0502353,62.8099416 30.4920628,65.3186636 L30.2683307,65.6779605 C28.8364886,67.9691419 27.1147402,70.5297562 24.6850307,71.7857436 C24.6121588,71.8236216 24.5390726,71.8467336 24.467058,71.8602156 C25.0105965,72.2220896 25.4699038,72.6772676 25.742959,73.3312516 C26.0421624,74.0472956 25.4167502,74.7228936 24.8172717,74.9593636 C23.5495152,75.4594816 22.3128364,74.6128976 21.1732486,73.7098176 C21.1250246,73.8181016 21.0795868,73.9274556 21.0405789,74.0376656 C20.7857417,74.7588456 20.7107265,75.4958616 20.0535935,75.9743656 C19.741316,76.2018476 19.3565953,75.9983336 19.1600556,75.7406776 C18.5157823,74.8953776 19.1827744,73.7438436 19.7492462,73.0530516 C19.8276906,72.9576076 19.908707,72.8668716 19.9920811,72.7797736 C19.7526755,72.6040796 19.5190568,72.4482876 19.2927253,72.3286616 C17.961956,71.6250296 15.9892711,71.5002676 15.2230446,73.0579736 C15.1643185,73.1775996 14.9797809,73.1157536 14.9797809,72.9920616 C14.9817101,71.0786876 16.9447502,70.0395036 18.6482377,69.8982636 C19.8928593,69.7951408 21.096662,70.2309484 22.2169394,70.7384225 L22.4260021,70.8342996 C22.8428722,71.0275416 23.2723877,71.2098696 23.6834709,71.4138116 C23.6166002,71.2376896 23.6176718,71.0305376 23.7229074,70.8250976 C25.0112395,68.3129516 27.2235443,66.2701076 28.81901,63.9434996 C30.4011873,61.6352956 31.759605,59.1650936 32.8438959,56.5857516 C33.8962517,54.0821656 34.7207757,51.5000416 35.2973209,48.8663436 C35.1074253,48.9055056 34.8933106,48.7366596 34.9068133,48.5387096 C34.9389627,48.0597776 35.173653,47.6283536 35.5858078,47.4445276 C36.0397568,44.9672636 36.2714466,42.4480556 36.2579438,39.9085176 C36.2568722,39.7116376 36.5425729,39.7186996 36.5592905,39.9085176 C36.7599026,42.1664316 36.7761916,44.4463876 36.6075146,46.7130756 C37.6795886,45.7282476 38.8101746,44.7919976 39.8423834,43.7810616 C41.3956263,42.2599496 42.8982875,40.6981776 44.3477951,39.0784116 C45.8266658,37.4259036 47.22452,35.7126196 48.5027787,33.8998256 L49.171729,32.9491495 C50.2002434,31.4917406 51.256762,30.0495758 52.5505978,28.8143296 Z M50.5338682,12.5447656 C59.354796,11.9949996 68.7754165,13.0774116 76.6987341,17.2116776 C81.0502574,19.4820036 84.4137237,22.9134936 86.8169957,27.1838636 C88.251929,29.7338876 89.3405064,32.5576176 89.7528755,35.4607416 C90.1763898,38.4436876 89.6791463,41.1034936 87.7716175,43.4746136 C87.0139642,44.4162136 85.7378488,43.3644036 85.9245294,42.4009756 C87.0664748,36.5065596 85.2142429,30.6827636 81.929221,25.8029216 C77.1623279,18.7216616 68.8375719,15.5760756 60.732289,14.1728776 C56.7500546,13.4837976 52.7110231,13.1957536 48.6709199,13.3359236 C45.5907966,13.4429236 42.4311573,13.7294696 39.5081372,14.7641596 C39.384898,14.8078156 39.3358166,14.6160716 39.4545549,14.5709176 C42.9412605,13.2413356 46.8334766,12.7754576 50.5338682,12.5447656 Z M63.6160868,25.8733062 C64.0702502,25.5859042 64.6257911,25.8807962 64.7818227,26.3471022 C65.3322198,27.9910502 64.1787007,30.1629362 63.407116,31.5856082 C62.5339393,33.1955302 61.4110692,34.7008062 60.2515489,36.1147042 C57.9318652,38.9425002 54.883034,41.3020642 51.537357,42.7850842 C51.3324584,42.8760342 51.0936958,42.6290782 51.2816624,42.4544542 C53.8703291,40.0475962 56.2174469,37.4671842 58.2492866,34.5724062 C59.2476315,33.1499482 60.0802999,31.6493802 60.8754608,30.1079382 C61.5870334,28.7284942 62.2561688,26.7340142 63.6160868,25.8733062 Z M78.451453,27.8098992 C78.7416546,26.7981072 80.3945605,26.9703772 80.3261895,28.0632752 C80.149368,30.8865772 78.8153838,33.7205792 77.3658762,36.1133132 C75.8732885,38.5770952 73.9831203,40.7727352 71.8164676,42.6689892 C71.7097317,42.7625072 71.5635593,42.6184852 71.6602217,42.5129832 C73.5295999,40.4697112 75.0395483,38.1422472 76.1577032,35.6093432 C77.274572,33.0800772 77.6961573,30.4410292 78.451453,27.8098992 Z M70.2363478,27.3527738 C70.5524832,26.4730198 72.0656466,26.5382898 71.9728421,27.5875318 C71.7177905,30.4718238 70.0224474,33.4945738 68.4522726,35.8768218 C66.7860783,38.4043758 64.6592908,40.6310458 62.2823812,42.5011918 C62.1934347,42.5711698 62.0676235,42.4551818 62.1544268,42.3734338 C64.2893588,40.3650438 66.0207091,38.0450698 67.3913436,35.4573818 C68.0909137,34.1370018 68.6777468,32.7620518 69.1411262,31.3417338 C69.5697844,30.0277738 69.7710394,28.6479018 70.2363478,27.3527738 Z" id="ðŸ–-Ink" fill="#000000"></path>
                    </g>
                    <g id="face/Cute" transform="translate(34.078324, 39.804000)" fill="#000000">
                        <path d="M38.0505923,43.9421394 C38.7859554,42.6465834 40.9802565,42.8571594 41.3156815,44.3682134 C41.9961764,47.4314094 38.3377933,50.2600614 35.559231,50.3306814 C32.7980294,50.4006594 29.6999026,48.0541494 30.0996263,45.0902494 C30.198432,44.3570854 31.1792019,44.4461094 31.5135553,44.9057814 L31.6433645,45.0821247 C32.5514912,46.3002488 33.7497561,47.5610605 35.4351345,47.2640614 C36.133633,47.1412254 36.7680471,46.7055214 37.1902753,46.1446274 C37.6995213,45.4677454 37.6435814,44.6594674 38.0505923,43.9421394 Z M20.4930324,21.531931 C20.867251,21.428997 21.2448988,21.468801 21.5764659,21.609613 C22.3167586,21.745075 22.935098,22.361395 23.1524277,23.065027 C23.169574,23.1259457 23.1887207,23.1861034 23.2098044,23.2456271 L23.2428746,23.334453 L23.1541423,23.108897 C23.1950792,23.331029 23.3761872,23.564503 23.4413433,23.787491 C23.5215024,24.061625 23.5410063,24.372995 23.5140009,24.674735 C23.7493342,24.677089 23.9846675,24.685007 24.2195722,24.705337 L24.4465691,24.7256481 C25.7160351,24.8434471 27.1097311,25.0595232 27.8623093,26.154759 C28.2849662,26.770223 27.8882431,27.878315 27.1117288,27.996871 C25.9164155,28.179413 24.8867786,27.519009 23.6955376,27.386757 C22.5694526,27.261567 21.3910713,27.333257 20.2795607,27.536343 C17.9847649,27.9552352 15.8760383,28.8839472 13.6397417,29.4666918 L13.3352984,29.543877 L13.3352984,29.543877 L13.335727,29.542379 C12.9525066,29.634827 12.5174186,29.102823 12.8965667,28.791667 C14.6881435,27.322129 16.9818934,26.131219 19.2415649,25.405973 C18.9123554,24.883171 18.8105491,24.194519 19.0355947,23.633197 C19.0704446,23.5168666 19.1137047,23.4037719 19.1593105,23.2910007 L19.2544247,23.059035 L19.2544247,23.059035 C19.2636408,22.949681 19.2846451,22.841611 19.3150798,22.735681 L19.3200094,22.703367 L19.3200094,22.703367 L19.3227956,22.705293 L19.3227956,22.705293 C19.491044,22.159379 19.9304186,21.686867 20.4930324,21.531931 Z M43.3501575,21.6164182 C43.8401589,21.1269608 44.5286838,21.199292 45.0400156,21.5845041 L45.1078703,21.6376042 L45.1078703,21.6376042 C45.5898964,21.8513902 45.9887628,22.3185522 46.250673,22.7514742 C46.5226566,23.2010882 46.703336,23.6590482 46.7104089,24.1540302 C47.896506,24.1578822 49.0326645,24.5131222 49.9034835,25.4692742 C50.1846833,25.7778622 50.3767222,26.2537982 50.2219766,26.6721682 L50.1298151,26.9210502 L50.1298151,26.9210502 C49.8373965,27.7112218 48.5227592,28.1660846 48.0759376,27.236846 L48.0553239,27.1915462 C47.5805849,26.0881622 45.7581447,26.2039362 44.7895916,26.3167142 C44.114455,26.3956802 43.4476772,26.5632422 42.7956882,26.7509202 C42.565981,26.8170462 42.3383233,26.8888298 42.1109067,26.9621181 L41.8835036,27.0357542 C41.7621933,27.0749162 41.1303512,27.4175302 41.5234307,27.3364242 C41.629095,27.3145962 41.7086111,27.4682482 41.6008035,27.5198222 C41.1322801,27.7434522 40.6324647,27.2981182 40.6637568,26.7956462 C40.7179477,25.9234207 42.1051692,25.4451878 42.7726695,25.1444263 L42.8126202,25.1262322 C43.0685291,25.0081042 43.3366548,24.8948982 43.6133536,24.7898242 C43.4577507,24.5587042 43.3291532,24.3019042 43.222203,24.0262722 C43.1210397,23.7660482 43.053526,23.5131002 43.0164471,23.2363982 C42.9800112,23.1011502 42.9800112,22.9659022 43.0164471,22.8304402 L43.0220197,22.7917062 L43.0220197,22.7917062 C43.0031587,22.7022542 42.9941569,22.6098062 42.9954429,22.5167162 L42.9915849,22.4805502 L42.9954429,22.4805502 C43.0085169,22.1546282 43.138186,21.8280642 43.3501575,21.6164182 Z M35.5211019,30.9050454 C37.4035542,31.4858414 40.5091826,33.0679434 39.5281984,35.5098974 C38.1584213,37.7526174 34.5257576,36.1043894 32.7654729,35.3797854 C31.1839386,34.8567694 30.3604862,37.0697434 31.8897242,37.7367814 C44.5263526,42.7283314 44.4798432,29.5547054 35.9793375,29.7481614 C35.0433624,29.7693474 35.0139993,30.7120174 35.5211019,30.9050454 Z M18.8023833,13.7278626 L19.123491,13.6343038 C20.7920429,13.1517338 22.4953162,12.3184178 23.9767588,13.6186818 C24.5584479,14.1292858 24.6782579,15.1902978 24.2620308,15.8271618 C23.3138389,17.2782958 21.9076258,17.0565918 20.3762445,17.1802838 C19.2102943,17.2744438 18.0617047,17.6164158 16.9733417,18.0437738 C16.083876,18.3932358 15.2589233,18.8852218 14.4800514,19.4339178 C13.7148966,19.9734118 13.192148,20.8167858 12.4072749,21.3023518 C12.1196452,21.4803998 11.7874352,21.2972158 11.6841285,21.0085298 C11.3180545,19.9845398 11.9366082,18.7088858 12.4599998,17.8364078 C13.0989148,16.7719718 14.0693969,15.9014198 15.1129652,15.2427278 C16.2557019,14.5213173 17.5193355,14.1047847 18.8023833,13.7278626 L18.8023833,13.7278626 Z M43.1153814,12.6260421 C45.9357378,12.6251868 48.6495727,14.1914528 50.2270347,16.4874588 C50.7630718,17.2674888 50.3702066,18.4230888 49.6007651,18.8722748 C48.7375653,19.3764336 47.8146235,19.0134029 47.2457705,18.2909549 L47.2120675,18.2471808 C46.3073845,17.0442868 45.1412199,16.0969088 43.7587973,15.4801608 C43.0843037,15.1790628 42.3384385,14.9348888 41.6088623,14.8109828 L41.373078,14.7706412 C41.0426134,14.7153505 40.6592559,14.6625524 40.3603954,14.7142548 C40.2002916,14.7352268 40.0532618,14.7880848 39.9178058,14.8685488 C39.9829619,15.0106448 39.8147135,15.1818448 39.659325,15.0966728 C38.9584689,14.7123288 39.0444148,14.0266728 39.6233177,13.4938128 C40.4422691,12.7398908 42.0576674,12.6262568 43.1153814,12.6260421 Z" id="ðŸ–-Ink"></path>
                    </g>
                    <g id="facial-hair/*-None" transform="translate(26.362477, 72.332000)"></g>
                    <g id="accessories/Glasses-2" transform="translate(10.073467, 51.574000)" fill="#000000">
                        <path d="M79.7970967,20.4279478 C77.1949273,23.1125778 72.8509055,23.8829778 69.3888478,22.4431858 C60.4993347,18.7347798 64.8504294,7.1680798 71.7061738,4.0618698 C72.5626328,3.8487258 73.7065072,3.3430438 74.7496468,3.2283398 C74.8439516,3.1821158 75.0492789,3.3158658 75.2981149,3.1893918 C82.857716,4.0321238 84.5792072,15.7490518 79.7970967,20.4279478 M51.1245806,21.1151018 C48.2060615,24.9801558 42.7801064,26.1725638 38.3469237,24.3758198 C29.5890087,20.9321318 32.6952801,10.6753258 38.6872783,6.6542658 C51.3449109,1.9053918 56.5717543,13.9886878 51.1245806,21.1151018 M32.1393104,12.5512498 C32.1311659,12.5473978 32.1230214,12.5454718 32.1146626,12.5416198 C32.1609577,12.5212898 32.2072528,12.5009598 32.2533335,12.4802018 C32.2383305,12.5193638 32.2220415,12.5580978 32.2074671,12.5972598 C32.1847482,12.5816378 32.1648156,12.5634478 32.1393104,12.5512498 M85.8223159,8.3733278 C85.1077427,8.3748258 84.0755339,8.4920978 83.4839856,8.9870798 C82.0252619,4.0751378 76.6408866,-0.4708642 71.9582248,2.8439958 C68.270693,4.0280578 65.5343536,6.6540518 63.9791817,10.1452478 C61.1751143,8.4798998 56.7659364,9.1910218 54.334373,11.3932958 C52.7419079,6.1393818 48.8226863,4.2996238 44.1578138,4.0280578 C39.0662121,3.1953838 33.9913281,8.1325778 32.4078648,12.0932898 C31.0912412,11.9437038 29.1239146,11.5253338 27.8853068,12.3366078 C19.8464659,10.2317038 5.79183625,9.0711818 4.15757699,10.2406918 C2.99291275,10.6868818 2.35378342,13.4316458 3.98054117,13.5797338 C5.39811372,13.3787878 3.81507911,11.5685618 5.24401111,11.3710398 C12.8576231,10.8998118 20.2487616,12.4307678 27.7817859,13.0731958 C28.4543505,13.9764898 30.6274331,14.2786578 31.7867391,13.9157138 C29.9608696,20.6344578 33.9023815,25.2054978 39.8082194,26.5746698 C48.9529984,28.6720838 56.9091083,20.5041318 54.5178387,12.0083318 C57.2880421,10.6323118 60.4744726,10.6913758 63.492226,11.4161938 C58.4494914,29.9464538 88.3391823,29.1150638 83.6708806,9.6220178 C86.7775806,11.1649578 87.4522886,8.6846978 85.8223159,8.3733278" id="ðŸ–-Ink"></path>
                    </g>
                </g>
            </g>
        </g>
    </g>
</svg>