<?xml version="1.0" encoding="UTF-8"?>
<svg width="369px" height="348px" viewBox="0 0 369 348" version="1.1" xmlns="http://www.w3.org/2000/svg" xmlns:xlink="http://www.w3.org/1999/xlink">
    <!-- Generator: Sketch 60.1 (88133) - https://sketch.com -->
    <title>Group 3</title>
    <desc>Created with Sketch.</desc>
    <g id="Introduction" stroke="none" stroke-width="1" fill="none" fill-rule="evenodd">
        <g id="Group-3" transform="translate(-2.000000, -74.000000)">
            <path d="M368.713997,187 L368.714325,416.849232 L3.99999443,416.848999 L4.00063436,187 L368.713997,187 Z" id="Combined-Shape" stroke="#000000" stroke-width="4" fill="#FFFFFF" fill-rule="nonzero"></path>
            <g id="a-person/bust" transform="translate(0.000000, 0.000000)">
                <g id="body/Coffee" transform="translate(46.196303, 200.911937)" fill-rule="evenodd">
                    <path d="M123.883651,0.997611089 C131.641173,-4.9124698 151.116843,-7.57022975 159.396352,-1.87961135 C167.57404,3.83490267 168.465546,13.0760542 172.27627,21.5772389 C175.871725,19.8809636 181.809236,22.3103117 182.851638,25.6481538 C184.144506,27.2224356 184.202572,31.6454412 185.094129,33.7617765 C223.887081,39.9397399 229.776576,70.1987252 234.44586,104.551208 C240.622965,139.410215 254.645586,174.193134 248.558045,210.063618 C249.351238,211.211865 249.976617,212.328043 250.554856,213.653622 C251.940431,216.012372 250.155745,219.351157 247.361026,219.221932 C243.743573,218.904057 240.161945,218.470163 236.527522,218.33465 C226.45241,217.984581 216.368097,218.02632 206.28916,218.154434 L204.914795,218.172411 C154.119917,218.805016 103.327868,220.051676 52.5307901,220.382292 C50.6879662,220.384957 49.7857241,218.731443 50.0317901,217.100252 C50.527379,213.816175 50.9871423,210.530526 51.4670181,207.244877 C39.4522083,210.419851 26.6794019,211.218783 14.6985322,207.578787 C13.8603993,206.724518 16.6513474,207.187653 17.0941405,207.057799 C6.06799437,199.519671 9.36081655,183.639453 10.3375384,172.201622 C16.410938,133.009331 18.5519952,89.6456802 42.0175173,56.2021747 C52.1690762,42.5539973 67.0521423,31.7481421 84.1538879,29.3167618 L84.6283415,29.2517685 C89.6288757,28.5846883 95.2019259,28.3698031 99.5740252,25.6481538 C104.491327,21.7206846 106.586777,14.4637611 111.759986,14.3958267 C113.468205,14.3733944 115.792004,16.5354845 118.292641,18.0034389 C118.479319,14.7741838 120.218742,12.0489832 120.602786,9.54517249 L120.633874,9.33105079 C121.034616,6.41195345 120.485786,3.78569575 123.883651,0.997611089 Z M207.253295,105.586652 C196.351366,98.0093773 168.189545,101.816659 167.544853,102.240956 C166.125338,103.175087 165.514062,103.2577 164.746324,104.470717 C163.988327,104.571331 163.230959,104.675717 162.47422,104.783247 C160.956027,105.279396 162.08108,107.147657 163.834654,106.481094 C162.779917,111.032048 165.883908,114.268548 167.119619,118.767657 C167.520846,120.228486 167.134101,122.855809 167.119619,124.348423 C167.239455,126.251552 169.342551,128.49954 168.992037,130.408868 C167.745898,137.19686 160.983627,143.81843 163.834654,150.401321 C165.72336,154.119292 171.403934,156.015162 175.180717,157.279115 C183.005491,160.283676 196.639437,157.165985 201.185845,150.401321 C203.610831,146.79315 206.42029,137.691531 207.866203,134.868388 L208.186683,130.389975 C208.977029,119.257499 209.680049,107.273342 207.253295,105.586652 Z" id="ðŸŽ¨-Background" fill="#FFFFFF"></path>
                    <path d="M109.860559,13.7393581 C110.613213,13.0724814 111.726953,13.9104005 111.248648,14.8112029 C110.173877,16.8357286 109.071451,18.7539817 107.628995,20.5436386 C106.754408,21.6286888 105.817597,22.6549432 104.868216,23.6698787 C107.304678,25.778668 109.394196,28.3968115 111.367438,30.8505153 C113.890637,33.9887032 116.276188,37.2598891 119.108619,40.1314521 C121.902008,42.9634588 124.990707,44.9431286 128.72532,46.2632419 L129.479596,46.5253561 C133.231303,47.843099 137.241098,49.6226649 139.355799,53.1765793 C139.772822,53.8774129 138.933118,54.7433151 138.227289,54.3059622 C134.55264,52.029589 130.235014,51.5717991 126.235106,50.0676321 C122.371272,48.6147149 119.003027,46.3785871 116.02698,43.5246314 C113.05596,40.675392 110.56136,37.4337613 107.959283,34.2606732 C105.386117,31.1231142 102.615596,28.4433451 99.5719825,25.7887293 C94.875193,28.9499909 89.5139223,30.3255447 84.0624248,31.6765753 L83.4673857,31.8239478 C78.0093082,33.1759374 72.580457,34.7461318 67.4598953,37.1004801 C62.9452281,39.1759413 58.5047263,41.654484 54.8272492,45.0319426 C50.9235045,48.616287 47.8852334,53.1941866 45.1043416,57.6711585 C38.883868,67.6872003 34.510618,78.6603249 30.6606119,89.7667619 C26.6563038,101.319041 23.3069147,113.102731 20.6030168,125.026335 C19.2278126,131.091423 18.1109305,137.199586 17.1929754,143.35051 C16.7511251,146.312939 16.3586136,149.281657 16.0138698,152.256977 C15.6458707,155.434153 15.5613346,158.702823 14.5871268,161.757691 C14.1694746,163.06692 13.1833249,163.610231 12.1962325,163.564012 L11.9957418,166.072665 C11.7298824,169.41741 11.4820439,172.7632 11.3983249,176.128711 C11.2594491,181.72469 11.3224176,187.30456 11.7247438,192.888682 L11.7817228,193.650181 C12.0978689,197.725644 12.8043267,202.304801 15.8674244,205.288925 C19.0395705,208.379636 23.9178372,209.351496 28.1933522,209.407148 C38.1513267,209.537002 47.7369024,204.829563 56.5487686,200.699706 C65.6239851,196.446599 74.4512501,191.72564 83.0670177,186.605687 C87.4547237,183.998234 91.7949763,181.304001 96.0799191,178.531165 C98.1826365,177.170057 100.270584,175.785997 102.342818,174.379614 C103.52978,173.57408 104.654519,172.690885 105.86285,171.976217 C105.270784,171.424731 105.00649,170.557571 105.502394,169.800457 C102.009387,166.766969 100.555618,161.353666 100.385603,156.973534 C100.248271,153.437924 100.768372,149.912376 101.178797,146.410094 C101.385894,144.644018 101.641703,142.881087 101.907253,141.122871 C102.012216,140.428326 102.092352,139.685361 102.214914,138.952142 C92.7830115,144.137808 83.0868161,148.755953 73.1338698,152.85877 C68.0321638,154.9619 62.8650916,156.852798 57.6266823,158.585546 L56.5649386,158.935056 C51.6015335,160.560551 46.5193732,162.096045 41.3882105,163.025417 C41.113861,163.075095 40.8910503,162.669812 41.1839411,162.540587 C46.1844552,160.333071 51.3581268,158.471098 56.4337492,156.438083 L57.2677967,156.0982 L57.2677967,156.0982 C57.1719473,156.092855 57.0726409,156.079649 56.9689349,156.05481 C53.9922589,155.336055 51.0388381,154.228367 48.1193575,153.295808 C45.4098029,152.43022 42.3655608,151.886595 39.8329349,150.579881 C39.6380934,150.479268 39.7471418,150.208241 39.9369552,150.19535 C42.7835274,149.997897 45.8736515,150.827956 48.6645996,151.316244 L49.7130659,151.49999 C51.4694624,151.809842 53.2648504,152.142949 55.0126629,152.577367 C55.0758293,151.99161 55.4029746,151.403337 55.8683945,151.058423 C60.9898989,147.263734 60.4697976,139.599525 61.0175538,133.947894 L61.4237321,129.752002 C62.1381793,122.408739 62.8940036,115.066461 64.0423117,107.778093 C64.1035925,107.388845 64.7054015,107.500463 64.7079156,107.868016 C64.7671416,116.902644 64.0854612,125.895702 63.7437819,134.916231 L63.6908738,136.396019 C63.5019787,141.962063 63.3539349,147.741749 59.8500758,152.024624 C60.340008,151.73819 61.0024693,151.73819 61.3993804,152.210444 C61.8871128,152.79117 62.1686902,153.443269 62.1598909,154.083106 C65.3260661,152.755012 68.4784138,151.392333 71.6153628,150.001984 C81.700927,145.531615 91.5749939,140.528939 101.18791,135.11595 C102.222456,134.533337 103.205777,134.991127 103.717394,135.759246 L103.791233,135.748649 C103.803571,135.746984 103.816071,135.745726 103.828956,135.745412 L103.902179,135.742267 C103.905007,135.742267 103.907835,135.742582 103.91035,135.742582 C105.263556,134.998673 107.107008,135.528464 108.268201,136.613515 C108.302455,136.646214 108.331681,136.681429 108.362165,136.716014 C109.832276,136.05574 111.204966,135.164371 112.450695,134.034673 C114.999976,131.723085 117.159261,128.864728 119.041681,125.99851 C122.50829,120.719462 125.452911,114.848998 130.135708,110.503452 C133.94046,106.972873 138.657512,104.774789 143.606173,103.394817 C143.585431,103.250185 143.640741,103.096121 143.740676,102.993622 C143.994913,102.732971 144.176241,102.642733 144.504644,102.800885 C144.530727,102.813776 144.54644,102.831383 144.557125,102.850248 L145.040023,102.024757 C145.303608,101.576839 145.574267,101.125653 145.668036,101.00714 C146.229934,100.299389 146.808174,99.5969837 147.395212,98.9093555 C148.390475,97.7450724 149.524642,96.5961957 150.837937,95.788775 C153.713421,94.0214416 156.736293,95.0215995 159.692542,95.987486 C161.478799,96.5713568 163.259085,97.1740926 165.0422,97.7667671 L165.226137,97.8268617 C166.555729,98.2542633 168.111583,98.6281067 168.706164,100.037481 C168.941545,100.595255 168.977999,101.174095 168.868322,101.735643 C181.496569,98.5226236 195.522646,99.998806 207.845746,103.770544 C208.318708,103.915175 208.791041,104.304423 208.890662,104.815663 C210.302635,112.060127 210.93147,119.489466 210.292578,126.857495 C209.741365,133.217506 208.33285,139.450177 205.678605,145.272851 L205.527701,145.601606 C203.033247,150.997775 199.07973,157.649774 193.041873,159.341088 C189.396137,160.362312 185.363859,159.760205 181.645528,159.573127 C178.031846,159.39108 174.338027,159.364669 170.7586,158.796205 C167.57074,158.289995 164.777593,156.860344 162.807493,154.26704 C161.107972,152.029654 160.212958,149.325675 159.479788,146.635845 C159.144158,146.742746 158.810727,146.85625 158.482639,146.984847 C157.097693,147.525957 155.924244,148.399405 154.8633,149.427232 C152.622937,151.597961 150.885076,154.234341 148.541006,156.305714 C146.419119,158.180892 144.001198,159.639155 141.407606,160.760363 C136.033343,163.083634 130.268,164.012072 124.583231,165.243357 L124.186755,165.329773 C119.907155,166.269249 115.538933,167.422841 111.761521,169.652052 C111.68767,170.308239 111.388808,170.925752 110.909875,171.330091 C111.576107,171.956094 111.858313,172.947448 111.272846,173.877491 C109.637474,176.474087 106.820559,177.951502 104.291692,179.612033 L104.127189,179.720601 C101.639503,181.370658 99.1301321,182.988014 96.6003346,184.572357 C91.4574605,187.793866 86.2071092,190.838043 80.8825925,193.748279 C72.3186779,198.428993 63.5709209,202.844339 54.6647765,206.849372 C55.1993337,209.480564 55.0040084,212.19369 55.4057947,214.842448 L55.467398,215.220389 C55.6390366,216.203317 55.4071877,217.025827 54.7304063,217.66804 L54.6588055,217.733832 L54.6600626,217.725028 L54.596582,217.783195 L54.5753639,217.800975 L54.5824402,217.795457 C54.504425,217.866908 54.4239351,217.933407 54.3418983,217.990444 L54.2373821,218.05768 L54.2373821,218.05768 C53.5855359,218.454008 52.746311,218.449444 52.0789012,218.099579 L52.0026753,218.05768 L51.874457,217.984107 C50.9926418,217.476639 50.3845476,216.219289 50.7503469,215.220389 C51.6494464,212.765427 51.9891621,210.145397 52.8194385,207.674086 L52.1607483,207.968694 L52.1607483,207.968694 L51.2925838,208.347273 C41.9031285,212.409448 31.4733431,215.83023 21.2428513,213.060978 C16.7225274,211.836956 12.4976084,209.248053 10.2358751,205.028274 C8.01028178,200.876094 7.69570695,196.054836 7.57754498,191.436063 C7.43172808,185.735383 7.73718935,179.94761 8.48858636,174.295979 C8.99297456,170.502234 9.60295431,166.636801 10.5438504,162.882357 C10.0598892,162.455066 9.70414621,161.842269 9.61018231,161.083268 C9.16613213,157.497352 9.9432985,153.769319 10.419089,150.201953 C10.8838804,146.718851 11.3973821,143.242665 11.9781357,139.77717 C13.1506418,132.778581 14.5129614,125.794768 16.0990344,118.878241 C18.9217228,106.568534 22.6491673,94.4776595 27.1368082,82.6757339 L27.5298034,81.6477113 C31.6766202,70.8604875 36.47801,60.3031895 43.1637827,50.8266327 C46.3620124,46.2927515 49.7428276,42.1820744 54.2618945,38.9149759 C58.4956128,35.85382 63.2711163,33.6497626 68.1993504,31.9651207 C73.132927,30.2792211 78.2038355,29.1495238 83.3643082,28.4468037 C88.6052316,27.7330789 94.1371603,27.2954116 99.0261119,25.144805 C98.4076471,24.0355447 98.9384332,22.5379804 99.9792642,21.8500378 C103.482012,19.5346771 106.721096,16.5225701 109.860559,13.7393581 Z M221.990519,114.422115 C222.137279,114.199194 222.485794,114.340053 222.421371,114.603848 C220.717764,121.586717 219.118492,128.583734 218.074204,135.699916 C216.189088,148.543721 216.535848,161.55525 216.689956,174.494051 L216.697743,175.163233 C216.776937,182.132582 216.886928,189.10256 217.117281,196.069079 C217.233557,199.589912 217.463596,203.14533 217.33852,206.668049 C217.270326,208.57907 216.761224,210.386649 216.580838,212.274718 C216.422765,213.925717 216.563554,215.602184 216.642433,217.255385 C216.695229,218.354584 215.073644,218.307736 214.963339,217.255385 L214.822299,215.894228 C214.639068,214.171648 214.412597,212.459595 213.848342,210.810796 C213.169854,208.827773 212.84428,206.88028 212.608899,204.798216 C212.248363,201.607736 212.088028,198.385292 211.948879,195.17237 L211.853731,192.950071 C211.27267,179.523169 211.293036,166.033276 212.233733,152.620437 L212.302495,151.662511 C213.233963,138.983993 214.850205,125.285194 221.990519,114.422115 Z M185.676171,34.5142813 C185.231178,34.3312911 185.387052,33.658126 185.879812,33.7754033 L186.775942,33.9892684 C193.342283,35.5628301 199.789449,37.2677194 205.918323,40.1957816 C212.051118,43.1255115 217.243331,47.499355 221.368943,52.8777581 C229.388873,63.3324104 232.721606,76.0379682 235.352596,88.7315781 C238.276476,102.836602 240.938577,116.993191 243.887913,131.093813 L244.435598,133.720363 C247.16464,146.853403 249.741251,159.993887 251.639778,173.28249 L251.776156,174.246281 C253.69069,187.911281 254.842277,202.04946 252.753203,215.750054 C252.33995,218.460636 247.831568,217.785585 248.007869,215.107702 C248.516971,207.365832 248.881513,199.664523 248.529227,191.90536 C248.176626,184.144626 247.449113,176.417848 246.3646,168.725028 C245.45194,162.251104 244.091444,155.857769 242.887464,149.435305 L242.698751,148.420974 C241.690603,142.958433 240.65128,137.501325 239.614251,132.043855 L238.064518,123.87283 C235.741811,111.637941 233.373665,99.3923302 230.697768,87.2343282 L230.538969,86.5189125 C227.920291,74.8219593 224.059611,62.5693538 216.2047,53.2808397 C208.23348,43.8543282 196.822365,39.1069584 185.676171,34.5142813 Z M156.711718,158.582182 C156.903417,158.15489 157.574049,158.201738 157.780204,158.582182 C158.587969,160.07329 158.677737,161.976606 158.830437,163.659921 L158.84649,163.833246 C159.040703,165.887327 159.212604,167.948325 159.317881,170.009009 C159.517436,173.920032 159.612972,177.826024 159.600715,181.742077 C159.588145,185.755285 159.50738,189.763777 159.291169,193.771011 L159.232494,194.844763 C159.035113,198.327125 158.704065,202.211383 157.050177,205.255691 C156.448996,206.362751 154.813899,206.03733 154.465698,204.918008 C153.324932,201.253173 153.910714,196.907942 154.20329,193.154441 L154.430481,190.22561 C154.655452,187.296455 154.869994,184.366195 155.040166,181.433635 C155.273347,177.42137 155.465675,173.405647 155.650774,169.391495 C155.710903,168.087716 155.77592,166.783518 155.844615,165.479739 L155.950265,163.52449 C156.040457,161.888897 156.032915,160.094209 156.711718,158.582182 Z M28.4469664,163.776183 L28.9519647,163.288123 C30.5022116,161.770285 32.4612516,159.432615 34.7530072,159.577592 C35.6668769,159.635444 36.2492018,160.394445 36.0597026,161.29399 C35.654935,163.216959 33.6942634,164.214916 32.2829192,165.388946 C30.7367572,166.674594 29.279531,168.048907 27.8251331,169.436426 C26.5348491,170.666701 25.2939776,171.932005 24.0828752,173.236754 L23.6300688,173.727892 C23.1959445,174.201857 20.1045286,176.999437 20.4387797,177.725275 L20.4569799,177.757764 C20.5500011,177.896736 20.3950706,178.087901 20.2407687,178.039167 C18.9057898,177.61722 18.9890688,176.472431 19.4937713,175.31255 C20.4635794,173.083968 22.1618435,171.022341 23.6448391,169.11918 C25.1238279,167.220597 26.7246233,165.452725 28.4469664,163.776183 L28.4469664,163.776183 Z M161.549194,107.887824 C160.516848,105.446697 156.713981,105.497947 154.555011,105.643836 C149.118303,106.011388 143.235974,107.387588 138.398561,109.929957 C133.383388,112.565713 130.005182,116.788951 126.982436,121.458891 L126.841,121.678117 C123.894807,126.260104 121.057349,131.684098 116.444004,134.834548 C114.094277,136.439643 111.350468,137.905136 108.499497,138.539943 C108.303712,138.884228 107.986623,139.156827 107.570857,139.255868 L107.377583,139.300118 C106.565595,139.479489 105.304119,139.677984 104.214554,139.55928 C104.221782,140.09253 104.216125,140.621692 104.229638,141.126959 C104.267978,142.574845 104.28432,144.02902 104.28432,145.47785 C104.284948,148.513538 104.121847,151.5552 104.248494,154.590574 C104.360685,157.275374 104.739683,160.080595 106.028151,162.480534 C106.973133,164.241264 108.220433,165.406491 109.726056,166.518895 C113.429931,164.260444 117.618081,162.88393 121.868769,161.848871 C127.009444,160.597181 132.272994,159.761777 137.296763,158.064558 C139.714684,157.247391 142.039269,156.178061 144.145444,154.725773 C146.380779,153.183562 148.088157,151.097096 149.844873,149.05622 L150.119458,148.739138 C151.912272,146.681984 153.868497,144.713535 156.402234,143.59827 C158.584145,142.637414 161.459944,142.466372 163.36782,140.979812 C164.365283,140.201947 164.448876,139.073192 164.553839,137.917399 C163.331994,138.092214 162.038497,137.812069 160.820738,137.669324 L160.189801,137.595231 C159.038283,137.458349 157.913247,137.307891 156.779661,137.01471 C156.569107,136.960316 156.569107,136.642755 156.779661,136.588361 C158.119354,136.242189 159.447105,136.094728 160.820738,135.933747 L161.143375,135.893491 C162.386051,135.730439 163.692225,135.484346 164.911153,135.757988 C165.129879,134.925414 165.44571,134.13057 165.888818,133.334468 C166.51074,132.21609 167.687645,130.94805 167.846661,129.64165 C167.894115,129.25146 167.803293,128.791469 167.619451,128.446554 L167.556083,128.328984 C167.478833,128.190131 167.387282,128.050495 167.253337,127.963926 C167.238567,127.981219 167.207141,128.001027 167.138946,128.022407 C166.200879,128.317958 165.382544,127.858596 164.948236,127.150531 C163.104469,127.379426 161.092259,127.302394 159.363197,127.378797 L157.614974,127.463396 C155.74697,127.54908 153.794099,127.586594 152.038726,127.209012 C151.793603,127.156505 151.719438,126.748393 151.964875,126.643378 C154.122902,125.719937 156.740693,125.425329 159.051137,125.070668 C160.34149,124.872271 161.641272,124.721352 162.935397,124.546851 C163.7971,124.430517 164.711598,124.238408 165.604412,124.192189 C167.84289,121.404261 166.636758,117.006207 163.521493,115.805766 C162.386698,116.304745 161.366294,116.014539 160.126536,115.907952 C158.888978,115.801679 157.648277,115.729678 156.405691,115.735023 C153.915805,115.746027 151.277273,116.401271 148.811585,116.119239 C148.410588,116.07302 148.037875,115.539142 148.436672,115.213406 C150.324114,113.672432 153.02906,113.169985 155.424865,112.841594 L155.921416,112.775109 C156.724666,112.66978 157.701387,112.51603 158.714563,112.424535 C158.943659,111.977435 159.354712,111.639438 159.972234,111.555489 C160.155762,111.530335 160.340233,111.515558 160.52439,111.499837 L160.521562,111.481601 L160.521562,111.481601 C162.027498,111.409285 161.962132,108.864401 161.549194,107.887824 Z M58.450045,155.498294 C58.4234376,155.539377 58.3943161,155.578505 58.3633323,155.616141 L58.3155415,155.671537 L58.5631788,155.570924 L58.450045,155.498294 L58.450045,155.498294 Z M187.828291,102.433018 C181.489655,101.751678 175.141906,101.895366 168.784415,102.078356 C168.275941,103.742247 166.506026,105.160264 164.791106,105.213714 C166.134255,107.258992 166.272844,110.027112 165.331005,112.196269 C167.330645,112.992685 169.053422,114.423279 170.099281,116.460695 C171.549593,119.285096 171.35978,122.428 169.926438,125.038283 C171.149854,126.146286 171.87171,127.945689 171.799431,129.64165 C171.718666,131.532864 170.592041,133.148334 169.655859,134.714127 C168.644254,136.407572 168.610314,137.898534 168.299511,139.795092 C167.844776,142.570758 165.973668,144.254142 163.566118,145.30555 L163.694107,145.80923 C164.314808,148.226493 165.087091,150.777089 166.86114,152.544668 C169.14326,154.818636 172.683618,154.797482 175.6988,154.941582 L175.844278,154.948694 C178.605246,155.086786 181.365007,155.248622 184.125009,155.405065 L186.195078,155.520932 C189.372881,155.695747 192.424666,155.716813 195.018887,153.614941 C199.254176,150.184031 202.157629,144.50599 203.995425,139.479418 C207.852659,128.928869 207.898856,117.350493 206.128312,106.362277 C200.190358,104.447482 194.02928,103.09958 187.828291,102.433018 Z M135.114605,119.936996 L135.161206,119.940402 C136.46633,120.089435 137.362915,121.146817 137.682204,122.401023 C138.146052,124.224008 137.918528,125.872178 139.034467,127.517832 C140.182461,129.21002 140.88829,130.564839 141.055163,132.655392 C141.123671,133.515635 141.092245,134.373677 141.28363,135.215683 L141.422405,135.805612 C141.569775,136.434652 141.690357,137.040536 141.61706,137.715921 C141.550123,138.331862 141.250318,138.811661 140.632796,139.009114 C138.620586,139.653039 137.066882,138.169623 136.547095,136.293502 C136.098016,134.673001 136.697626,132.741857 136.064076,131.220082 C135.713047,130.376504 135.06567,129.670954 134.699871,128.821716 C134.337529,127.980024 134.155572,127.100602 134.097434,126.185651 C133.987128,124.455104 135.516949,122.37587 134.663417,120.807876 C134.481666,120.473338 134.687502,119.926883 135.114605,119.936996 Z M108.385891,102.078765 C109.748525,101.801764 111.294373,101.166958 112.638151,101.694548 C113.328896,101.966204 113.670183,102.808839 113.086601,103.394597 C112.073371,104.410772 110.600771,104.467399 109.236042,104.707018 L109.115919,104.728664 C107.502191,105.02736 105.885634,105.310649 104.266878,105.57916 C101.221379,106.083798 98.1686519,106.529955 95.10524,106.909141 C91.9588632,107.298702 88.8036871,107.645503 85.6441114,107.906469 L84.4209408,108.006874 C81.751993,108.220429 78.9748738,108.38151 76.3561405,107.972496 C75.975571,107.913071 76.0368518,107.358756 76.3561405,107.261601 C79.2250252,106.392869 82.3720305,106.159887 85.3380217,105.792334 C88.4913121,105.400886 91.6392602,104.987429 94.7790375,104.49694 C97.9137866,104.007079 101.04445,103.481375 104.163486,102.900334 C105.573259,102.638111 106.980832,102.364255 108.385891,102.078765 Z M157.553371,99.2894847 C156.357609,98.8659661 155.042115,98.2383914 153.746418,98.4484214 C151.512026,98.8106288 149.523385,100.98859 147.754726,102.422956 L148.642791,102.250255 C153.186789,101.376474 159.20424,100.435178 163.018676,103.325645 C163.028418,103.308981 163.03596,103.292317 163.04696,103.275653 C163.354935,102.807802 163.711621,102.442765 164.10099,102.042513 C164.138177,102.007403 164.174177,101.97114 164.209584,101.934284 L164.41965,101.710489 L163.939174,101.543962 C162.910046,101.180013 161.690857,100.710031 161.498124,100.641431 L161.48477,100.636758 C160.172732,100.192174 158.859123,99.7526197 157.553371,99.2894847 Z M120.218682,3.99802179 C120.031696,1.59179478 123.774854,1.611603 123.960268,3.99802179 C124.364721,9.20789785 123.192843,14.3684106 120.670588,18.9359344 C120.652047,18.9692625 120.63162,18.9988176 120.612136,19.0302592 C122.189724,19.8515143 123.785225,20.6394412 125.416237,21.3437335 C127.502613,22.2448502 129.628271,23.0654765 131.791955,23.7615939 C133.74917,24.3916839 136.160491,24.6403871 137.80596,25.9515025 C141.275711,28.7158496 139.972158,34.4526871 139.304668,38.1712873 L139.200533,38.7583128 C138.868179,40.6718587 138.627802,42.6350757 139.434144,44.4715586 C140.295218,46.4332012 142.036535,47.8883192 143.589925,49.2918731 L143.90367,49.5764894 C145.279829,50.8307702 146.852287,52.3549155 147.861669,54.0552781 C148.783081,52.1492873 150.039181,50.5916695 151.367246,48.8381705 C152.314741,47.5867941 151.640338,47.1742801 150.95965,45.95183 C150.304417,44.7752847 149.984499,43.5210785 150.189397,42.1788359 C150.567453,39.6999787 152.547608,37.9093786 154.518651,36.5639918 C156.846379,34.9758757 159.444371,33.7993303 161.850664,32.3218887 C166.79524,29.2865149 171.610654,25.8159892 175.949021,21.9615613 C176.068755,21.8549742 176.276167,21.994575 176.180317,22.1401496 C172.753306,27.3553708 168.734856,31.8618978 163.796251,35.6870851 C161.793724,37.2381394 159.690105,38.524734 157.5724,39.8771846 L156.963566,40.2680673 C156.113278,40.8191493 155.052699,41.5556739 154.668239,42.4938809 C154.281384,43.4374438 155.106318,44.1499109 155.550368,44.9315495 C156.960446,47.4137223 156.280139,49.7296916 154.608448,51.8347067 L154.530593,51.9317113 C152.869411,53.9798183 151.610483,55.8845515 151.00836,58.5011229 C149.714603,64.1218715 151.516643,69.9766352 153.403007,75.2533702 L153.477505,75.4613603 C154.49791,78.3055691 155.582423,81.1290264 156.468952,84.0188254 L156.71288,84.8177406 C157.516135,87.476655 158.173901,90.0991198 157.27283,92.8325397 C156.966426,93.7622684 155.699013,93.9820453 155.172627,93.107025 C153.315661,90.0213447 152.852755,86.3080896 151.688734,82.9155391 C150.554254,79.6091386 149.251644,76.3624771 148.155817,73.0425567 C146.744787,68.7680688 145.800434,64.1669024 146.312993,59.6833277 C146.297909,59.6572312 146.281253,59.6327067 146.268682,59.6050381 L145.90949,58.8189591 C144.930019,56.6904481 143.984,54.8315547 142.202779,53.134982 C140.344871,51.3651333 138.328261,49.7983975 136.866321,47.6559657 C133.690832,43.0022296 135.654728,37.8253715 136.038292,32.7369096 L136.082182,32.1129339 C136.151857,31.0564343 136.19004,29.6206204 135.50023,28.8894073 C134.724321,28.0662658 132.904752,27.8562357 131.875234,27.4918274 C129.214704,26.5498365 126.592829,25.4522097 124.095714,24.134177 C121.718647,22.8796565 119.41606,21.49371 117.272174,19.8700648 L116.18554,19.0521952 C114.471055,17.7579453 112.693232,16.3446087 111.544147,14.5828424 C111.411529,14.380044 111.636854,14.0527367 111.876949,14.1498913 C113.795196,14.9287002 115.547827,16.1674999 117.342569,17.2453186 C117.370538,17.1796056 117.402907,17.1132638 117.439675,17.0466076 C119.66024,13.0258535 120.573482,8.57120509 120.218682,3.99802179 Z M181.494275,31.5456581 C182.258556,29.4488166 185.74182,29.6107409 185.602917,32.1021747 C185.496415,34.0162103 184.68417,35.7438303 183.941498,37.4817192 L183.862228,37.6679699 C183.095432,39.4786926 182.209846,41.1787409 181.150159,42.8382295 C179.125379,46.0106887 176.753654,48.9548818 174.2204,51.7333776 C171.923783,54.25248 168.909396,55.7928048 165.435874,55.5368701 C163.972363,55.4290253 162.495024,55.0564421 161.212526,54.3251101 C159.689305,53.4560638 158.035038,50.8467239 156.091651,51.4787005 C155.903723,51.5396972 155.728365,51.2642686 155.890838,51.1337859 C158.134344,49.3262073 160.680798,52.1289131 162.828768,52.8042791 C166.065338,53.8214154 169.386758,52.6967487 171.469991,50.0789196 C173.644989,47.3456998 175.646828,44.2854871 177.474882,41.309538 C178.403208,39.7984539 179.25014,38.230146 179.981739,36.6137324 C180.719937,34.9822269 180.887752,33.2092341 181.494275,31.5456581 Z M176.277141,18.6412635 C176.182863,18.3516862 176.542377,18.0762577 176.796613,18.2416406 C178.27081,19.2018676 179.548279,20.4705369 180.908084,21.5826269 C182.416849,22.816396 183.936613,24.0250117 185.479947,25.215077 C187.729738,26.9503399 185.120433,30.1448082 183.139963,28.2491931 C180.42978,25.6562029 177.461589,22.2655388 176.277141,18.6412635 Z M168.183329,8.49206654 C168.782231,6.18149436 172.324445,7.13432913 171.808246,9.41790359 L171.791354,9.48750815 C170.813671,13.2594643 172.206118,17.0995491 175.178676,19.5448798 L175.288131,19.6337182 C177.168667,21.1394573 174.504365,23.7717495 172.642372,22.2804736 C168.577411,19.0256373 166.886375,13.4966288 168.183329,8.49206654 Z" id="ðŸ–-Ink" fill="#000000"></path>
                </g>
                <g id="head/Bangs" transform="translate(116.904930, 56.594912)" fill-rule="evenodd">
                    <path d="M135.640247,133.577822 C134.394518,131.73473 131.394901,118.359493 129.478854,116.302275 C129.623414,108.400923 131.806586,81.0445125 125.570745,68.7470972 C126.882469,67.4200089 130.368211,55.9894936 129.478854,51.6683456 C132.416562,42.6188082 113.544272,28.2457772 106.361847,24.3618423 C72.9807756,6.45310184 24.6091612,26.2213109 9.42817613,59.3969744 C0.305506235,79.3765288 0.137376834,101.746078 -0.894026335,123.244291 C-1.01595943,127.845997 -1.43863989,132.483545 -1.43392598,137.079689 C-0.77429306,141.118425 2.42640581,145.231333 -3.94351218e-13,148.589685 C-2.68032835,150.444519 -8.09750697,154.963093 -5.68555714,157.525501 C-4.27201313,158.703041 -2.01405098,158.019876 -0.480145173,159.151996 C0.300792327,159.589209 0.7878962,160.547061 1.7011374,160.692901 C10.0434983,160.375883 15.9303754,160.34873 24.2985057,160.010392 C27.9618411,159.890506 33.5400551,161.440643 37.7449385,158.354507 C52.432805,166.527952 46.289091,154.669763 49.2591676,146.227071 C58.3035866,149.286635 76.3201083,159.043233 85.9606797,159.358397 C93.7948812,160.327064 101.120609,155.762436 108.822507,156.801551 C118.390798,160.357962 129.604244,161.148653 138.368657,155.13149 C140.55591,153.55536 142.989335,155.381126 145.746029,153.679239 C151.103857,151.115595 138.344144,136.421715 135.640247,133.577822 Z" id="ðŸŽ¨-Background" fill="#FFFFFF"></path>
                    <path d="M124.705694,67.6977332 C124.586903,67.0151357 125.526857,66.5060959 125.890456,67.1978115 C128.531816,72.2224964 129.589932,78.041711 130.525485,83.5917854 C131.470467,89.2003412 132.094902,94.8321637 132.129471,100.525612 C132.155869,104.905115 131.758329,109.335239 131.011961,113.717886 L131.102782,114.029787 L131.102782,114.029787 C131.270387,114.602653 131.43953,115.1751 131.610487,115.747128 L131.868321,116.604855 C132.366738,118.251767 132.838757,119.906225 133.350688,121.54905 C134.419488,124.977758 135.544855,128.416213 136.923202,131.734247 C138.268237,134.972105 139.903963,138.094572 141.848293,141.012983 C143.722229,143.826379 146.696077,146.205252 148.016285,149.32992 C148.476363,150.418743 147.795989,151.85814 146.525119,151.684268 C146.442468,151.783938 146.31645,151.856254 146.145492,151.871346 C145.158714,151.957496 144.233845,151.875433 143.249267,151.782995 C142.699625,151.731431 142.700568,150.979661 143.249267,150.928097 C143.667548,150.888795 144.074829,150.854209 144.481797,150.830628 C141.666022,149.161393 139.657269,145.90184 138.051083,143.23339 C135.98702,139.804996 134.427973,136.059042 133.157103,132.270956 C131.851979,128.381628 130.927739,124.41118 130.185141,120.379736 C130.099976,119.915658 130.018897,119.451265 129.940961,118.986243 C129.002579,122.977128 127.794247,126.895068 126.362161,130.660516 L126.161482,131.184627 C122.860101,139.747208 118.388755,148.392129 110.951766,154.051822 C110.61425,154.308386 110.269506,154.552058 109.921934,154.790386 L110.345017,155.033046 C110.766117,155.273604 111.180941,155.504346 111.586572,155.693703 C113.089366,156.395166 114.720693,156.929988 116.334421,157.308859 C119.667468,158.09207 123.167703,157.867577 126.568002,157.976679 C127.683313,158.012523 128.317805,159.685531 127.177667,160.228842 C123.421939,162.018185 119.365464,161.63837 115.488746,160.379447 C113.570499,159.75596 111.770415,158.883455 110.105148,157.744326 C109.416603,157.273644 108.617124,156.692603 107.942093,156.02101 C100.504488,160.184509 91.2601991,160.650474 82.9819474,159.161399 C78.6800345,158.387307 74.5113681,156.974006 70.8436331,154.55646 C67.315744,152.231667 64.801031,149.288102 63.0056604,145.474549 C62.8463303,145.136551 63.2891234,144.715548 63.5609588,145.045999 C69.2003646,151.8987 78.9053593,154.758001 87.4431903,155.301941 C91.9987114,155.592461 96.6588813,155.35099 101.038731,153.987367 C105.19357,152.69323 108.758542,150.321274 111.735218,147.166736 C117.768706,140.772455 121.38396,132.073817 123.98038,123.795553 C126.804954,114.789731 128.14999,105.314485 128.427482,95.8895453 C128.567956,91.1145068 128.391027,86.2992231 127.641516,81.5770065 C126.897976,76.8937776 125.518057,72.3611539 124.705694,67.6977332 Z M40.1536064,27.1283937 C40.5530316,26.9252809 40.8342948,27.4538145 40.4955219,27.7138367 C33.4633133,33.1095327 27.1655316,39.9512287 22.0682253,47.1925477 C12.667749,60.5480037 6.63897438,76.0028164 3.86279657,92.0619371 C2.22361347,101.545672 1.79559058,111.173096 1.95932033,120.783226 C2.02418371,124.600742 2.24210456,128.406586 2.48452264,132.213638 L2.75819461,136.433722 C2.88527984,138.399851 2.99141509,140.349249 2.90936808,142.324939 L2.88701752,142.781354 C2.75691364,145.080365 2.98286699,147.397927 2.40651312,149.640657 C2.11079393,150.790792 0.48952368,150.971895 -0.0975150528,149.967965 C-0.212534419,149.771454 -0.320011532,149.568656 -0.424346039,149.363971 C-1.80017879,151.608903 -3.58203618,153.615821 -5.55904938,155.408622 C-4.61406787,155.207396 -3.6599728,155.079114 -2.68042262,155.196391 C-1.12766118,155.382526 0.265141637,155.982432 1.25066276,157.033839 C2.2289559,156.592713 3.23490396,156.288987 4.3916971,156.282699 C5.24365748,156.278297 5.88254921,157.286001 5.39638812,158.034626 C4.42658002,159.528732 3.07337403,160.366336 1.5356971,161.194194 C0.445952377,161.781104 -0.854628437,161.279163 -1.25702071,160.118866 L-1.28007755,160.048462 C-1.73292702,158.580767 -4.14141998,158.817837 -5.27778618,159.044845 L-5.61220876,159.113164 C-7.72747477,159.553512 -9.79305053,160.117224 -11.9479666,159.535963 C-13.3379411,159.160865 -13.7012263,157.067482 -12.3612193,156.372622 C-8.12812949,154.177997 -4.57447104,151.230031 -0.922449032,148.270117 C-1.72884164,146.292125 -2.18671928,144.082094 -2.71467702,142.070773 C-3.45790326,139.23977 -3.67505731,136.193706 -3.94343583,133.285671 C-4.45348072,127.756662 -4.64800801,122.167601 -4.59332667,116.616897 C-4.4082272,97.8688895 -1.20339798,79.0627147 6.98277544,62.0858132 C10.569117,54.6489273 15.2805114,47.7673005 20.8495228,41.6761159 C26.3855369,35.6207747 32.851448,30.8391335 40.1536064,27.1283937 Z M33.599671,118.942256 C33.3825169,118.641046 33.8064544,118.24268 34.1037449,118.437933 C40.5401155,122.667774 45.0067009,129.090667 47.8887845,136.146481 C50.7416419,143.131865 52.4933303,151.688073 49.6797555,158.972467 C49.2319342,160.132662 47.0871058,160.563412 46.8674377,158.972467 C45.8866305,151.867919 45.7342141,144.753309 43.5774438,137.846215 C41.439215,130.999174 37.7805935,124.729086 33.599671,118.942256 Z M28.6090875,142.006853 C28.6442847,141.881401 28.8491826,141.903095 28.8403833,142.038294 C28.6791676,144.543562 28.5698049,147.079329 28.2549158,149.570763 C28.101871,150.781579 27.8994871,151.984536 27.7272724,153.192523 C27.5506579,154.431322 27.5773701,155.68207 26.8573991,156.74008 C25.903304,158.142691 23.3684783,157.748098 23.453643,155.817898 C23.5124097,154.486345 24.1239607,153.631762 24.6968577,152.463077 C25.0643331,151.713718 25.3845995,150.939207 25.6933198,150.161155 L26.1521984,148.994123 C27.0641826,146.679706 27.9368842,144.404276 28.6090875,142.006853 Z M17.0836442,135.370345 C17.1226125,135.173206 17.4403299,135.220682 17.4309021,135.417193 C17.2590016,138.963178 16.8592621,142.469233 16.2332551,145.96334 C15.9478279,147.555976 15.6150015,149.139705 15.2629867,150.71895 L15.1110306,151.395508 C14.7345465,153.05877 14.4916231,155.014124 13.6481477,156.500055 C12.8053009,157.985043 10.8040896,156.906595 11.0633546,155.40966 C11.3663018,153.662135 12.4382445,151.904234 13.0614232,150.22588 C13.6365201,148.676437 14.139337,147.09964 14.6091565,145.515297 C15.5981345,142.180285 16.409241,138.782703 17.0836442,135.370345 Z M38.5464719,145.214715 L38.6213976,145.137809 C38.9142885,144.819305 39.3511107,145.031536 39.4909566,145.367647 C40.0635393,146.745104 39.7769337,148.369378 39.7360798,149.831728 L39.7284884,150.150627 C39.6980194,151.631994 39.7192355,153.019489 39.0478492,154.38699 C38.2326573,156.047421 36.0846864,155.016136 35.9184425,153.539009 C35.7367999,151.926997 36.4988818,150.348943 36.9910138,148.839116 C37.3037031,147.879518 37.531542,146.881561 38.0070182,146.010628 C37.6003651,146.080743 37.1943404,146.221287 36.8225702,146.322843 C36.6560121,146.367805 36.5931599,146.123189 36.7521758,146.066594 C37.3668852,145.848845 38.0607246,145.685295 38.5464719,145.214715 L38.5464719,145.214715 Z M124.232386,150.102943 C124.035973,149.883166 124.280782,149.590445 124.535647,149.709294 C127.596545,151.139574 130.459459,152.069931 133.836817,152.3746 C135.300329,152.506655 135.309442,154.806924 133.836817,154.673611 C130.312071,154.356051 126.617938,152.774852 124.232386,150.102943 Z M16.5430532,101.779252 C19.2378375,95.7144784 27.7630981,90.3345032 33.479812,95.9745006 C33.5869748,96.07983 33.4779264,96.3096682 33.3223674,96.2452129 C29.7665092,94.7709155 25.4133718,96.6460935 22.9523974,99.3280635 C20.9998965,101.455403 19.8267618,104.187051 19.5938947,107.06616 C19.3610276,109.947784 20.0495725,112.955489 21.9624766,115.184386 C22.9659106,116.3537 24.3210021,117.460444 25.9155602,117.600989 C27.5255171,117.74279 28.8674097,116.608377 30.3893736,116.300249 C31.5367389,116.06821 32.402841,116.788537 32.5153463,117.920121 C32.7632979,120.417529 30.2781254,122.093681 28.1238692,122.50085 C25.8065118,122.938518 23.4413868,122.460291 21.4445752,121.203883 C14.9953199,117.146028 13.6040884,108.394254 16.5430532,101.779252 Z M77.0524476,42.3350064 C78.2243253,41.2144271 80.21768,42.3284037 79.7852575,43.9268955 C78.8657311,47.3288785 76.9113446,50.2042145 74.7460893,52.9333469 C72.6628561,55.5590364 70.4309776,58.0822262 68.0388261,60.4306007 C65.6623878,62.7635687 63.080423,64.9223502 60.366783,66.8506646 L59.5495036,67.4298468 C57.6262689,68.7862499 55.5891975,70.157969 53.4363948,71.1348994 C52.9166078,75.6153299 51.8996607,80.0360214 50.3610409,84.2683776 C48.8793024,88.3438401 46.993739,92.2825315 44.7090647,95.9684324 L44.3810169,96.4963238 C42.2815747,99.8626064 39.7570567,103.624749 36.194489,105.470089 C36.0876404,105.525741 35.9804776,105.559698 35.874886,105.579506 C36.6718508,106.111184 37.3453112,106.779947 37.7456791,107.740803 C38.1843869,108.792839 37.2673746,109.785451 36.3883878,110.132881 C34.5295365,110.867672 32.7162531,109.623841 31.0453297,108.297005 C30.974621,108.4561 30.9079978,108.616766 30.8508024,108.778691 C30.4771466,109.838273 30.3671554,110.921123 29.4036325,111.624157 C28.9457548,111.958381 28.3816571,111.659372 28.0934802,111.280815 C27.1488129,110.038871 28.1267918,108.346997 28.9573825,107.332062 C29.0724018,107.191832 29.1911923,107.05852 29.3134397,106.930552 C28.9624107,106.672417 28.6198666,106.443522 28.2880075,106.267763 C26.3367636,105.233963 23.4443094,105.050658 22.3208279,107.339293 C22.2347205,107.515052 21.9641419,107.424186 21.9641419,107.242453 C21.9669705,104.431258 24.845283,102.904453 27.343026,102.696939 C29.1679555,102.545427 30.9330343,103.185731 32.5756438,103.931329 L32.8821827,104.072195 C33.4934195,104.356113 34.1231976,104.623995 34.7259494,104.923634 C34.6279001,104.664869 34.6294714,104.360515 34.7837733,104.058675 C36.6727936,100.367744 39.9165911,97.3663267 42.2559467,93.947994 C44.5758182,90.5567011 46.5676017,86.9273952 48.1574459,83.137737 C49.7004652,79.4593821 50.9094256,75.6656365 51.7547865,71.7961166 C51.4763517,71.8536548 51.1624054,71.6055804 51.1822038,71.3147455 C51.2293429,70.6110821 51.5734582,69.977219 52.1777812,69.7071356 C52.8433851,66.0674539 53.1831008,62.3661466 53.1633024,58.6349699 C53.1617311,58.345707 53.5806404,58.3560827 53.6051527,58.6349699 C53.8993006,61.952375 53.9231844,65.3021649 53.6758614,68.6324611 C55.2477927,67.1855178 56.9055172,65.809947 58.418996,64.324645 C60.6964423,62.0897748 62.8997232,59.7951656 65.0250673,57.4153495 C67.1934652,54.9874278 69.2430726,52.4702119 71.1173226,49.8067924 L72.0981728,48.4100264 C73.6062346,46.268751 75.1553576,44.1498727 77.0524476,42.3350064 Z M74.0954129,18.4312021 C87.0291206,17.6234669 100.842129,19.213784 112.459714,25.2879901 C118.840146,28.6236313 123.771837,33.6652947 127.295641,39.9394695 C129.399615,43.6860527 130.995745,47.8347742 131.600382,52.100144 C132.221361,56.4827911 131.492276,60.3906698 128.695357,63.874401 C127.584446,65.2578322 125.713339,63.7124767 125.98706,62.2969751 C127.66144,53.6366959 124.9456,45.080174 120.128929,37.9105419 C113.13946,27.5065106 100.933265,22.8849072 89.0488732,20.8232804 C83.209912,19.8108603 77.2876717,19.3876561 71.36386,19.5935987 C66.8476215,19.7508068 62.2147923,20.17181 57.9289067,21.6920123 C57.7482069,21.7561532 57.6762412,21.4744363 57.8503415,21.4080945 C62.9627324,19.4546267 68.6697042,18.7701427 74.0954129,18.4312021 Z M93.2772491,38.0139534 C93.9431673,37.5916925 94.7577306,38.024958 94.9865123,38.7100708 C95.7935335,41.1254159 94.1021831,44.3164257 92.9708451,46.4066644 C91.6905475,48.7720174 90.0441364,50.9836207 88.3439868,53.0609684 C84.9427447,57.2156638 80.4723882,60.6824166 75.5667808,62.8613207 C75.2663477,62.9949476 74.9162614,62.6321113 75.191868,62.3755477 C78.987507,58.8393089 82.4289745,55.0480787 85.4081646,50.794971 C86.8719903,48.7050467 88.0928926,46.5003605 89.2587993,44.2356207 C90.3021444,42.2088941 91.2832658,39.2785353 93.2772491,38.0139534 Z M115.029643,40.8592626 C115.455151,39.3727029 117.878729,39.625808 117.77848,41.2315314 C117.519215,45.379624 115.563257,49.5434374 113.437913,53.0589247 C111.249402,56.6787982 108.477938,59.9047082 105.301078,62.6907499 C105.144576,62.8281498 104.930251,62.6165477 105.071982,62.4615405 C107.812963,59.4594948 110.026929,56.0399045 111.666426,52.3184746 C113.304038,48.6023898 113.922188,44.7250095 115.029643,40.8592626 Z M102.984224,40.1876382 C103.447758,38.8950733 105.666438,38.9909703 105.530363,40.5325528 C105.156393,44.770254 102.670592,49.2113825 100.368319,52.7114634 C97.9252571,56.4250329 94.8068496,59.6965332 91.3216999,62.4442162 C91.1912818,62.5470303 91.0068108,62.3766167 91.1340864,62.2565097 C94.2644358,59.3057139 96.8030327,55.8971281 98.812729,52.0952077 C99.8384754,50.1552599 100.698921,48.1351359 101.378352,46.0483558 C102.006873,44.1178404 102.301964,42.0904849 102.984224,40.1876382 Z" id="ðŸ–-Ink" fill="#000000"></path>
                </g>
                <g id="face/Calm" transform="translate(166.872359, 115.076321)" fill="#000000" fill-rule="evenodd">
                    <path d="M53.7516763,75.5098339 C51.436637,76.180682 48.9517169,76.2406638 46.5919273,75.5478513 C44.4515595,74.9193963 42.2538813,73.5364112 40.6786181,71.7063877 C39.2792402,70.0806947 38.3729415,68.1050755 38.4085381,65.9962441 C38.4125873,65.7553981 38.4986627,65.5543651 38.6310732,65.3983238 C38.7736185,65.230339 38.9727118,65.1149881 39.1859924,65.0649213 C39.4053366,65.0134311 39.6372176,65.0316856 39.8346674,65.1214192 C40.0134132,65.2026525 40.1665551,65.3406293 40.2623147,65.5422926 C40.5044045,65.8604696 40.7455541,66.1739345 40.9876502,66.4787053 C42.9341688,68.883455 44.8192202,70.6805764 47.7462111,71.3251534 C49.33431,71.6749524 50.9204114,71.519839 52.375716,70.986147 C53.9335496,70.4148554 55.341783,69.4103896 56.4453115,68.1249992 C56.9440153,67.5440949 57.5327922,67.3069903 58.1085147,67.303005 C58.7609339,67.2984889 59.4057926,67.6017979 59.8916021,68.0865769 C60.3691337,68.5630956 60.6888793,69.2106387 60.717859,69.8880176 C60.7432935,70.4825274 60.549448,71.1035355 60.0337463,71.6575711 C58.3350995,73.4825968 56.1336406,74.8195923 53.7516763,75.5098339 Z M53.6801993,45.3913689 C56.0532998,46.8345535 59.6691761,50.1997784 57.1162662,53.7776088 C54.1112471,56.9323001 49.784698,53.3152311 47.6526495,51.6793716 C45.6757143,50.4115714 43.4545168,53.6722587 45.2887184,55.1526293 C60.6949451,66.5644387 66.9471181,45.7687415 54.8804804,43.6945376 C53.5519002,43.4659692 53.0584622,44.9449039 53.6801993,45.3913689 Z M31.4810387,39.0410837 C30.7183085,38.5530594 29.8210919,38.3855446 28.8267154,38.8381626 C28.0496499,39.1917048 26.6867645,40.370311 25.7382867,41.9196607 C25.0894009,42.9796233 24.6292669,44.2230981 24.7250606,45.5183279 C24.7473075,45.8191303 24.6362135,46.040921 24.4609835,46.2049111 C24.3225909,46.3344267 24.1226872,46.4296087 23.8878881,46.4593633 C23.6885447,46.4846248 23.4654171,46.4618357 23.2839911,46.4051827 C22.9388712,46.297414 22.7562173,46.0734347 22.6873968,45.8905764 C22.0232984,44.1260441 22.309399,42.1569347 23.0536858,40.380452 C24.0581459,37.9829813 25.8822732,35.974801 27.0773861,35.3273384 C29.1224739,34.219005 31.5351032,34.1679945 33.5831185,35.2971081 C35.326491,36.2581128 36.4165824,37.8096187 37.5007558,39.3911277 C37.7312262,39.7273205 37.9599706,40.0610483 38.196383,40.3889057 C38.6701773,41.0458609 38.7173369,41.6974205 38.5338546,42.2561374 C38.3305894,42.8750947 37.8123057,43.3974536 37.1642025,43.6708215 C36.5651807,43.9234871 35.8699384,43.9590542 35.2547301,43.6994454 C34.7350256,43.4801379 34.2580783,43.0526237 33.9562888,42.3272408 C33.4480152,41.1056074 32.601183,39.7577954 31.4810387,39.0410837 L31.4810387,39.0410837 Z M70.2186238,41.7589861 C69.6962562,42.0313019 69.2875861,42.1134066 68.7081259,41.9397096 C68.3876856,41.8434125 68.0709823,41.658854 67.823031,41.4107799 C67.5772976,41.1649248 67.4000012,40.8591846 67.3310859,40.5200084 C67.1615905,39.6829302 66.7038196,38.8993707 66.0514768,38.3885667 C65.4939077,37.9519733 64.7901293,37.7205684 64.0095062,37.851118 C63.1671542,37.9918046 62.3646093,38.5323104 61.8118691,39.1695545 C61.6271272,39.3827879 61.4823153,39.6249608 61.3367298,39.8654989 C61.0643891,40.3153319 60.7996844,40.7334628 60.4240863,41.0638142 C60.2817095,41.1895029 60.0671692,41.2765556 59.8593781,41.2765556 C59.7749263,41.2765556 59.6892197,41.2628068 59.6075494,41.2373406 C58.7691384,40.3954295 58.6079052,39.7567537 58.6349356,39.123272 C58.6632809,38.458973 58.9250527,37.7863767 59.3480776,37.1588246 C60.3403901,35.6867416 62.2244591,34.4797708 63.4958436,34.2063862 C65.236996,33.8320322 66.9661685,34.2814193 68.3525392,35.2543751 C69.7790332,36.2554894 70.8360618,37.8098139 71.1656121,39.5614609 C71.2448908,39.9833303 71.2112019,40.4386905 71.0506171,40.8335075 C70.8937016,41.2193034 70.6202505,41.5497302 70.2186238,41.7589861 Z M35.3210827,23.3462339 C34.276181,24.3647838 33.0394484,24.5225539 31.7882904,24.6628799 C31.0931159,24.7415826 30.5381588,24.805028 29.9920569,24.9283115 C28.4910402,25.2673049 27.0073359,25.7778655 25.6536988,26.5131708 C24.238689,27.281846 22.69665,28.2088665 21.5872683,29.396451 C21.3234699,29.6790534 21.074798,29.9755849 20.8257787,30.2727655 C20.5987077,30.5437571 20.3799677,30.8046422 20.1494372,31.0561881 C19.8846889,31.345121 19.6332816,31.6479425 19.3832108,31.9499728 C19.228579,32.2048249 19.1980334,32.2675057 19.1668939,32.3327566 C19.1200346,32.4308052 19.065527,32.5405333 19.0032717,32.6582494 C18.918011,32.8194655 18.8181434,32.9959436 18.7135502,33.1559473 C18.539531,33.4484059 18.4461555,33.5289636 18.365469,33.5649961 C18.2315828,33.6246538 18.1046105,33.6540421 17.9814269,33.6381277 C17.8659251,33.6232056 17.7571098,33.567704 17.6496532,33.4768462 C17.1131929,33.023369 16.9549774,32.2791557 16.9711936,31.4891715 C16.9958015,30.2903783 17.4377433,28.9630958 17.8451467,28.1471824 C18.7924406,26.2513477 20.1062093,24.2805053 21.6859382,22.8655509 C23.4885517,21.2504062 25.4606708,20.0276587 27.7258523,19.1851024 C29.1335299,18.6613166 30.7633734,18.1805326 32.2969843,18.2412624 C33.4008762,18.2849757 34.4546985,18.6132791 35.3249891,19.4331381 C35.8593984,19.9364263 36.1159292,20.6523021 36.1159292,21.3676709 C36.1159292,22.0972893 35.849493,22.8312161 35.3210827,23.3462339 Z M72.3437192,32.6733686 C72.2772693,32.7823313 72.1852959,32.8574212 72.0829569,32.9025196 C71.9756746,32.9497963 71.8559069,32.9634133 71.7409725,32.9440376 C71.6265469,32.9247476 71.5177783,32.8728522 71.4314991,32.7935423 C71.348802,32.7175252 71.2858298,32.6167091 71.2576725,32.4932011 C70.5639397,29.4447712 69.2168835,27.1766939 66.3417592,25.7141028 C64.9274428,24.9946043 63.3011128,24.5374625 61.7615286,24.1729868 C61.3141333,24.0670611 60.8413928,23.9984287 60.365314,23.9288815 C58.8732486,23.7109158 57.3704175,23.4612934 56.3977175,22.2546372 C55.8116174,21.5277909 55.5656391,20.5982329 55.7047143,19.7481123 C55.8356612,18.9476772 56.3031641,18.213735 57.153007,17.7739069 C59.2687617,16.6794393 61.8979998,17.7533984 64.0345709,18.6682642 C64.1930604,18.7361284 64.3486397,18.8027479 64.5008663,18.8670282 C66.5902665,19.7494146 68.4959099,20.9141448 70.0623838,22.5798409 C71.3053069,23.9012964 72.4568924,25.8548274 72.9206909,27.8644703 C73.3065544,29.5364207 73.2158253,31.2432523 72.3437192,32.6733686 Z" id="ðŸ–-Ink"></path>
                </g>
                <g id="facial-hair/*-None" transform="translate(155.558958, 162.867473)"></g>
                <g id="accessories/Glasses-2" transform="translate(131.675176, 132.369211)" fill="#000000" fill-rule="evenodd">
                    <path d="M117.002696,30.0134451 C113.187259,33.9577961 106.817825,35.0896943 101.741575,32.9743023 C88.7073034,27.5257843 95.0871071,10.53159 105.13936,5.96783914 C106.395145,5.65468063 108.072354,4.9117152 109.60186,4.74318813 C109.740134,4.67527423 110.041196,4.87178434 110.406053,4.68596438 C121.490337,5.92413529 124.014478,23.1390498 117.002696,30.0134451 M74.9615464,31.0230355 C70.6822603,36.7017061 62.7264399,38.453633 56.2262744,35.8137948 C43.3849592,30.7542097 47.9395376,15.6845567 56.7253202,9.77667671 C75.2846063,2.79946732 82.9484786,20.5526624 74.9615464,31.0230355 M47.1243457,18.4407289 C47.1124038,18.4350694 47.1004619,18.4322397 47.0882057,18.4265802 C47.156086,18.3967106 47.2239663,18.3668411 47.2915323,18.3363427 C47.2695341,18.3938809 47.2456503,18.4507902 47.2242805,18.5083284 C47.1909689,18.485376 47.1617427,18.4586506 47.1243457,18.4407289 M125.837189,12.3023819 C124.789444,12.3045828 123.275965,12.4768828 122.408606,13.2041275 C120.269749,5.98733294 112.374895,-0.691809915 105.50893,4.17849667 C100.102077,5.91816138 96.0899126,9.7763623 93.8096379,14.9057478 C89.698167,12.4589611 83.2331987,13.5037661 79.6679126,16.739423 C77.3329566,9.02019139 71.5863879,6.31715551 64.7465068,5.91816138 C57.2809328,4.69476804 49.8398712,11.9486637 47.5181142,17.7678783 C45.5876115,17.5481014 42.7030138,16.9334177 40.886902,18.1253695 C29.0999311,15.032772 8.49229463,13.327693 6.09605783,15.0459774 C4.38836593,15.7015352 3.45124093,19.7342371 5.83647861,19.951813 C7.91499798,19.6565763 5.59386945,16.9969298 7.68904463,16.7067237 C18.8525226,16.0143793 29.6897982,18.2637126 40.7351142,19.20759 C41.7212638,20.5347406 44.9075517,20.9786963 46.6073871,20.4454464 C43.9302013,30.3168568 49.7094531,37.0327863 58.3689029,39.044421 C71.7774584,42.126014 83.4431247,30.1253773 79.9369196,17.6430551 C83.9987374,15.621359 88.6708492,15.7081379 93.0956379,16.7730655 C85.7017154,43.9983623 129.527551,42.7768554 122.682641,14.1370003 C127.237848,16.4039409 128.227141,12.7598574 125.837189,12.3023819" id="ðŸ–-Ink"></path>
                </g>
            </g>
        </g>
    </g>
</svg>