<?xml version="1.0" encoding="UTF-8"?>
<svg width="74px" height="69px" viewBox="0 0 74 69" version="1.1" xmlns="http://www.w3.org/2000/svg" xmlns:xlink="http://www.w3.org/1999/xlink">
    <!-- Generator: Sketch 60.1 (88133) - https://sketch.com -->
    <title>noun_Speech Bubble_454383</title>
    <desc>Created with Sketch.</desc>
    <g id="Page-1" stroke="none" stroke-width="1" fill="none" fill-rule="evenodd">
        <g id="noun_Speech-Bubble_454383" fill="#000000">
            <g id="Group" transform="translate(37.000000, 34.500000) scale(-1, 1) rotate(-180.000000) translate(-37.000000, -34.500000) ">
                <g id="Shape">
                    <g>
                        <path d="M7.188,0.635 C7.163,0.687 7.184,0.75 7.235,0.774 C7.76,1.088 8.273,1.449 8.756,1.822 C8.909,1.94 9.057,2.066 9.21,2.184 C9.321,2.271 9.43,2.363 9.539,2.457 C9.358,2.621 9.226,2.835 9.34,3.076 C9.366,3.132 9.419,3.202 9.47,3.238 C9.513,3.271 9.571,3.291 9.635,3.302 C9.633,3.31 9.631,3.318 9.631,3.328 C9.627,3.384 9.67,3.437 9.727,3.441 C9.932,3.46 10.126,3.494 10.327,3.54 C10.425,3.561 10.535,3.6 10.633,3.616 C10.903,3.821 11.171,4.032 11.411,4.254 C11.62,4.445 11.834,4.639 12.045,4.828 C12.288,5.047 12.507,5.289 12.734,5.522 C12.958,5.751 13.173,5.988 13.383,6.232 C13.318,6.169 13.255,6.106 13.19,6.046 C12.755,5.628 12.28,5.256 11.827,4.858 C11.679,4.727 11.531,4.597 11.382,4.467 C11.254,4.356 11.071,4.177 10.914,4.12 C10.74,4.057 10.58,4.038 10.399,4.018 C10.369,3.993 10.319,3.997 10.294,4.028 C10.268,4.058 10.272,4.108 10.303,4.133 C10.348,4.308 10.401,4.491 10.498,4.645 C10.579,4.777 10.743,4.89 10.861,4.994 C11.08,5.188 11.301,5.378 11.518,5.574 C11.854,5.881 12.176,6.224 12.497,6.547 C12.957,7.008 13.431,7.458 13.885,7.925 C14.931,9.001 15.885,10.14 16.63,11.422 C17.2,12.862 17.557,14.481 17.498,15.988 C17.486,16.28 17.458,16.587 17.415,16.892 C15.836,16.905 14.165,17.435 12.824,18.137 C12.244,18.439 11.691,18.771 11.159,19.127 C10.197,19.477 9.257,19.915 8.325,20.463 C8.23,20.516 8.198,20.636 8.25,20.731 C8.304,20.825 8.424,20.858 8.519,20.805 C8.715,20.693 8.909,20.581 9.104,20.471 C9.342,20.338 9.593,20.212 9.852,20.092 C9.629,20.271 9.413,20.454 9.197,20.641 L9.2,20.641 C9.041,20.798 8.882,20.959 8.74,21.132 C8.268,21.493 7.918,21.841 7.574,22.202 C7.339,22.449 7.109,22.73 6.891,22.992 C6.417,23.565 5.982,24.144 5.555,24.751 C4.701,25.964 3.968,27.219 3.553,28.632 C3.338,29.079 3.14,29.54 2.959,30.002 C3.063,29.677 3.176,29.357 3.284,29.032 C3.303,28.974 3.272,28.91 3.214,28.89 C3.157,28.871 3.093,28.903 3.072,28.96 C2.511,30.513 2.109,32.114 1.849,33.738 C1.813,33.919 1.778,34.1 1.789,34.288 C1.763,34.313 1.804,34.025 1.849,33.738 C1.675,34.585 1.547,35.44 1.465,36.303 C1.459,36.339 1.454,36.375 1.45,36.41 C1.408,36.693 1.373,36.977 1.34,37.263 C1.414,35.969 1.54,34.672 1.749,33.408 C1.922,32.347 2.114,31.295 2.402,30.257 C2.538,29.763 2.669,29.258 2.838,28.774 C3.061,28.127 3.304,27.51 3.57,26.878 C3.649,26.691 3.743,26.508 3.831,26.326 C3.917,26.15 4.007,25.955 4.107,25.787 C4.311,25.439 4.489,25.074 4.72,24.741 C4.885,24.507 5.035,24.255 5.211,24.027 C5.745,23.344 6.262,22.732 6.918,22.159 C7.33,21.801 7.799,21.434 8.268,21.157 C8.388,21.079 8.421,20.918 8.344,20.798 C8.266,20.679 8.105,20.645 7.985,20.723 C7.518,21.008 7.092,21.343 6.67,21.69 C6.273,22.016 5.87,22.42 5.53,22.806 C3.89,24.671 2.843,26.829 2.097,29.19 C1.823,30.059 1.587,30.935 1.399,31.828 C1.244,32.565 1.102,33.305 0.995,34.051 C0.86,34.983 0.751,35.902 0.666,36.84 C0.526,38.391 0.485,39.945 0.496,41.502 C0.503,42.438 0.525,43.386 0.584,44.322 C0.6,44.592 0.626,44.863 0.655,45.133 C0.606,44.962 0.561,44.791 0.519,44.62 C0.492,44.516 0.384,44.454 0.28,44.482 C0.177,44.509 0.115,44.617 0.142,44.721 C0.296,45.302 0.443,45.887 0.617,46.464 C0.788,47.038 0.978,47.615 1.182,48.187 C1.209,48.312 1.237,48.436 1.269,48.559 C1.271,48.58 1.29,48.595 1.312,48.593 C1.317,48.592 1.322,48.59 1.326,48.588 C1.453,48.931 1.583,49.273 1.717,49.611 C2.003,50.331 2.302,51.041 2.619,51.739 C2.67,51.899 2.725,52.058 2.784,52.218 C3.142,53.185 3.589,54.121 4.132,54.998 C4.411,55.448 4.714,55.889 5.04,56.323 C5.532,57.124 6.06,57.908 6.606,58.681 C6.902,59.098 7.217,59.51 7.541,59.915 C7.372,59.803 7.204,59.691 7.038,59.577 C6.738,59.371 6.444,59.155 6.146,58.946 C6.047,58.875 5.907,58.899 5.837,58.999 C5.766,59.098 5.79,59.237 5.89,59.307 C6.54,59.755 7.178,60.236 7.855,60.644 C8.054,60.762 8.25,60.887 8.449,61.009 C8.452,61.012 8.455,61.015 8.458,61.02 C8.921,61.563 9.418,62.096 9.994,62.547 C9.918,62.51 9.85,62.46 9.782,62.412 C9.638,62.307 9.504,62.188 9.363,62.082 C9.252,61.998 9.149,61.9 9.044,61.809 C8.822,61.614 8.603,61.41 8.398,61.197 C8.262,61.057 8.134,60.904 8,60.76 C7.928,60.68 7.803,60.674 7.723,60.747 C7.644,60.819 7.638,60.944 7.71,61.025 C7.987,61.327 8.253,61.615 8.551,61.899 C8.821,62.158 9.121,62.385 9.409,62.622 C9.682,62.846 10.021,63.075 10.321,63.264 C10.611,63.447 10.902,63.625 11.199,63.792 C11.322,63.901 11.446,64.01 11.571,64.116 C12.263,64.707 12.993,65.29 13.749,65.796 C14.27,66.144 14.786,66.489 15.33,66.798 C15.544,66.92 15.759,67.05 15.981,67.156 C16.284,67.301 16.606,67.455 16.92,67.573 C17.152,67.66 17.386,67.737 17.619,67.82 C17.947,67.939 18.295,68.01 18.628,68.116 C18.668,68.132 18.716,68.112 18.732,68.07 C18.749,68.029 18.728,67.983 18.687,67.965 C18.477,67.863 18.268,67.739 18.064,67.626 C17.523,67.328 17,67.003 16.463,66.699 C15.823,66.338 15.153,65.963 14.546,65.548 C14.322,65.395 14.091,65.245 13.869,65.087 C13.8,65.037 13.731,64.988 13.663,64.939 C13.864,65.018 14.068,65.096 14.276,65.171 C15.902,65.764 17.597,66.164 19.292,66.501 C20.338,66.709 21.418,66.873 22.478,67.001 C23.006,67.066 23.538,67.138 24.069,67.182 C24.784,67.24 25.497,67.319 26.214,67.368 C26.713,67.401 27.21,67.431 27.709,67.455 C32.217,68.031 36.778,68.217 41.315,68.251 C41.852,68.255 42.391,68.244 42.928,68.244 C43.866,68.244 44.806,68.233 45.744,68.207 C47.072,68.172 48.402,68.16 49.73,68.1 C50.255,68.076 50.779,68.065 51.305,68.031 C52.392,67.957 53.467,67.826 54.548,67.699 C54.663,67.695 54.751,67.598 54.747,67.483 C54.743,67.368 54.647,67.279 54.532,67.284 C53.491,67.235 52.45,67.199 51.407,67.202 C50.707,67.204 50.009,67.241 49.309,67.263 C48.602,67.287 47.895,67.304 47.189,67.329 C46.391,67.358 45.593,67.368 44.795,67.388 C44.597,67.392 44.401,67.397 44.183,67.403 C44.285,67.397 44.366,67.393 44.447,67.39 C44.713,67.377 44.981,67.36 45.249,67.339 C45.707,67.313 46.166,67.279 46.623,67.239 C47.552,67.156 48.471,67.043 49.388,66.896 C49.653,66.858 49.922,66.819 50.191,66.78 C50.13,66.821 50.09,66.894 50.09,66.974 C50.09,67.103 50.196,67.207 50.325,67.207 C50.954,67.201 51.581,67.197 52.208,67.154 C53.467,67.065 54.723,66.867 55.943,66.543 C56.837,66.305 57.681,65.994 58.527,65.625 C58.835,65.491 59.13,65.33 59.43,65.182 C59.79,65.007 60.165,64.773 60.503,64.561 C61.515,63.924 62.388,63.218 63.263,62.409 C63.572,62.124 63.853,61.827 64.142,61.523 C64.391,61.261 64.632,60.999 64.864,60.722 C64.95,60.62 65.04,60.526 65.122,60.422 C65.321,60.171 65.532,59.924 65.725,59.669 C65.725,59.668 65.726,59.667 65.727,59.665 C66.059,59.335 66.384,58.961 66.69,58.607 C67.129,58.1 67.561,57.581 67.949,57.034 C68.016,56.939 68.092,56.849 68.159,56.753 C68.502,56.257 68.829,55.76 69.147,55.249 C69.436,54.785 69.684,54.3 69.948,53.823 C70.193,53.38 70.413,52.9 70.618,52.436 C71.021,51.528 71.355,50.619 71.633,49.667 C71.631,49.676 71.63,49.685 71.629,49.695 C71.61,49.853 71.722,49.997 71.879,50.017 C72.037,50.037 72.181,49.925 72.202,49.767 C72.285,49.043 72.383,48.323 72.456,47.597 C72.54,47.434 72.627,47.27 72.702,47.102 C72.746,47.069 72.79,47.036 72.835,47.005 C73.003,46.882 73.181,46.745 73.364,46.642 C73.496,46.552 73.53,46.371 73.44,46.239 C73.35,46.107 73.169,46.073 73.037,46.162 C73.009,46.183 72.982,46.202 72.954,46.221 C72.968,46.149 72.979,46.078 72.99,46.008 C73.018,45.955 72.995,45.887 72.942,45.86 C72.889,45.832 72.821,45.855 72.794,45.908 C72.723,45.976 72.653,46.047 72.584,46.118 C72.596,45.962 72.608,45.808 72.621,45.653 C72.659,45.18 72.69,44.683 72.7,44.208 C72.717,43.44 72.759,42.669 72.744,41.899 C72.74,41.753 72.74,41.606 72.738,41.462 C72.771,41.204 72.798,40.949 72.821,40.698 C72.866,40.194 72.92,39.697 72.947,39.192 C73.081,36.713 72.978,34.179 72.35,31.766 C72.246,31.371 72.12,30.993 71.992,30.606 C71.725,29.801 71.333,29.03 70.928,28.288 C70.752,27.963 70.539,27.664 70.352,27.347 C70.331,27.305 70.278,27.289 70.235,27.31 C70.194,27.331 70.177,27.385 70.199,27.427 C70.416,27.893 70.639,28.44 70.794,28.931 C70.979,29.51 71.185,30.081 71.333,30.672 C71.397,30.926 71.462,31.184 71.531,31.436 C71.593,31.667 71.635,31.906 71.694,32.136 C71.778,32.457 71.845,32.803 71.902,33.128 C72.013,33.761 72.119,34.396 72.171,35.035 C72.189,35.261 72.21,35.486 72.229,35.713 C72.092,34.902 71.922,34.1 71.718,33.302 C71.573,32.532 71.4,31.761 71.195,31.004 C71,30.286 70.783,29.581 70.537,28.879 C70.458,28.651 70.363,28.425 70.281,28.196 C70.225,28.046 70.166,27.889 70.103,27.734 C70.11,27.684 70.103,27.631 70.082,27.582 C70.063,27.54 70.033,27.503 69.998,27.476 C69.943,27.347 69.888,27.22 69.831,27.099 C69.715,26.85 69.605,26.598 69.489,26.349 C69.378,26.113 69.253,25.882 69.136,25.65 C68.92,25.219 68.655,24.798 68.407,24.385 C68.002,23.71 67.549,23.056 67.072,22.429 C66.678,21.911 66.213,21.418 65.764,20.947 C65.684,20.855 65.569,20.814 65.457,20.827 C65.131,20.543 64.794,20.27 64.451,20.004 C63.636,19.374 62.778,18.799 61.891,18.276 L61.402,17.997 L60.579,17.42 C60.403,17.306 60.234,17.201 60.066,17.107 C60.349,17.096 60.63,17.086 60.914,17.079 C60.785,16.988 60.357,16.967 60.182,16.945 C59.998,16.923 59.814,16.899 59.631,16.875 C59.408,16.767 59.177,16.673 58.921,16.589 C58.652,16.501 58.069,16.362 57.798,16.415 L57.742,16.44 C57.674,16.471 57.617,16.517 57.574,16.574 C57.042,16.495 56.509,16.419 55.976,16.346 C55.685,16.238 55.394,16.134 55.102,16.037 C54.686,15.895 54.269,15.766 53.851,15.632 C53.819,15.621 53.78,15.638 53.769,15.671 C53.758,15.703 53.775,15.742 53.807,15.753 C54.174,15.905 54.552,16.05 54.922,16.207 C54.22,16.118 53.52,16.038 52.819,15.968 C52.086,15.893 51.353,15.807 50.618,15.719 C49.244,15.389 47.856,15.111 46.477,14.886 C44.384,14.546 42.267,14.28 40.146,14.207 C39.497,14.184 38.85,14.172 38.201,14.187 C37.844,14.196 37.475,14.203 37.12,14.236 C36.966,14.244 36.848,14.378 36.856,14.533 C36.856,14.543 36.857,14.554 36.859,14.564 L36.694,14.564 C35.28,14.56 33.877,14.605 32.478,14.738 C32.429,14.642 32.376,14.545 32.323,14.45 C32.384,14.383 32.397,14.282 32.346,14.203 C32.298,14.128 32.209,14.097 32.127,14.116 C31.278,12.747 30.024,11.572 28.739,10.591 C28.784,10.56 28.83,10.527 28.878,10.496 C28.971,10.451 29.013,10.336 28.967,10.242 C28.923,10.148 28.808,10.108 28.713,10.153 C28.589,10.185 28.44,10.223 28.304,10.269 C28.113,10.13 27.922,9.995 27.732,9.865 L27.378,9.637 L26.882,9.186 C26.475,8.837 26.058,8.501 25.635,8.179 C25.211,7.858 24.781,7.543 24.345,7.235 C24.341,7.192 24.326,7.149 24.3,7.111 C24.235,7.016 24.119,6.976 24.013,7.003 C22.652,6.059 21.238,5.184 19.782,4.409 C18.761,3.865 17.737,3.337 16.67,2.889 C14.831,2.116 12.993,1.494 11.06,1.006 C11.03,0.998 10.998,1.014 10.99,1.042 C10.982,1.072 10.998,1.104 11.026,1.112 C11.986,1.484 12.928,1.882 13.86,2.3 C13.733,2.268 13.557,2.249 13.443,2.228 C13.102,2.163 12.765,2.101 12.422,2.045 C11.776,1.939 10.952,1.85 10.277,2.05 C9.362,1.445 8.372,0.954 7.327,0.588 C7.276,0.564 7.213,0.584 7.188,0.635 Z M15.671,4.35 C16.133,4.49 16.586,4.648 17.043,4.803 C17.371,4.914 17.697,5.035 18.02,5.161 C18.01,5.167 18.001,5.175 17.992,5.182 C17.899,5.148 17.805,5.117 17.71,5.087 C17.258,4.941 16.805,4.794 16.352,4.645 C15.794,4.462 15.205,4.29 14.636,4.141 C14.125,4.008 13.617,3.863 13.103,3.748 C12.78,3.676 12.462,3.606 12.144,3.541 C12.129,3.528 12.116,3.513 12.102,3.501 C13.306,3.696 14.51,3.995 15.671,4.35 Z M16.959,5.291 C17.161,5.363 17.365,5.435 17.566,5.51 C17.42,5.624 17.275,5.736 17.132,5.842 C16.706,6.158 16.279,6.484 15.817,6.747 C15.652,6.841 15.478,6.919 15.307,7.006 C15.238,7.038 15.208,7.123 15.24,7.191 C15.273,7.26 15.357,7.29 15.426,7.258 C15.792,7.072 16.128,6.904 16.48,6.681 C16.847,6.447 17.203,6.186 17.561,5.937 C17.696,5.842 17.828,5.75 17.962,5.658 C18.467,5.849 18.967,6.05 19.464,6.257 C19.288,6.407 19.112,6.556 18.937,6.704 C18.235,7.289 17.507,7.935 16.934,8.651 C16.878,8.715 16.886,8.813 16.951,8.868 C17.015,8.924 17.114,8.916 17.169,8.851 C17.269,8.717 17.398,8.585 17.513,8.463 C17.779,8.176 18.063,7.911 18.357,7.655 C18.656,7.394 18.951,7.133 19.261,6.885 C19.457,6.727 19.657,6.576 19.858,6.425 C20.37,6.643 20.876,6.871 21.38,7.107 C21.322,7.148 21.263,7.19 21.207,7.231 C20.453,7.764 19.789,8.311 18.92,8.658 C18.807,8.704 18.755,8.835 18.8,8.947 C18.846,9.06 18.977,9.113 19.09,9.067 C19.369,8.941 19.616,8.837 19.887,8.682 C19.968,8.637 20.051,8.6 20.128,8.545 C20.212,8.487 20.308,8.434 20.395,8.378 C20.56,8.271 20.724,8.161 20.886,8.048 C21.22,7.817 21.559,7.577 21.909,7.356 C22.308,7.549 22.705,7.746 22.878,7.849 C22.742,7.961 22.612,8.09 22.483,8.211 C22.095,8.569 21.733,8.953 21.355,9.322 C21.057,9.614 20.75,9.939 20.432,10.209 C20.271,10.347 20.11,10.486 19.951,10.626 C19.858,10.705 19.848,10.847 19.926,10.939 C20.005,11.03 20.147,11.041 20.239,10.962 C20.707,10.557 21.161,10.159 21.606,9.726 C22.026,9.315 22.464,8.894 22.91,8.511 C23.074,8.367 23.233,8.231 23.392,8.1 C23.52,8.165 23.647,8.233 23.774,8.3 L24.159,8.546 L24.272,8.619 L24.824,9.059 C25.152,9.341 25.468,9.637 25.769,9.958 C25.783,9.975 25.797,9.99 25.812,10.006 C25.803,10.011 25.795,10.016 25.787,10.021 C25.645,9.927 25.501,9.838 25.356,9.751 C25.335,9.738 25.304,9.744 25.29,9.765 C25.277,9.787 25.283,9.817 25.305,9.83 C25.435,9.91 25.563,9.993 25.689,10.077 C24.944,10.525 24.223,11.183 23.651,11.773 C23.361,12.071 23.066,12.366 22.792,12.677 C22.61,12.886 22.433,13.101 22.249,13.307 C22.154,13.415 22.056,13.534 21.97,13.649 C21.91,13.723 21.921,13.833 21.994,13.893 C22.068,13.954 22.178,13.941 22.238,13.868 C22.727,13.25 23.265,12.693 23.831,12.144 C24.511,11.485 25.282,10.869 26.122,10.42 C26.398,10.679 26.598,10.94 26.782,11.21 C26.555,11.387 26.334,11.572 26.113,11.756 C25.951,11.889 25.801,12.036 25.647,12.179 C24.982,12.787 24.389,13.467 23.787,14.138 C23.187,14.808 22.596,15.501 22.009,16.184 C21.939,16.263 21.947,16.386 22.027,16.456 C22.107,16.525 22.23,16.517 22.3,16.438 C22.664,16.013 23.037,15.59 23.411,15.173 C23.944,14.581 24.467,13.988 25.028,13.42 C25.453,12.989 25.898,12.588 26.359,12.198 C26.589,12.003 26.824,11.831 27.065,11.656 C27.144,11.787 27.237,11.936 27.297,12.07 C27.387,12.271 27.494,12.464 27.573,12.672 C27.753,13.146 27.894,13.591 28.015,14.073 C27.66,14.381 27.304,14.69 26.95,14.998 C26.772,15.152 26.604,15.321 26.43,15.48 C25.967,15.904 25.498,16.335 25.025,16.746 L24.028,17.586 L24.107,17.411 C24.245,17.128 24.407,16.891 24.743,16.793 C24.789,16.777 24.813,16.728 24.797,16.682 C24.782,16.637 24.731,16.614 24.687,16.629 C24.648,16.645 24.597,16.655 24.561,16.674 C24.337,16.787 24.286,16.841 24.118,17.035 C24.036,17.129 23.957,17.318 23.901,17.428 C23.818,17.596 23.727,17.789 23.612,17.939 C23.561,18.004 23.597,18.107 23.686,18.109 C23.731,18.11 23.773,18.071 23.808,18.043 C24.02,17.875 24.244,17.71 24.461,17.548 C25.017,17.133 25.56,16.7 26.11,16.276 C26.485,15.988 26.864,15.701 27.232,15.403 C27.537,15.153 27.835,14.896 28.134,14.636 C28.162,14.816 28.182,14.997 28.203,15.175 C28.213,15.267 28.221,15.362 28.228,15.458 C27.836,15.558 27.448,15.672 27.067,15.799 C27.005,15.817 26.97,15.886 26.988,15.948 C27.006,16.011 27.074,16.047 27.137,16.029 C27.501,15.908 27.868,15.8 28.239,15.704 C28.25,16.12 28.224,16.547 28.174,16.944 C28.219,16.815 28.288,16.687 28.341,16.561 C28.386,16.451 28.424,16.334 28.467,16.224 C28.507,16.121 28.533,16.008 28.566,15.903 C28.595,15.806 28.622,15.706 28.646,15.605 C29.251,15.464 29.862,15.349 30.475,15.251 C30.481,15.249 30.488,15.248 30.495,15.247 C30.406,15.319 30.316,15.389 30.224,15.46 C30.001,15.626 29.783,15.821 29.569,16.001 C29.025,16.456 28.507,16.942 27.982,17.419 C27.403,17.944 26.831,18.481 26.245,18.998 C25.971,19.24 25.689,19.476 25.412,19.715 C25.339,19.777 25.331,19.89 25.393,19.963 C25.456,20.037 25.567,20.045 25.642,19.983 C26.436,19.301 27.212,18.605 27.989,17.902 C28.942,17.04 29.898,16.188 30.921,15.421 C30.941,15.424 30.96,15.427 30.979,15.431 C31.08,15.71 31.159,15.997 31.215,16.293 C30.977,16.349 30.74,16.408 30.505,16.464 C30.349,16.5 30.254,16.657 30.289,16.813 C30.325,16.969 30.482,17.065 30.638,17.029 C30.855,16.978 31.073,16.927 31.289,16.878 C31.292,16.918 31.294,16.956 31.296,16.997 C31.298,17.057 31.3,17.121 31.3,17.184 C30.781,17.58 30.266,17.987 29.75,18.386 C28.703,19.195 27.657,20.047 26.654,20.91 C26.591,20.964 26.582,21.06 26.634,21.124 C26.688,21.187 26.785,21.196 26.849,21.143 C27.979,20.175 29.158,19.264 30.35,18.375 C30.655,18.147 30.963,17.926 31.271,17.704 C31.266,17.749 31.26,17.794 31.253,17.839 C31.238,17.937 31.212,18.034 31.199,18.131 C31.181,18.25 31.132,18.39 31.103,18.51 C31.089,18.567 31.123,18.629 31.18,18.643 C31.238,18.657 31.299,18.623 31.313,18.565 C31.369,18.325 31.44,18.101 31.477,17.855 C31.492,17.743 31.504,17.635 31.515,17.53 C31.77,17.346 32.026,17.163 32.279,16.979 C32.285,16.973 32.292,16.969 32.298,16.964 C32.45,17.345 32.581,17.738 32.683,18.117 C32.704,18.194 32.751,18.254 32.808,18.288 C31.929,19.154 31.077,20.045 30.212,20.928 C29.905,21.242 29.597,21.554 29.287,21.864 C28.99,22.161 28.681,22.445 28.386,22.744 C28.358,22.771 28.358,22.818 28.385,22.846 C28.413,22.876 28.46,22.876 28.489,22.847 C28.83,22.503 29.193,22.166 29.542,21.828 C29.976,21.411 30.4,20.982 30.834,20.564 C31.991,19.449 33.138,18.327 34.393,17.319 C34.797,16.995 35.209,16.676 35.631,16.376 C35.708,16.32 35.788,16.263 35.867,16.207 C35.67,16.151 35.696,16.149 35.98,16.198 C37.402,16.379 38.823,16.538 40.249,16.685 C39.575,17.134 38.903,17.58 38.225,18.02 C37.077,18.765 35.907,19.576 34.885,20.487 C34.261,21.045 33.697,21.599 33.146,22.231 C32.924,22.486 32.703,22.747 32.506,23.022 C32.361,23.225 32.22,23.479 32.094,23.699 C32.053,23.763 32.071,23.851 32.135,23.892 C32.2,23.933 32.289,23.914 32.329,23.85 C32.46,23.63 32.633,23.44 32.786,23.237 C33.545,22.231 34.439,21.34 35.449,20.58 C35.808,20.309 36.159,20.036 36.526,19.776 C37.692,18.951 38.887,18.176 40.085,17.399 C40.404,17.192 40.717,16.978 41.031,16.764 C41.178,16.778 41.324,16.794 41.471,16.808 C42.263,16.885 43.059,16.972 43.854,17.046 C43.55,17.261 43.248,17.478 42.95,17.696 C41.909,18.449 40.881,19.213 39.855,19.985 C38.644,20.895 37.459,21.841 36.274,22.781 C36.186,22.85 36.171,22.98 36.24,23.068 C36.31,23.156 36.44,23.171 36.527,23.1 C39.158,21.005 41.836,19.01 44.603,17.111 C44.618,17.112 44.634,17.113 44.649,17.115 C44.95,17.138 45.251,17.153 45.552,17.175 C46.018,17.206 46.483,17.236 46.949,17.266 C46.505,17.52 46.069,17.787 45.631,18.067 C44.935,18.51 44.293,18.998 43.641,19.5 C43.179,19.856 42.713,20.238 42.274,20.622 C40.805,21.909 39.367,23.222 37.976,24.594 C37.913,24.656 37.909,24.759 37.971,24.823 C38.032,24.886 38.135,24.889 38.199,24.828 C39.165,23.9 40.135,22.988 41.144,22.11 C41.718,21.61 42.313,21.095 42.919,20.634 C43.37,20.293 43.814,19.933 44.278,19.609 C44.602,19.382 44.93,19.162 45.256,18.938 C45.405,18.835 45.556,18.726 45.708,18.63 C46.313,18.243 46.903,17.888 47.531,17.539 C47.658,17.468 47.786,17.394 47.914,17.329 C48.196,17.347 48.476,17.367 48.756,17.39 C49.209,17.424 49.662,17.459 50.116,17.495 C50.153,17.519 50.188,17.541 50.225,17.564 C50.045,17.664 49.867,17.767 49.692,17.875 C49.238,18.151 48.793,18.437 48.353,18.736 C45.88,20.42 43.711,22.634 41.841,24.956 C41.771,25.041 41.783,25.17 41.868,25.241 C41.955,25.311 42.084,25.299 42.154,25.214 C43.693,23.333 45.414,21.517 47.371,20.065 C48.418,19.287 49.512,18.572 50.658,17.946 C50.695,17.926 50.732,17.904 50.768,17.884 C51.153,18.099 51.55,18.295 51.95,18.482 C52.186,18.591 52.435,18.683 52.677,18.777 C52.836,18.838 52.997,18.903 53.156,18.967 C52.019,19.793 50.9,20.655 49.816,21.537 C48.694,22.448 47.579,23.39 46.549,24.405 C46.036,24.909 45.518,25.412 45.036,25.945 C44.965,26.02 44.97,26.138 45.044,26.209 C45.117,26.279 45.236,26.275 45.306,26.202 C45.67,25.815 46.038,25.44 46.413,25.066 C46.786,24.691 47.188,24.336 47.578,23.98 C48.128,23.477 48.715,23.007 49.294,22.538 C50.531,21.535 51.854,20.624 53.152,19.701 C53.369,19.544 53.588,19.386 53.805,19.227 C54.531,19.517 55.255,19.832 55.967,20.162 C55.868,20.216 55.771,20.272 55.675,20.328 C52.555,22.128 49.772,24.337 47.453,27.105 C47.386,27.184 47.395,27.304 47.473,27.371 C47.552,27.439 47.672,27.43 47.739,27.351 C50.122,24.515 53.044,22.345 56.32,20.642 C56.999,20.289 57.679,19.937 58.38,19.63 C58.527,19.561 58.591,19.385 58.524,19.237 C58.456,19.09 58.279,19.026 58.132,19.093 C57.538,19.361 56.938,19.646 56.356,19.952 C55.644,19.61 54.932,19.269 54.219,18.927 C54.364,18.824 54.508,18.722 54.655,18.623 C54.787,18.528 54.816,18.343 54.722,18.211 C54.627,18.079 54.442,18.048 54.31,18.143 C54.077,18.306 53.845,18.469 53.613,18.636 C53.12,18.396 52.61,18.134 52.105,17.937 C51.821,17.824 51.536,17.723 51.25,17.63 C51.274,17.618 51.298,17.605 51.322,17.594 C51.73,17.627 52.137,17.661 52.545,17.694 C53.108,17.739 53.673,17.78 54.24,17.825 C54.438,17.876 54.639,17.929 54.839,17.982 C56.066,18.311 57.279,18.688 58.48,19.097 C58.722,19.21 58.961,19.325 59.194,19.439 C59.567,19.622 59.951,19.802 60.314,20.004 C60.474,20.092 60.632,20.18 60.79,20.268 C60.343,20.545 59.902,20.829 59.464,21.109 C58.889,21.474 58.297,21.825 57.715,22.182 C55.082,23.791 52.387,25.355 49.9,27.189 C49.821,27.245 49.803,27.356 49.86,27.434 C49.916,27.511 50.027,27.531 50.104,27.474 C51.369,26.536 52.703,25.699 54.045,24.877 C55.29,24.114 56.565,23.378 57.833,22.655 C58.644,22.194 59.453,21.721 60.251,21.24 C60.615,21.021 60.979,20.804 61.336,20.573 C61.58,20.714 61.825,20.858 62.069,21.01 C62.266,21.133 62.461,21.259 62.654,21.387 C59.873,22.934 57.328,24.969 55.098,27.217 C55.008,27.305 55.008,27.45 55.097,27.54 C55.184,27.628 55.33,27.628 55.419,27.541 C55.648,27.301 55.895,27.062 56.137,26.837 C56.838,26.184 57.531,25.558 58.272,24.954 C59.427,24.01 60.685,23.122 61.972,22.366 C62.352,22.14 62.737,21.919 63.126,21.708 C63.969,22.296 64.762,22.932 65.505,23.637 C65.161,23.744 64.844,23.887 64.519,24.043 C64.194,24.2 63.88,24.356 63.562,24.527 C63.161,24.74 62.773,25.006 62.391,25.25 C62.015,25.491 61.651,25.762 61.293,26.029 C60.5,26.621 59.749,27.251 59.007,27.904 C57.976,28.813 56.951,29.734 55.933,30.656 C55.845,30.735 55.837,30.872 55.916,30.961 C55.994,31.048 56.131,31.056 56.22,30.978 C57.166,30.128 58.119,29.278 59.089,28.455 C59.898,27.769 60.724,27.082 61.597,26.48 C61.923,26.255 62.258,26.011 62.598,25.809 C62.805,25.686 63.011,25.548 63.221,25.432 C63.495,25.282 63.769,25.133 64.042,24.983 C64.193,24.901 64.359,24.807 64.516,24.736 C64.695,24.656 64.877,24.57 65.052,24.482 C65.185,24.416 65.334,24.365 65.47,24.302 C65.584,24.249 65.697,24.189 65.81,24.133 C65.855,24.113 65.894,24.083 65.922,24.047 C66.131,24.26 66.339,24.479 66.54,24.706 C66.698,24.884 66.854,25.066 67.004,25.249 C65.955,25.679 65.005,26.284 64.059,26.91 C63.575,27.229 63.099,27.588 62.643,27.948 C61.313,28.996 60.103,30.134 58.939,31.362 C58.857,31.447 58.86,31.583 58.946,31.664 C59.031,31.744 59.167,31.741 59.247,31.657 C59.494,31.375 59.779,31.112 60.041,30.844 C60.271,30.609 60.524,30.359 60.771,30.144 C61.058,29.891 61.338,29.631 61.628,29.38 C62.417,28.7 63.254,28.083 64.118,27.501 C65.138,26.812 66.25,26.243 67.367,25.72 C67.432,25.897 67.496,26.07 67.555,26.248 C67.762,26.886 67.951,27.541 68.105,28.194 C68.098,28.197 68.091,28.201 68.084,28.204 C67.839,27.948 67.58,27.704 67.31,27.482 C67.134,27.335 66.944,27.197 66.772,27.05 C66.917,27.237 67.043,27.452 67.18,27.647 C67.355,27.898 67.52,28.157 67.687,28.418 C67.517,28.51 67.35,28.605 67.186,28.704 C66.682,29.007 66.192,29.305 65.703,29.632 C64.893,30.172 64.073,30.826 63.376,31.504 C63.068,31.804 62.764,32.11 62.49,32.441 C62.144,32.859 61.796,33.285 61.522,33.752 C61.462,33.845 61.489,33.971 61.582,34.031 C61.676,34.091 61.802,34.064 61.862,33.971 C61.986,33.754 62.151,33.531 62.302,33.331 C62.624,32.905 62.947,32.542 63.317,32.157 C63.568,31.896 63.838,31.656 64.112,31.421 C65.209,30.483 66.46,29.693 67.74,29.031 C67.826,28.986 67.912,28.942 67.999,28.898 C68.022,28.934 68.047,28.97 68.072,29.007 C68.169,29.149 68.26,29.298 68.359,29.441 C68.369,29.49 68.379,29.538 68.39,29.589 C68.408,29.693 68.498,29.769 68.6,29.778 C68.736,29.976 68.866,30.18 68.994,30.386 C69.069,30.507 69.147,30.633 69.221,30.761 C68.908,30.914 68.604,31.074 68.306,31.258 C67.223,31.92 66.297,32.802 65.399,33.691 C64.434,34.646 63.518,35.628 62.504,36.534 C62.415,36.613 62.408,36.751 62.487,36.84 C62.565,36.929 62.703,36.936 62.793,36.858 C63.023,36.641 63.266,36.428 63.501,36.215 C63.909,35.843 64.312,35.434 64.704,35.043 C66.134,33.622 67.629,32.128 69.514,31.324 C69.738,31.774 69.957,32.235 70.108,32.711 C70.206,33.018 70.294,33.319 70.385,33.627 C70.397,33.673 70.428,33.709 70.467,33.732 C70.468,33.74 70.47,33.748 70.471,33.757 C69.354,34.515 68.354,35.505 67.349,36.381 C67.053,36.639 66.753,36.891 66.45,37.14 C66.322,37.244 66.183,37.338 66.057,37.443 C65.822,37.641 65.529,37.809 65.276,37.986 C65.189,38.043 65.164,38.162 65.222,38.249 C65.279,38.336 65.398,38.361 65.485,38.303 C65.622,38.207 65.77,38.121 65.905,38.024 C66.275,37.758 66.652,37.492 67.002,37.201 C68.045,36.332 69.074,35.441 70.167,34.637 C70.3,34.538 70.437,34.447 70.575,34.359 C70.627,34.672 70.674,34.986 70.722,35.302 C70.824,35.999 70.928,36.691 70.983,37.395 C70.996,37.579 71.01,37.761 71.022,37.945 C70.773,38.174 70.527,38.406 70.28,38.623 C69.892,38.965 69.516,39.316 69.125,39.653 C68.496,40.197 67.858,40.672 67.144,41.095 C67.053,41.149 67.023,41.27 67.076,41.36 C67.131,41.452 67.252,41.482 67.343,41.428 C67.449,41.356 67.568,41.294 67.678,41.227 C67.781,41.165 67.884,41.092 67.986,41.027 C68.35,40.791 68.692,40.524 69.033,40.258 C69.17,40.153 69.31,40.049 69.44,39.937 C69.883,39.561 70.335,39.197 70.775,38.818 C70.868,38.736 70.963,38.656 71.057,38.574 C71.078,38.982 71.093,39.39 71.1,39.803 C71.108,40.344 71.094,40.882 71.07,41.42 C70.55,41.77 70.043,42.195 69.565,42.58 C69.094,42.959 68.632,43.347 68.162,43.727 C67.798,44.021 67.422,44.286 67.049,44.565 C66.965,44.626 66.945,44.746 67.007,44.83 C67.068,44.914 67.188,44.934 67.272,44.872 C67.468,44.726 67.67,44.586 67.866,44.442 C68.05,44.307 68.233,44.158 68.415,44.018 C68.894,43.652 69.353,43.251 69.834,42.887 C70.195,42.612 70.552,42.314 70.927,42.06 C70.967,42.033 71.006,42.006 71.044,41.979 C71.039,42.083 71.034,42.185 71.029,42.29 C70.986,43.141 70.882,44.002 70.767,44.847 C70.568,46.322 70.262,47.799 69.871,49.236 C69.851,49.299 69.834,49.364 69.816,49.429 C69.657,49.608 69.497,49.784 69.33,49.955 C69.256,50.033 69.185,50.113 69.106,50.185 C68.904,50.368 68.707,50.554 68.505,50.737 C68.289,50.93 68.042,51.092 67.807,51.263 C67.807,51.259 67.807,51.254 67.808,51.25 C67.812,51.054 67.78,50.867 67.751,50.674 C67.764,50.616 67.727,50.556 67.669,50.542 C67.61,50.529 67.55,50.567 67.537,50.625 C67.409,50.805 67.288,50.984 67.201,51.188 C67.142,51.33 67.115,51.489 67.078,51.638 C67.023,51.872 66.969,52.103 66.916,52.338 C66.823,52.742 66.729,53.145 66.632,53.548 C66.404,54.509 66.127,55.466 65.844,56.412 C65.665,57.011 65.453,57.599 65.253,58.191 C65.212,58.312 65.276,58.446 65.397,58.486 C65.518,58.528 65.652,58.463 65.692,58.342 C65.997,57.439 66.311,56.542 66.606,55.634 C66.867,54.832 67.101,54.019 67.335,53.208 C67.459,52.782 67.584,52.348 67.687,51.915 C67.709,51.817 67.735,51.719 67.757,51.621 C67.828,51.682 67.933,51.689 68.013,51.634 C68.301,51.428 68.582,51.238 68.853,51.006 C69.09,50.8 69.32,50.582 69.542,50.358 C69.317,51.085 69.064,51.811 68.784,52.505 C68.61,52.938 68.426,53.362 68.245,53.792 C68.214,53.862 68.24,53.943 68.3,53.986 C68.056,54.449 67.81,54.911 67.557,55.372 C66.676,56.968 65.692,58.54 64.559,59.976 C64.022,60.519 63.463,61.036 62.886,61.523 C62.427,61.908 61.956,62.283 61.473,62.643 C61.261,62.731 61.049,62.822 60.839,62.91 C60.095,63.22 59.331,63.502 58.579,63.793 C58.315,63.895 58.05,63.994 57.781,64.086 C58.216,63.814 58.637,63.518 59.037,63.203 C59.331,62.971 59.602,62.724 59.888,62.487 C59.917,62.463 59.924,62.42 59.902,62.39 C59.879,62.361 59.835,62.354 59.805,62.376 C59.453,62.6 59.098,62.835 58.731,63.035 C58.425,63.202 58.12,63.367 57.814,63.533 C57.369,63.776 56.882,63.98 56.423,64.196 C55.645,64.558 54.837,64.883 54.017,65.165 C53.901,65.193 53.787,65.219 53.674,65.247 C52.017,65.639 50.311,65.93 48.601,66.146 C48.1,66.183 47.599,66.224 47.099,66.256 C45.898,66.335 44.695,66.427 43.493,66.51 C42.37,66.586 41.246,66.658 40.118,66.72 C39.314,66.735 38.508,66.737 37.702,66.727 C36.446,66.635 35.19,66.504 33.952,66.348 C33.778,66.326 33.607,66.302 33.435,66.28 C33.849,66.23 34.261,66.174 34.677,66.119 C35.656,65.986 36.646,65.807 37.598,65.539 C38.248,65.355 38.903,65.146 39.531,64.901 C39.864,64.772 40.194,64.632 40.527,64.508 C40.553,64.501 40.568,64.473 40.561,64.448 C40.554,64.422 40.526,64.407 40.5,64.414 C40.132,64.476 39.765,64.552 39.396,64.613 C38.45,64.771 37.502,64.916 36.556,65.076 C35.668,65.227 34.777,65.39 33.883,65.499 C33.146,65.591 32.394,65.673 31.654,65.723 C31.196,65.753 30.739,65.775 30.287,65.793 C29.062,65.578 27.847,65.334 26.637,65.061 C25.839,64.881 25.044,64.685 24.251,64.482 C23.888,64.39 23.529,64.283 23.166,64.19 C22.956,64.136 22.75,64.071 22.542,64.012 C21.627,63.753 20.733,63.464 19.829,63.175 C19.724,63.14 19.611,63.198 19.578,63.302 C19.544,63.406 19.601,63.519 19.706,63.553 C20.958,63.953 22.199,64.348 23.471,64.687 C24.486,64.956 25.496,65.206 26.515,65.453 C27.095,65.592 27.679,65.708 28.262,65.832 C27.143,65.818 26.024,65.749 24.915,65.664 C23.805,65.577 22.665,65.442 21.566,65.258 C21.235,65.202 20.902,65.139 20.57,65.079 C19.907,64.962 19.248,64.797 18.593,64.646 C17.955,64.499 17.323,64.321 16.697,64.133 C16.11,63.955 15.513,63.771 14.937,63.559 C14.664,63.458 14.393,63.357 14.116,63.25 C13.967,63.164 13.812,63.075 13.66,62.984 C12.875,62.515 12.108,62.036 11.36,61.51 C11.176,61.381 10.993,61.252 10.681,61.001 C10.677,60.899 10.647,60.874 10.571,60.812 C10.426,60.692 10.264,60.538 10.129,60.406 C9.613,59.902 9.109,59.405 8.63,58.863 C8.217,58.397 7.814,57.913 7.423,57.417 C7.457,57.404 7.488,57.387 7.517,57.364 C7.635,57.262 7.649,57.082 7.547,56.964 C7.34,56.737 7.13,56.485 6.938,56.242 C6.582,55.794 6.255,55.351 5.919,54.89 C5.663,54.539 5.433,54.156 5.2,53.788 C4.901,53.317 4.644,52.816 4.384,52.322 C4.372,52.3 4.361,52.278 4.35,52.256 C4.35,52.243 4.349,52.229 4.345,52.216 C4.312,52.004 4.282,51.795 4.246,51.585 C4.32,51.736 4.395,51.886 4.475,52.035 C4.786,52.631 5.1,53.237 5.454,53.808 C6.057,54.783 6.68,55.703 7.384,56.609 C7.418,56.655 7.486,56.666 7.533,56.631 C7.58,56.597 7.59,56.528 7.555,56.482 C7.309,56.121 7.056,55.769 6.818,55.403 C6.33,54.654 5.851,53.854 5.444,53.06 C5.041,52.273 4.674,51.494 4.319,50.685 C3.93,49.798 3.573,48.834 3.284,47.909 C3.148,47.477 3.012,47.045 2.891,46.613 C2.696,45.814 2.521,45.013 2.385,44.207 C2.326,43.862 2.268,43.516 2.213,43.169 C2.213,42.628 2.236,42.095 2.262,41.551 C2.304,40.57 2.469,39.555 2.64,38.589 C2.767,37.87 2.939,37.172 3.121,36.467 C3.203,36.147 3.294,35.806 3.397,35.493 C3.512,35.141 3.624,34.788 3.738,34.436 C3.864,34.046 4.019,33.654 4.164,33.27 C4.285,32.95 4.42,32.633 4.552,32.317 C5.521,30.006 6.736,27.865 8.071,25.751 C8.073,25.79 8.089,25.828 8.12,25.856 C8.182,25.912 8.278,25.906 8.334,25.844 C9.693,24.281 11.238,22.883 12.81,21.538 C13.385,21.046 13.967,20.555 14.552,20.077 C14.641,20.002 14.651,19.867 14.576,19.779 C14.501,19.69 14.366,19.68 14.278,19.756 C13.165,20.728 12.065,21.713 10.983,22.719 C10.031,23.605 9.081,24.545 8.216,25.521 C8.28,25.418 8.346,25.316 8.412,25.214 C9.402,23.671 10.46,22.176 11.593,20.735 C11.4,20.825 11.071,21.23 10.909,21.401 C10.474,21.859 10.047,22.348 9.641,22.832 C8.886,23.738 8.159,24.666 7.492,25.639 C6.899,26.503 6.347,27.407 5.842,28.324 C5.679,28.62 5.51,28.914 5.359,29.214 C5.214,29.5 5.062,29.782 4.922,30.07 C4.619,30.692 4.331,31.32 4.058,31.955 C3.678,32.837 3.352,33.738 3.046,34.647 C2.496,36.276 2.087,38 1.852,39.754 C1.842,39.591 1.834,39.427 1.826,39.264 C1.817,38.37 1.852,37.481 1.933,36.615 C1.956,36.364 1.982,36.112 2.014,35.857 C2.05,35.622 2.089,35.382 2.131,35.142 C2.191,34.783 2.26,34.412 2.344,34.059 C2.582,33.055 2.826,32.069 3.162,31.092 C3.415,30.359 3.684,29.654 3.983,28.94 C4.078,28.71 4.18,28.486 4.296,28.266 C4.299,28.258 4.303,28.25 4.307,28.242 C4.494,27.933 4.681,27.623 4.862,27.312 C5.061,26.967 5.261,26.63 5.464,26.301 C6.208,25.214 7.07,24.232 8.013,23.309 C8.165,23.166 8.325,23.017 8.492,22.86 C8.656,22.714 8.832,22.567 9.003,22.427 C10.311,21.348 11.772,20.419 13.307,19.7 C13.423,19.644 13.472,19.502 13.416,19.387 C13.359,19.271 13.218,19.222 13.103,19.278 C12.327,19.639 11.584,20.039 10.87,20.483 C10.884,20.414 10.864,20.338 10.809,20.288 C10.765,20.246 10.706,20.23 10.651,20.234 C11.021,19.924 11.407,19.627 11.801,19.353 C13.51,18.822 15.25,18.6 17.018,18.527 C17.025,18.613 17.083,18.692 17.171,18.721 C17.287,18.761 17.414,18.697 17.453,18.58 C17.459,18.557 17.465,18.533 17.472,18.511 C17.819,18.501 18.164,18.497 18.513,18.496 C18.522,18.622 18.632,18.715 18.758,18.708 C18.884,18.7 18.978,18.59 18.97,18.464 C18.968,18.442 18.966,18.419 18.964,18.397 C19.02,18.34 19.053,18.261 19.053,18.176 C19.052,18.074 19.004,17.983 18.926,17.927 C18.897,17.55 18.862,17.174 18.813,16.794 C18.598,15.171 18.181,13.503 17.615,11.966 C17.408,11.404 17.193,10.854 16.947,10.308 C16.823,10.035 16.697,9.733 16.553,9.471 C16.079,8.612 15.587,7.79 15.021,6.987 C14.82,6.706 14.61,6.436 14.401,6.161 C14.314,6.049 14.226,5.937 14.128,5.832 C13.942,5.558 13.734,5.3 13.528,5.042 C13.265,4.712 12.968,4.393 12.68,4.086 C12.648,4.051 12.618,4.018 12.588,3.987 C14.071,4.326 15.549,4.793 16.959,5.291 Z M18.529,5.367 L18.6,5.397 C18.545,5.379 18.491,5.36 18.436,5.34 C18.441,5.337 18.445,5.335 18.449,5.333 C18.475,5.344 18.502,5.356 18.529,5.367 Z M22.522,10.612 C22.129,10.945 21.734,11.289 21.328,11.606 C21.095,11.788 20.855,11.969 20.625,12.155 C20.555,12.209 20.543,12.312 20.596,12.382 C20.65,12.453 20.751,12.465 20.822,12.411 C20.977,12.284 21.139,12.169 21.298,12.049 C21.541,11.863 21.78,11.671 22.022,11.486 C22.757,10.925 23.484,10.361 24.226,9.81 C24.341,9.726 24.452,9.635 24.569,9.552 C24.675,9.472 24.697,9.317 24.616,9.211 C24.535,9.104 24.381,9.083 24.274,9.164 C23.666,9.614 23.099,10.124 22.522,10.612 Z M27.967,11.502 L29.08,12.543 C29.207,12.674 29.332,12.811 29.454,12.949 C29.437,12.957 29.418,12.968 29.401,12.985 C29.389,12.974 29.376,12.963 29.364,12.953 C28.979,12.619 28.596,12.273 28.207,11.932 C28.174,11.862 28.141,11.795 28.109,11.728 L27.967,11.502 Z M29.049,13.185 C28.938,13.279 28.827,13.372 28.716,13.468 C28.691,13.301 28.655,13.14 28.61,13 C28.576,12.902 28.552,12.799 28.521,12.701 C28.507,12.655 28.492,12.61 28.475,12.564 C28.668,12.77 28.858,12.976 29.049,13.185 Z M30.632,14.886 C30.656,14.911 30.679,14.934 30.704,14.959 C30.672,14.964 30.64,14.969 30.609,14.974 C29.973,15.074 29.333,15.194 28.7,15.342 C28.771,14.955 28.803,14.545 28.785,14.181 C28.783,14.146 28.781,14.109 28.779,14.071 C28.978,13.896 29.18,13.721 29.381,13.549 C29.794,14.002 30.208,14.454 30.632,14.886 Z M18.003,15.171 C18.057,15.495 18.097,15.827 18.106,16.146 C18.114,16.408 18.114,16.663 18.11,16.922 C18.031,16.914 17.951,16.907 17.871,16.903 C17.909,16.628 17.935,16.352 17.953,16.087 C17.977,15.721 17.975,15.351 17.954,14.986 C17.97,15.045 17.987,15.108 18.003,15.171 Z M36.872,14.881 C36.854,14.893 36.835,14.904 36.815,14.916 C36.52,15.084 36.227,15.311 35.947,15.53 C35.654,15.559 35.36,15.593 35.068,15.628 C34.905,15.647 34.741,15.667 34.576,15.688 C34.433,15.671 34.288,15.654 34.146,15.635 C34.224,15.563 34.239,15.441 34.175,15.354 C34.107,15.258 33.972,15.237 33.877,15.305 C33.762,15.388 33.646,15.472 33.533,15.554 C33.286,15.519 33.039,15.486 32.793,15.451 C32.735,15.298 32.671,15.146 32.603,14.996 C33.667,14.91 34.732,14.875 35.809,14.872 C36.162,14.87 36.517,14.873 36.872,14.881 Z M38.443,14.945 C39.947,15.032 41.44,15.168 42.928,15.335 C42.864,15.331 42.799,15.329 42.736,15.327 C41.46,15.28 40.175,15.272 38.899,15.324 C38.281,15.349 37.667,15.384 37.053,15.431 C37.139,15.376 37.222,15.319 37.306,15.261 C37.468,15.146 37.63,15.029 37.793,14.912 C38.009,14.921 38.227,14.932 38.443,14.945 Z M31.506,15.672 C31.604,15.749 31.706,15.826 31.801,15.907 C31.832,15.967 31.862,16.029 31.896,16.088 C31.904,16.104 31.912,16.12 31.921,16.137 C31.779,16.166 31.637,16.195 31.495,16.227 C31.489,16.188 31.483,16.151 31.477,16.116 C31.44,15.931 31.414,15.743 31.367,15.559 C31.413,15.598 31.459,15.635 31.506,15.672 Z M33.175,15.81 C33.117,15.851 33.058,15.893 33,15.935 C32.986,15.938 32.971,15.94 32.957,15.943 C32.94,15.884 32.922,15.824 32.904,15.767 C32.994,15.782 33.083,15.796 33.175,15.81 Z M43.962,16.076 C44.342,16.106 44.723,16.139 45.102,16.178 C45.045,16.216 44.987,16.254 44.931,16.295 C44.824,16.289 44.718,16.284 44.612,16.279 C43.614,16.234 42.615,16.211 41.617,16.174 C41.609,16.147 41.598,16.12 41.582,16.096 C41.506,15.982 41.349,15.952 41.235,16.03 C41.173,16.069 41.112,16.11 41.051,16.151 C40.922,16.145 40.796,16.139 40.669,16.133 C39.757,16.087 38.845,16.044 37.93,15.985 C38.369,15.963 38.804,15.948 39.24,15.937 C40.804,15.895 42.403,15.953 43.962,16.076 Z M33.422,17.695 C33.348,17.764 33.275,17.834 33.202,17.904 C33.206,17.819 33.206,17.737 33.206,17.685 C33.207,17.283 33.169,16.893 33.096,16.515 C33.429,16.456 33.763,16.4 34.104,16.35 C34.425,16.301 34.746,16.256 35.069,16.219 C34.5,16.687 33.948,17.191 33.422,17.695 Z M47.417,16.456 C47.08,16.435 46.75,16.413 46.419,16.393 C46.188,16.379 45.957,16.363 45.729,16.347 C45.76,16.321 45.784,16.289 45.801,16.251 C46.339,16.312 46.877,16.38 47.417,16.456 Z M31.537,17.004 C31.537,16.944 31.537,16.884 31.536,16.823 C31.65,16.799 31.764,16.775 31.875,16.752 C31.763,16.835 31.65,16.919 31.537,17.004 Z M55.889,17.029 C56.19,17.049 56.492,17.067 56.796,17.082 C57.157,17.261 57.519,17.441 57.88,17.631 C58.029,17.709 58.178,17.789 58.326,17.871 C57.713,17.731 57.102,17.604 56.489,17.488 C55.976,17.3 55.458,17.121 54.936,16.948 C55.253,16.981 55.57,17.007 55.889,17.029 Z M18.459,17.864 C18.198,17.867 17.935,17.874 17.67,17.887 C17.724,17.696 17.771,17.498 17.809,17.297 C17.956,17.303 18.103,17.315 18.249,17.334 C18.294,17.337 18.339,17.325 18.341,17.257 C18.365,17.26 18.38,17.248 18.392,17.232 C18.417,17.442 18.439,17.652 18.459,17.864 Z M17.216,17.847 C17.209,17.87 17.201,17.892 17.195,17.914 C16.762,17.945 16.331,17.985 15.91,18.038 C14.944,18.156 14.016,18.318 13.112,18.539 C14.246,17.917 15.453,17.474 16.757,17.335 C16.951,17.314 17.148,17.3 17.348,17.294 C17.311,17.484 17.267,17.669 17.216,17.847 Z M59.249,17.754 C59.789,17.975 60.325,18.234 60.846,18.499 C61.369,18.764 61.882,19.048 62.386,19.352 C62.31,19.391 62.236,19.429 62.161,19.471 C62.152,19.466 62.144,19.461 62.137,19.456 C61.793,19.229 61.451,18.999 61.098,18.787 C60.574,18.475 60.053,18.186 59.516,17.899 C59.404,17.839 59.29,17.781 59.172,17.722 C59.201,17.735 59.224,17.744 59.249,17.754 Z M58.963,18.264 C58.98,18.266 58.998,18.265 59.015,18.26 C59.133,18.328 59.251,18.398 59.368,18.469 C59.211,18.414 59.053,18.361 58.897,18.308 C58.816,18.28 58.735,18.253 58.656,18.226 C58.759,18.238 58.86,18.251 58.963,18.264 Z M15.253,20.34 C14.643,20.827 14.014,21.304 13.42,21.81 C13.051,22.124 12.657,22.466 12.337,22.829 C12.158,23.033 12.001,23.238 11.84,23.457 C11.766,23.56 11.705,23.679 11.642,23.789 C11.597,23.871 11.627,23.974 11.707,24.019 C11.788,24.064 11.892,24.034 11.937,23.953 C11.998,23.797 12.161,23.592 12.259,23.459 C12.606,22.987 13.097,22.533 13.544,22.154 C14.158,21.636 14.81,21.154 15.449,20.663 C15.689,20.479 15.939,20.295 16.171,20.099 C16.387,19.917 16.614,19.737 16.818,19.541 C16.911,19.452 17.005,19.35 17.104,19.266 C17.186,19.183 17.187,19.047 17.105,18.964 C17.021,18.881 16.885,18.88 16.803,18.963 C16.341,19.464 15.785,19.916 15.253,20.34 Z M63.573,20.118 C63.789,20.268 64.009,20.422 64.222,20.582 C63.692,20.301 63.145,20.023 62.6,19.77 C62.571,19.75 62.544,19.731 62.517,19.713 C62.569,19.669 62.624,19.627 62.679,19.587 C63.318,19.943 63.446,20.03 63.573,20.118 Z M9.522,21.395 C9.335,21.534 9.15,21.675 8.964,21.82 C9.218,21.545 9.5,21.279 9.77,21.023 C9.953,20.849 10.14,20.677 10.332,20.507 C10.062,20.807 9.795,21.103 9.522,21.395 Z M64.698,20.951 C64.879,21.101 65.059,21.247 65.236,21.399 C65.963,22.33 66.649,23.274 67.312,24.254 C67.299,24.215 67.268,24.192 67.226,24.199 C67.047,23.907 66.831,23.651 66.615,23.408 C66.364,23.124 66.106,22.83 65.837,22.564 C65.553,22.284 65.279,21.998 64.985,21.727 C64.809,21.564 64.63,21.404 64.333,21.154 C64.376,21.123 64.409,21.081 64.433,21.032 C64.479,20.926 64.466,20.809 64.407,20.721 C64.505,20.795 64.602,20.872 64.698,20.951 Z M18.365,21.128 C18.175,21.186 17.987,21.301 17.81,21.389 C17.297,21.644 16.784,22.051 16.323,22.385 C15.863,22.718 15.421,23.044 14.923,23.317 C14.841,23.362 14.72,23.434 14.635,23.464 C14.548,23.496 14.455,23.543 14.37,23.583 C14.255,23.635 14.12,23.672 14.001,23.719 C13.942,23.74 13.911,23.807 13.932,23.867 C13.953,23.926 14.02,23.957 14.08,23.936 C14.193,23.885 14.322,23.849 14.439,23.804 C14.55,23.762 14.676,23.701 14.786,23.651 C14.983,23.563 15.176,23.433 15.367,23.331 C15.547,23.236 15.74,23.09 15.911,22.974 C16.481,22.59 17.018,22.154 17.608,21.8 C17.768,21.703 17.93,21.617 18.094,21.532 C18.243,21.454 18.41,21.395 18.562,21.321 C18.742,21.235 18.921,21.148 19.103,21.064 C19.124,21.058 19.138,21.035 19.132,21.014 C19.125,20.994 19.101,20.981 19.081,20.987 C18.822,21.008 18.612,21.052 18.365,21.128 Z M68.652,27.91 C68.616,27.927 68.581,27.945 68.548,27.963 C68.513,27.795 68.478,27.625 68.442,27.457 C68.515,27.606 68.585,27.756 68.652,27.91 Z M69.246,29.812 C69.26,29.783 69.292,29.758 69.293,29.726 C69.297,29.594 69.286,29.41 69.27,29.273 C69.466,29.74 69.628,30.216 69.768,30.702 C69.805,30.832 69.84,30.961 69.877,31.091 C69.72,30.739 69.55,30.392 69.371,30.048 C69.189,29.698 68.985,29.34 68.754,29.013 C68.724,28.864 68.696,28.714 68.668,28.566 C68.736,28.533 68.804,28.501 68.872,28.467 C69.027,28.907 69.143,29.344 69.246,29.812 Z M71.795,38.614 C71.832,39.18 71.833,39.746 71.847,40.311 C71.852,40.521 71.852,40.733 71.849,40.945 C71.826,40.95 71.801,40.96 71.78,40.973 C71.751,40.988 71.724,41.003 71.699,41.022 L71.7,41.02 C71.747,40.394 71.75,39.774 71.773,39.148 C71.784,38.862 71.779,38.569 71.77,38.26 C71.78,38.39 71.787,38.502 71.795,38.614 Z M71.816,42.242 C71.8,42.899 71.745,43.564 71.689,44.221 C71.585,44.764 71.471,45.307 71.349,45.848 C71.162,46.679 70.923,47.492 70.689,48.309 C70.669,48.371 70.651,48.433 70.634,48.494 C70.543,48.598 70.452,48.703 70.361,48.805 C70.537,48.16 70.7,47.51 70.854,46.856 C70.945,46.468 71.028,46.061 71.098,45.669 C71.181,45.196 71.275,44.726 71.344,44.252 C71.474,43.354 71.576,42.472 71.654,41.575 C71.712,41.538 71.775,41.5 71.838,41.464 C71.831,41.723 71.823,41.983 71.816,42.242 Z M1.736,46.617 C1.816,46.996 1.902,47.376 1.996,47.754 C1.996,47.799 1.996,47.845 1.996,47.89 C1.99,48.362 2.024,48.881 2.088,49.378 C1.822,48.71 1.58,48.038 1.351,47.361 C1.357,46.553 1.361,45.743 1.341,44.938 C1.332,44.613 1.323,44.29 1.312,43.968 C1.409,44.856 1.55,45.74 1.736,46.617 Z M3.217,51.442 C3.377,51.846 3.569,52.244 3.75,52.639 C4.099,53.4 4.526,54.189 4.967,54.901 C5.174,55.233 5.378,55.568 5.599,55.89 C5.72,56.067 5.848,56.239 5.971,56.413 C6.175,56.7 6.403,56.988 6.628,57.259 C7.508,58.319 8.436,59.233 9.496,60.11 C9.587,60.185 9.679,60.257 9.776,60.323 C9.628,60.227 9.491,60.117 9.354,60.006 C8.782,59.54 8.223,59.063 7.692,58.549 C7.17,58.046 6.653,57.525 6.187,56.97 C6.054,56.812 5.926,56.655 5.799,56.498 C4.692,54.818 3.719,53.051 2.888,51.243 C2.771,50.861 2.669,50.47 2.587,50.07 C2.539,49.845 2.499,49.619 2.467,49.385 C2.696,50.083 2.945,50.755 3.217,51.442 Z M69.591,51.522 C69.59,51.524 69.589,51.526 69.588,51.528 C69.486,51.72 69.383,51.913 69.284,52.101 C69.411,51.765 69.534,51.422 69.656,51.078 C69.805,50.655 69.943,50.23 70.073,49.803 C70.149,49.721 70.223,49.639 70.298,49.558 C70.078,50.22 69.838,50.875 69.591,51.522 Z M8.459,59.964 C9.032,60.466 9.621,60.947 10.235,61.4 C10.399,61.519 10.565,61.64 10.733,61.76 C10.243,61.513 9.756,61.252 9.277,60.979 C8.899,60.566 8.531,60.143 8.174,59.712 C8.268,59.796 8.363,59.881 8.459,59.964 Z M10.621,60.964 C10.338,60.749 10.052,60.544 9.776,60.323 C10.082,60.581 10.399,60.82 10.621,60.964 Z M11.344,62.585 C11.74,62.78 12.14,62.968 12.546,63.149 C12.512,63.177 12.485,63.211 12.469,63.254 C12.417,63.386 12.48,63.537 12.612,63.59 C13.266,63.848 13.922,64.102 14.573,64.363 C14.724,64.424 14.876,64.488 15.028,64.546 C16.045,64.927 17.086,65.261 18.134,65.548 C18.769,65.722 19.402,65.892 20.039,66.052 C20.57,66.183 21.108,66.307 21.639,66.422 C19.825,66.186 18.01,65.854 16.241,65.366 C15.096,65.048 13.94,64.667 12.856,64.178 C12.702,64.107 12.551,64.037 12.402,63.965 C12.308,63.887 12.213,63.808 12.12,63.729 C11.496,63.198 10.891,62.64 10.308,62.057 C10.65,62.238 10.994,62.413 11.344,62.585 Z M59.822,64.321 C59.961,64.237 60.118,64.143 60.254,64.024 C60.277,64.02 60.296,64.011 60.315,64.003 C60.147,64.115 59.976,64.224 59.822,64.321 Z M56.366,65.599 C56.271,65.642 56.223,65.742 56.24,65.84 C55.863,65.84 55.486,65.856 55.111,65.856 C55.018,65.855 54.924,65.856 54.83,65.857 C55.54,65.676 56.244,65.477 56.935,65.262 C57.097,65.209 57.262,65.157 57.428,65.104 C57.073,65.272 56.719,65.431 56.366,65.599 Z M55.299,66.194 C54.342,66.433 53.378,66.573 52.395,66.661 C52.101,66.686 51.79,66.713 51.496,66.718 C51.155,66.724 50.818,66.731 50.479,66.737 C50.689,66.704 50.899,66.67 51.113,66.635 C51.54,66.589 51.967,66.542 52.396,66.497 C53.315,66.4 54.231,66.284 55.148,66.19 C55.246,66.179 55.346,66.168 55.444,66.156 C55.396,66.169 55.348,66.181 55.299,66.194 Z M26.995,66.502 C27.013,66.503 27.032,66.506 27.051,66.509 C27.425,66.57 27.802,66.615 28.177,66.671 C28.531,66.724 28.893,66.757 29.25,66.805 C29.731,66.868 30.215,66.924 30.704,66.973 C30.251,66.97 29.798,66.964 29.344,66.955 C28.605,66.882 27.864,66.797 27.127,66.701 C26.412,66.609 25.694,66.509 24.982,66.394 C25.65,66.451 26.322,66.494 26.995,66.502 Z"></path>
                    </g>
                </g>
            </g>
        </g>
    </g>
</svg>